{"glyphs":{"0":{"ha":725,"x_min":0,"x_max":0,"o":"m 26 419 b 326 -6 26 232 100 -6 b 696 522 585 -6 696 308 b 388 972 696 700 606 972 b 167 831 288 972 222 904 b 117 783 153 813 131 803 b 26 419 43 682 26 540 z m 385 878 b 399 890 385 885 392 890 b 411 878 407 890 411 886 b 399 865 411 869 407 865 b 385 878 392 865 385 871 z m 108 474 b 286 851 108 611 163 776 b 349 878 303 863 328 878 b 364 863 357 878 364 871 b 267 799 364 849 286 817 b 140 476 181 717 140 592 b 143 413 140 454 143 433 b 128 396 143 404 136 396 b 108 474 103 396 108 463 z m 374 567 b 439 597 390 582 415 597 b 510 515 483 597 510 557 b 356 310 510 458 413 310 b 338 321 347 310 343 315 b 247 475 290 361 247 407 b 317 586 247 515 264 586 b 374 567 338 586 360 567 z m 372 483 b 372 488 374 483 374 488 b 372 483 369 488 369 483 z "},"1":{"ha":458,"x_min":0,"x_max":0,"o":"m 26 801 b 128 710 31 749 76 710 b 222 754 167 710 190 739 l 222 236 l 232 75 b 336 -7 236 26 293 -7 b 429 75 381 -7 429 25 l 424 792 b 422 811 424 793 422 807 b 263 981 417 903 360 981 b 26 801 183 981 21 892 z m 288 932 b 299 944 288 939 290 944 b 313 931 306 944 311 939 b 300 919 313 925 306 919 b 288 932 292 919 288 925 z m 96 824 b 265 932 93 858 229 932 b 279 921 274 932 278 929 b 226 890 281 896 243 899 b 157 850 199 876 182 867 b 107 814 142 840 125 814 b 96 824 100 814 96 818 z m 263 718 b 274 729 263 724 267 729 b 281 722 278 729 281 726 b 269 711 282 715 276 711 b 263 718 264 711 263 713 z m 278 246 b 261 265 267 246 261 251 l 256 667 b 269 701 256 678 253 701 b 285 685 281 701 285 693 b 286 678 285 683 286 678 l 290 276 b 278 246 290 267 293 246 z "},"2":{"ha":646,"x_min":0,"x_max":0,"o":"m 26 724 b 26 704 26 721 26 707 b 124 624 36 657 75 624 b 213 690 165 624 201 650 b 388 783 226 738 340 783 b 421 739 418 783 421 769 b 121 203 421 568 235 339 b 81 97 96 172 81 138 b 185 -19 81 35 125 -8 b 333 -10 235 -19 283 -17 l 528 -3 b 618 92 578 -1 618 43 b 521 192 618 143 575 192 l 367 192 b 369 197 367 192 369 196 b 618 742 485 351 618 539 b 389 979 618 882 531 979 b 26 724 264 979 26 874 z m 94 756 b 118 796 94 768 111 788 b 411 942 188 872 306 942 b 443 926 422 942 443 944 b 435 914 443 921 442 917 b 193 826 346 914 264 876 b 108 743 183 819 111 743 b 94 756 101 743 94 747 z m 463 911 b 475 924 463 918 468 924 b 488 910 483 924 488 917 b 475 899 488 903 482 899 b 463 911 468 899 463 904 z m 192 222 b 193 232 192 226 190 229 b 435 633 290 350 386 488 l 443 657 b 454 665 444 664 449 665 b 467 651 463 665 467 658 b 460 628 467 643 463 635 b 236 239 404 483 332 360 b 203 211 228 228 218 211 b 192 222 194 211 192 214 z m 158 197 b 174 211 158 206 165 211 b 189 199 182 211 189 207 b 171 183 189 189 179 183 b 158 197 163 183 158 190 z "},"3":{"ha":694,"x_min":0,"x_max":0,"o":"m 28 715 b 128 611 28 660 71 611 b 221 703 183 611 215 651 b 421 779 246 739 376 779 b 449 775 431 779 440 779 b 449 769 449 774 449 769 b 340 625 449 715 382 650 b 206 496 283 589 206 576 b 301 404 206 443 250 404 b 367 408 324 404 346 408 b 478 333 414 408 478 390 b 356 190 478 281 411 190 b 285 210 333 190 306 199 b 200 260 261 236 236 260 b 108 164 147 260 108 215 b 356 0 108 49 263 0 b 668 333 521 0 668 174 b 607 501 668 394 647 454 b 547 553 590 519 563 533 b 639 775 600 617 639 690 b 421 969 639 901 540 969 b 28 715 296 969 28 872 z m 101 751 b 125 790 101 765 117 781 b 458 918 207 879 340 918 b 468 906 464 917 468 911 b 460 893 468 900 464 896 b 203 817 365 879 288 868 b 114 740 185 806 118 740 b 101 751 106 740 101 744 z m 501 900 b 513 913 501 907 504 913 b 525 900 519 913 525 907 b 514 889 525 892 521 889 b 501 900 506 889 501 893 z m 278 519 b 383 568 278 556 361 568 b 542 513 439 568 500 550 b 571 472 550 504 571 486 b 558 458 571 465 565 458 b 500 508 544 458 515 500 b 386 539 465 528 426 539 b 331 532 368 539 349 539 b 290 507 321 526 301 507 b 278 519 283 507 278 513 z m 583 432 b 599 447 583 440 589 447 b 611 438 604 447 611 446 b 596 419 611 429 603 419 b 583 432 589 419 583 425 z "},"4":{"ha":710,"x_min":0,"x_max":0,"o":"m 29 519 b 426 290 54 306 250 286 b 435 285 435 296 435 289 b 436 279 435 285 436 281 l 440 92 b 440 86 440 92 440 88 b 549 -4 447 31 493 -11 b 635 86 593 1 636 39 l 631 324 b 682 424 667 346 688 383 b 626 500 678 457 660 488 l 624 515 l 629 875 b 629 899 629 878 629 894 b 528 982 622 951 576 988 b 444 892 479 976 450 939 b 432 747 442 850 432 749 l 429 488 b 425 486 429 488 426 486 b 418 486 424 486 418 486 b 342 485 407 485 353 485 b 222 539 301 485 229 488 b 263 683 217 589 243 642 b 313 783 268 693 301 763 b 353 890 332 822 358 844 b 253 971 347 942 304 978 b 157 892 206 965 179 928 b 29 519 89 785 14 653 z m 231 911 b 250 926 236 917 243 925 b 264 914 258 926 264 921 b 257 899 265 906 264 907 b 185 800 229 865 211 842 b 99 564 151 749 86 628 b 88 557 97 557 93 557 b 69 572 78 556 71 561 b 231 911 60 663 165 836 z m 510 878 b 522 893 510 883 515 892 b 535 878 531 893 535 885 l 508 651 b 510 211 492 507 497 356 b 499 199 508 204 507 199 b 482 221 486 197 483 211 b 510 878 457 438 471 663 z m 69 517 b 82 531 69 525 75 531 b 97 519 90 532 97 528 b 83 503 99 511 93 504 b 69 517 75 503 71 508 z m 486 138 b 501 158 485 147 493 157 b 514 149 510 158 513 156 b 500 128 515 136 511 129 b 486 138 493 126 486 131 z "},"5":{"ha":653,"x_min":0,"x_max":0,"o":"m 28 683 b 304 429 28 508 158 474 b 371 368 332 419 371 403 b 256 201 371 303 297 240 b 138 93 215 163 138 188 b 249 -10 138 33 190 -10 b 564 367 388 -10 564 235 b 250 649 564 553 401 604 b 221 676 235 654 221 660 b 256 781 221 697 238 776 b 432 790 314 786 372 790 b 521 788 461 790 492 788 b 624 879 574 788 624 822 b 435 983 624 979 508 983 b 276 974 382 983 329 974 b 224 985 258 974 242 985 b 28 683 108 985 28 779 z m 211 883 b 414 939 211 921 385 939 b 525 931 450 939 489 935 b 564 908 539 929 564 928 b 549 890 564 900 558 890 b 526 903 539 890 538 903 b 417 908 481 908 460 908 b 269 889 367 908 319 903 b 225 871 257 885 238 871 b 211 883 217 871 211 875 z m 174 850 b 193 869 174 860 185 869 b 206 854 201 869 206 863 b 185 838 206 844 193 838 b 174 850 179 838 174 844 z "},"6":{"ha":707,"x_min":0,"x_max":0,"o":"m 33 439 b 275 6 10 260 68 33 b 669 317 472 -22 643 126 b 674 353 669 322 674 347 b 483 593 674 478 614 575 b 272 550 410 603 336 586 l 271 550 b 393 796 276 594 371 782 b 451 872 425 815 447 833 b 369 979 460 924 422 972 b 33 439 189 1004 50 563 z m 367 921 b 383 935 368 931 374 936 b 393 921 392 935 394 929 b 378 907 393 914 388 906 b 367 921 372 908 367 914 z m 326 910 b 342 914 332 913 336 915 b 353 900 349 914 353 907 b 349 890 351 897 351 893 b 117 464 214 793 140 625 b 101 453 114 457 108 453 b 89 469 94 454 88 461 b 92 492 89 472 90 489 b 326 910 113 644 197 821 z m 353 385 b 418 443 372 407 381 449 b 458 369 453 438 463 399 b 353 242 451 318 415 233 b 250 360 296 250 242 299 b 306 410 254 389 274 414 b 353 385 326 407 336 394 z "},"7":{"ha":774,"x_min":0,"x_max":0,"o":"m 31 814 b 122 721 31 763 71 721 b 249 750 164 721 208 742 b 485 781 335 769 396 781 b 544 750 506 778 544 778 b 507 604 544 701 522 649 b 297 139 446 451 368 285 b 286 93 290 124 286 110 b 386 -6 286 38 331 -6 b 472 44 419 -6 457 11 l 661 450 b 746 750 703 540 746 649 b 450 983 746 919 600 983 b 144 922 346 983 243 957 b 31 814 93 904 31 878 z m 101 813 b 490 929 197 917 358 929 b 585 900 508 928 585 924 b 569 886 585 892 578 886 b 515 897 554 886 531 894 b 449 899 489 900 481 899 b 175 835 353 899 260 879 b 111 793 157 825 131 793 b 99 804 106 793 99 797 b 101 813 99 808 99 810 z m 611 888 b 622 899 611 896 615 899 b 633 888 629 899 633 894 b 622 875 633 881 631 875 b 611 888 614 875 611 881 z "},"8":{"ha":638,"x_min":0,"x_max":0,"o":"m 38 731 b 114 497 38 632 54 576 b 81 444 107 478 90 463 b 28 244 49 381 28 315 b 281 -8 28 99 136 -8 b 610 279 439 -8 610 110 b 521 454 610 353 572 404 l 521 460 b 597 758 560 556 597 654 b 374 976 597 893 507 976 b 38 731 226 976 63 885 z m 376 901 b 393 918 376 910 383 918 b 404 906 399 918 404 911 b 390 889 404 897 397 889 b 376 901 382 889 376 892 z m 125 665 b 326 893 125 779 206 893 b 346 878 335 893 346 888 b 336 865 346 872 342 867 b 153 667 226 858 153 776 b 172 565 153 632 161 600 b 158 551 172 557 167 551 b 125 665 132 551 125 649 z m 318 736 b 374 775 339 751 344 775 b 413 713 407 775 413 738 b 350 610 413 685 385 610 b 239 706 288 610 239 638 b 275 756 239 728 247 756 b 318 736 292 756 306 746 z m 111 272 b 257 489 111 354 154 489 b 274 475 265 489 274 483 b 231 454 274 457 242 458 b 142 274 163 425 142 340 b 171 150 142 229 149 189 b 231 85 182 131 231 96 b 218 72 231 76 228 72 b 190 86 208 72 197 79 b 111 272 132 128 111 206 z m 332 333 b 382 369 343 351 358 369 b 433 303 418 369 433 333 b 386 208 433 278 415 208 b 260 307 342 208 260 258 b 303 343 260 329 282 343 b 332 333 313 343 324 339 z m 240 67 b 253 79 240 75 244 79 b 267 67 260 79 267 74 b 253 54 267 60 260 54 b 240 67 246 54 240 60 z "},"9":{"ha":642,"x_min":0,"x_max":0,"o":"m 31 576 b 232 306 31 454 92 306 b 419 403 308 306 368 353 b 269 181 419 317 358 203 b 219 193 254 181 238 193 b 132 101 171 193 129 150 b 258 -11 135 33 194 -11 b 404 36 311 -11 360 13 b 613 558 593 135 613 369 b 606 778 613 576 607 729 b 507 900 603 839 576 900 b 474 896 496 900 485 896 b 301 976 425 942 369 976 b 31 576 114 976 31 731 z m 86 594 b 311 926 86 717 161 926 b 379 899 325 926 379 922 b 365 886 379 890 372 886 b 310 900 347 886 331 900 b 114 597 179 900 114 701 b 117 536 114 576 117 556 b 104 521 117 528 113 521 b 86 594 82 521 86 583 z m 400 879 b 411 892 400 885 404 892 b 424 878 419 892 424 885 b 414 865 424 871 421 865 b 400 879 406 865 400 871 z m 304 703 b 369 765 317 733 332 765 b 422 679 414 765 422 713 b 313 503 422 631 368 503 b 272 522 296 503 285 515 b 197 660 221 551 197 600 b 253 746 197 692 211 746 b 301 703 279 746 292 725 z "},"\u0000":{"ha":0,"x_min":0,"x_max":0,"o":""}," ":{"ha":347,"x_min":0,"x_max":0,"o":""},"A":{"ha":774,"x_min":0,"x_max":0,"o":"m 65 463 b 233 1 51 335 43 21 b 431 182 338 -11 421 85 b 383 336 438 239 418 290 l 386 338 l 531 344 l 515 85 b 594 0 513 40 553 4 b 685 67 638 -4 675 25 b 692 135 686 76 692 125 b 704 251 693 143 703 243 b 717 422 707 276 715 396 b 456 971 724 601 696 946 b 65 463 196 999 86 658 z m 117 488 b 267 833 131 611 182 740 b 303 861 274 842 289 863 b 313 847 310 860 314 856 b 272 800 311 829 282 814 b 144 485 201 714 156 594 b 143 388 140 453 146 419 b 131 375 142 381 140 375 b 114 457 110 378 113 443 b 117 488 114 458 117 479 z m 408 703 b 482 771 421 706 426 776 b 525 681 524 767 529 714 b 419 535 521 639 469 529 b 319 692 372 540 315 649 b 363 735 322 715 336 738 b 408 703 382 733 396 717 z m 125 322 b 139 342 126 331 128 343 b 149 333 143 342 147 336 b 154 272 147 314 157 290 b 142 263 154 267 149 261 b 125 322 122 264 124 310 z m 207 290 b 224 300 208 300 215 301 b 319 160 290 293 326 219 b 318 144 319 157 318 146 b 282 121 311 126 301 118 b 207 290 217 128 201 240 z "},"B":{"ha":731,"x_min":0,"x_max":0,"o":"m 76 888 b 69 564 69 779 69 672 b 85 256 69 461 71 358 b 217 26 96 169 96 19 b 299 -1 249 14 261 -1 b 674 321 483 -1 674 125 b 554 542 674 414 631 492 l 554 543 b 654 768 610 608 654 681 b 507 961 654 860 601 944 b 483 961 503 961 488 961 b 274 818 386 961 322 893 b 256 792 271 817 260 797 l 253 903 b 167 975 251 944 206 975 b 76 888 117 975 82 935 z m 497 925 b 510 936 497 931 503 936 b 524 925 517 936 524 932 b 510 913 524 915 518 913 b 497 925 500 913 497 917 z m 281 725 b 461 924 281 782 404 924 b 475 913 467 924 475 919 b 411 867 475 899 422 875 b 314 746 371 835 336 793 b 304 718 310 738 310 725 b 293 710 300 711 299 710 b 281 725 283 710 281 718 z m 383 725 b 419 757 383 749 400 753 b 454 793 426 758 426 793 b 490 736 482 793 490 758 b 456 676 490 715 482 676 b 383 725 424 676 383 689 z m 124 774 b 136 788 125 781 128 788 b 150 774 146 788 147 781 b 151 403 151 650 151 526 b 151 260 151 382 151 281 b 140 250 150 254 146 250 b 125 264 131 250 128 254 b 124 700 125 410 124 554 b 124 774 124 711 124 763 z m 399 654 b 399 658 396 654 396 658 b 399 654 400 658 400 654 z m 415 375 b 476 446 425 406 439 446 b 529 365 517 446 529 396 b 440 211 529 321 496 211 b 301 340 381 211 301 279 b 358 399 301 372 326 399 b 415 375 379 399 399 389 z "},"C":{"ha":682,"x_min":0,"x_max":0,"o":"m 36 408 b 347 0 36 224 136 0 b 449 18 383 0 414 6 b 636 203 513 40 636 124 b 542 297 636 254 593 297 b 347 192 460 297 431 192 b 228 413 251 192 228 343 b 354 747 228 531 267 665 b 413 782 369 761 393 782 b 429 771 419 782 426 775 b 557 569 483 708 440 569 b 649 679 618 569 649 625 b 415 974 649 814 567 974 b 36 408 160 974 36 614 z m 358 892 b 396 917 358 907 382 917 b 411 904 403 917 411 913 b 369 879 411 894 378 879 b 358 892 361 879 358 885 z m 90 442 b 268 842 90 593 157 739 b 326 881 278 850 310 881 b 339 868 335 881 339 876 b 279 815 339 847 294 829 b 117 440 176 719 117 582 b 119 393 117 425 119 408 b 106 379 119 385 114 379 b 90 401 93 379 90 390 b 90 442 90 407 90 435 z "},"D":{"ha":764,"x_min":0,"x_max":0,"o":"m 232 854 b 143 946 224 903 196 946 b 56 864 94 946 61 910 b 51 711 51 803 51 768 b 51 664 51 699 51 667 l 64 396 l 96 138 b 125 75 99 111 111 97 b 228 0 151 26 167 0 b 382 53 282 0 336 28 b 719 596 594 169 719 349 b 446 975 719 757 633 975 b 258 883 369 975 308 938 b 238 858 257 882 239 861 b 232 854 236 857 233 856 z m 242 735 b 257 776 242 749 251 764 b 457 933 293 853 365 933 b 524 907 471 933 524 929 b 511 894 524 900 518 894 b 458 907 493 894 478 907 b 288 781 382 907 321 842 b 265 728 279 764 276 742 b 256 722 263 724 260 722 b 242 735 249 722 242 728 z m 536 889 b 549 900 536 894 542 900 b 583 874 561 900 576 881 b 585 865 585 869 585 868 b 574 854 585 858 581 854 b 536 889 564 854 536 876 z m 92 649 b 92 693 92 660 92 690 b 156 871 92 728 94 871 b 181 856 165 871 181 868 b 169 843 181 850 176 843 b 156 846 164 843 160 846 b 118 650 118 846 118 674 b 126 475 118 592 126 533 b 126 465 126 474 126 467 b 114 457 124 458 121 457 b 99 490 99 457 100 479 b 92 611 97 519 92 606 b 92 649 92 613 92 639 z m 407 599 b 454 633 418 618 432 633 b 511 560 494 633 511 593 b 415 381 511 513 479 381 b 301 536 358 381 301 486 b 365 619 301 572 322 619 b 407 599 381 619 396 611 z m 114 428 b 125 439 114 433 119 439 b 138 425 133 439 138 433 b 126 415 138 418 132 415 b 114 428 119 415 114 421 z "},"E":{"ha":724,"x_min":0,"x_max":0,"o":"m 157 726 b 174 644 157 697 161 671 b 201 600 178 635 201 606 b 150 551 201 593 156 558 b 36 281 81 475 36 385 b 304 0 36 126 147 0 b 608 139 425 0 524 60 b 681 256 642 169 681 208 b 590 349 681 307 643 349 b 503 293 547 349 531 324 b 307 183 454 238 385 183 b 219 278 251 183 219 225 b 467 544 219 417 358 490 b 513 625 494 563 513 590 b 340 725 513 746 340 707 b 422 792 340 758 393 792 b 503 740 426 792 458 740 b 590 829 553 740 590 779 b 414 972 590 919 494 972 b 157 726 286 972 157 857 z m 440 911 b 451 921 440 918 444 921 b 463 911 458 921 463 918 b 453 899 463 906 461 899 b 440 911 446 899 440 904 z m 206 740 b 383 919 206 810 308 919 b 394 919 385 919 393 919 b 404 906 401 917 404 913 b 396 896 404 900 403 899 b 231 732 307 886 256 814 b 219 726 228 726 224 726 b 206 740 211 726 206 732 z m 83 317 b 361 611 83 444 229 615 b 371 600 369 610 371 607 b 364 588 371 594 369 590 b 133 399 257 581 175 493 b 110 314 121 371 117 343 b 96 303 108 307 103 303 b 83 317 89 303 83 310 z m 78 249 b 89 260 78 254 83 260 b 104 247 96 260 104 254 b 90 236 104 240 97 236 b 78 249 83 236 78 242 z "},"F":{"ha":971,"x_min":0,"x_max":0,"o":"m 265 451 l 264 449 b 100 329 197 432 89 424 b 213 238 107 269 157 238 l 319 256 l 329 256 b 333 135 333 215 329 175 b 456 3 333 68 386 3 b 582 296 585 3 589 204 b 774 399 654 308 786 282 b 632 501 765 469 694 501 b 575 499 613 501 593 499 l 574 503 b 613 625 569 549 618 572 b 501 724 606 681 557 724 b 390 599 432 724 411 651 l 389 596 b 258 683 389 596 297 657 b 242 697 253 688 246 693 b 411 743 254 722 383 742 l 714 764 b 779 765 721 764 767 765 b 875 765 793 765 860 765 b 951 860 922 774 957 808 b 771 965 942 951 840 965 b 735 964 761 965 736 964 l 413 946 b 44 789 292 940 100 910 b 29 728 36 774 26 747 l 35 678 b 160 522 42 617 113 554 b 264 453 175 513 247 463 z m 117 751 b 254 861 111 800 224 850 b 608 922 365 901 486 922 b 742 900 625 922 739 926 b 729 885 743 890 739 888 b 614 893 690 892 651 893 b 168 779 499 893 250 864 b 132 738 163 772 146 738 b 117 751 124 738 118 744 z m 475 622 b 483 635 474 628 476 635 b 497 622 489 635 496 628 b 488 611 497 615 493 611 b 475 622 481 611 475 615 z m 383 154 b 443 553 367 292 406 428 b 461 575 446 563 449 575 b 476 561 468 575 475 569 b 475 554 476 560 475 556 b 440 435 471 543 443 447 b 413 153 417 346 401 249 b 417 122 413 149 415 126 b 432 81 419 108 431 94 b 421 68 432 74 429 68 b 383 154 390 68 385 136 z "},"G":{"ha":747,"x_min":0,"x_max":0,"o":"m 29 465 b 389 0 29 247 140 0 b 719 342 576 0 719 154 b 522 557 719 460 646 557 b 381 525 472 557 428 540 b 308 429 336 510 308 475 b 404 333 308 376 350 333 b 515 360 443 333 476 360 b 524 360 517 360 522 360 b 525 344 525 353 525 350 b 388 196 525 261 471 196 b 226 457 261 196 226 360 b 468 782 226 592 310 782 b 599 726 542 782 535 726 b 689 818 650 726 689 767 b 465 978 689 925 554 978 b 29 465 204 978 29 704 z m 103 679 b 349 924 133 747 264 924 b 367 910 357 924 367 921 b 290 867 367 900 300 874 b 126 665 221 815 165 742 b 115 660 125 661 119 660 b 103 674 106 660 103 665 b 103 679 103 674 103 678 z m 92 621 b 103 632 92 626 94 632 b 114 621 110 632 114 628 b 103 608 114 614 110 608 b 92 621 94 608 92 614 z m 353 461 b 529 529 353 506 499 529 b 568 514 540 529 568 532 b 554 500 568 506 563 500 b 419 478 507 501 464 496 b 365 449 404 472 382 449 b 353 461 360 449 353 454 z m 575 508 b 589 521 575 517 582 521 b 601 510 596 521 601 518 b 588 496 601 504 594 496 b 575 508 581 496 575 503 z "},"H":{"ha":999,"x_min":0,"x_max":0,"o":"m 278 482 b 272 482 278 482 274 482 b 157 481 233 479 196 483 b 32 372 94 476 32 443 b 115 276 32 319 67 288 b 211 265 129 275 196 267 b 286 244 225 263 279 254 b 447 0 299 151 321 -8 b 574 171 532 6 574 96 b 563 244 574 196 571 219 b 549 282 560 257 549 269 b 639 301 579 288 610 292 b 690 318 649 304 682 318 b 703 99 694 286 701 132 b 804 -26 706 38 731 -32 b 904 81 861 -22 904 25 b 903 97 904 85 904 96 l 892 347 b 892 383 892 349 892 374 b 893 501 892 426 892 454 b 932 596 893 517 925 578 b 961 786 954 657 961 722 b 840 983 961 867 947 990 b 708 754 731 976 714 838 l 696 560 l 694 556 b 479 478 663 490 533 482 l 479 496 b 493 660 479 504 489 619 b 510 786 494 674 506 761 b 524 872 513 814 524 844 b 432 958 524 924 482 961 b 317 796 347 953 331 860 b 306 747 315 790 308 756 b 300 711 304 739 300 714 z m 742 661 b 850 946 742 719 756 940 b 878 932 861 947 878 946 b 814 885 878 907 838 928 b 772 604 768 799 771 694 b 758 592 771 597 765 592 b 744 604 751 592 744 599 b 742 661 743 628 742 642 z m 315 557 b 422 917 315 618 335 910 b 443 903 432 917 443 913 b 419 886 443 888 429 889 b 382 819 400 879 388 835 b 344 504 347 719 342 607 b 331 492 343 497 338 492 b 317 503 322 490 317 494 b 315 557 317 511 315 549 z m 464 900 b 476 914 464 910 469 914 b 492 900 485 914 492 907 b 485 888 492 894 489 892 b 478 888 485 888 479 888 b 464 900 469 886 464 892 z m 850 788 b 865 822 850 799 850 821 b 878 811 874 822 878 819 b 863 769 878 797 882 771 b 850 788 851 769 850 779 z m 101 390 b 165 456 101 428 129 453 b 203 439 176 456 203 457 b 190 425 203 432 199 425 b 164 426 181 424 172 428 b 131 404 150 426 136 419 b 131 394 131 403 131 396 b 203 324 131 338 203 346 b 188 308 203 314 196 310 b 101 390 143 306 101 349 z m 731 207 b 731 251 731 219 731 250 b 750 317 731 264 728 315 b 764 303 757 317 764 310 b 758 208 764 271 758 240 b 804 46 758 156 760 81 b 832 28 811 39 832 43 b 815 13 832 19 824 13 b 731 207 739 7 731 158 z m 349 221 b 363 242 349 228 353 240 b 376 233 368 242 374 238 b 408 93 375 182 383 138 b 456 42 414 81 456 47 b 440 26 456 33 449 28 b 347 200 383 24 347 160 b 349 221 347 203 347 217 z m 840 50 b 851 64 840 57 844 64 b 864 49 861 65 864 56 b 853 35 864 39 863 35 b 840 50 843 33 840 42 z m 471 46 b 483 60 471 54 475 60 b 494 49 492 61 494 56 b 483 36 494 42 490 36 b 471 46 475 35 471 38 z "},"I":{"ha":471,"x_min":0,"x_max":0,"o":"m -33 879 b 60 783 -33 828 8 783 b 138 794 86 783 110 794 b 163 794 140 794 158 794 l 175 567 l 154 199 l 150 194 b 67 88 107 169 67 143 b 265 -14 67 -26 188 -14 b 313 -17 269 -14 308 -17 b 344 -17 314 -17 338 -17 b 351 -17 346 -17 349 -17 l 371 -17 b 376 -17 374 -17 375 -17 b 468 83 428 -10 468 31 b 353 183 468 150 414 182 l 353 188 l 371 446 b 372 529 371 450 372 508 b 363 781 372 613 371 697 l 363 786 b 468 889 419 794 468 826 b 285 996 468 994 364 996 b 163 992 246 996 200 992 b -33 879 89 989 -33 978 z m 44 885 b 254 954 44 950 200 954 b 390 929 281 954 390 953 b 374 915 390 919 383 915 b 249 925 332 915 290 925 b 74 885 235 925 74 918 b 78 869 75 881 78 871 b 64 856 79 863 71 856 b 44 885 50 856 44 874 z m 404 921 b 415 933 404 929 408 933 b 426 921 424 933 426 929 b 415 910 426 914 424 910 b 404 921 408 910 404 914 z m 210 767 b 224 779 210 774 217 779 b 238 767 231 779 238 774 b 238 725 238 760 238 732 b 238 685 238 715 238 688 b 232 204 236 613 232 276 b 217 194 229 196 225 194 b 204 214 206 194 204 204 b 210 767 204 399 207 582 z "},"J":{"ha":792,"x_min":0,"x_max":0,"o":"m 218 874 b 315 779 218 819 261 779 b 442 783 357 779 400 783 b 444 782 443 783 444 783 l 456 557 b 457 511 456 554 457 522 b 363 196 457 403 447 275 b 325 182 351 185 340 182 b 115 369 211 182 231 369 b 22 275 63 369 22 326 b 54 190 22 244 40 215 b 325 -7 110 85 199 -7 b 626 311 494 -7 594 164 b 643 513 640 378 643 446 b 643 558 643 525 643 557 l 629 789 l 688 793 b 769 886 735 796 769 843 b 668 978 769 942 721 978 b 651 978 664 978 651 978 l 319 967 b 218 874 265 965 218 931 z m 617 911 b 629 924 617 918 622 924 b 640 913 636 924 640 919 b 629 899 640 906 639 899 b 617 911 622 899 617 906 z m 286 863 b 515 922 286 921 461 922 b 572 922 524 922 564 922 b 583 908 579 921 583 915 b 571 896 583 900 578 897 b 385 886 508 897 446 896 b 314 861 379 885 314 874 b 329 842 319 856 329 850 b 317 828 329 835 325 828 b 286 863 301 828 286 847 z m 503 733 b 517 750 503 743 508 750 b 531 725 529 750 531 735 b 535 597 533 682 535 640 b 510 338 535 510 529 424 b 379 138 499 285 456 138 b 367 149 372 138 367 142 b 404 176 367 167 392 167 b 507 596 499 260 507 479 b 503 733 507 642 503 688 z m 325 142 b 338 158 325 150 328 158 b 350 140 347 158 350 149 b 338 128 350 133 344 128 b 325 142 329 128 325 135 z "},"K":{"ha":763,"x_min":0,"x_max":0,"o":"m 42 889 b 28 493 29 757 28 626 b 29 393 28 465 29 396 l 43 101 b 139 6 46 49 86 6 b 231 99 192 6 231 46 b 225 208 231 135 225 171 b 225 221 225 210 225 219 b 385 93 265 168 325 122 l 526 24 b 574 13 542 17 558 13 b 667 104 624 13 667 54 b 622 185 667 135 651 171 l 467 263 b 358 383 422 285 358 326 b 643 768 358 499 561 692 b 729 882 681 797 729 828 b 642 967 729 931 689 967 b 547 922 603 967 578 946 b 215 553 417 825 296 696 b 215 560 215 554 215 557 l 215 585 b 215 593 215 588 215 590 b 219 876 215 688 219 782 b 129 968 219 925 179 968 b 42 889 83 968 50 933 z m 264 524 b 628 908 264 588 579 908 b 643 894 636 908 643 904 b 603 863 643 882 608 867 b 301 543 490 779 378 658 b 275 511 296 535 289 511 b 264 524 269 511 264 517 z m 64 651 b 64 699 64 663 64 696 b 140 899 65 738 69 899 b 183 871 154 899 183 889 b 172 858 183 864 179 858 b 140 872 160 858 153 872 b 92 653 92 872 92 683 b 104 447 92 585 97 515 b 90 432 104 439 100 432 b 64 651 61 432 64 611 z m 97 383 b 108 394 97 389 103 394 b 124 379 118 394 124 388 b 114 368 124 372 119 368 b 97 383 106 368 97 375 z "},"L":{"ha":632,"x_min":0,"x_max":0,"o":"m 43 886 b 35 685 36 819 35 753 b 40 403 35 592 36 497 b 318 -17 53 224 103 4 b 356 -17 324 -17 350 -17 b 511 -12 407 -17 460 -14 b 601 85 563 -7 601 33 b 481 182 601 154 540 182 b 356 178 439 182 397 178 b 235 408 242 178 242 325 b 226 786 233 465 228 729 b 226 881 226 800 226 867 b 135 972 222 931 188 972 b 43 886 85 972 49 935 z m 61 658 b 75 840 61 719 63 781 b 132 928 81 867 93 928 b 175 894 149 928 175 913 b 161 881 175 886 168 881 b 132 899 149 881 144 899 b 90 658 96 899 90 706 b 132 271 90 529 101 400 b 118 257 132 263 126 257 b 99 294 101 257 101 283 b 61 658 75 415 61 535 z m 122 213 b 139 232 122 222 129 232 b 151 221 146 232 151 229 b 136 199 151 213 147 199 b 122 213 128 199 122 206 z "},"M":{"ha":907,"x_min":0,"x_max":0,"o":"m 449 838 b 276 974 415 904 357 974 b 90 751 160 974 114 843 b 33 339 53 617 33 478 b 47 161 33 279 36 219 b 156 0 58 94 67 0 b 247 88 206 0 247 38 b 233 139 247 107 239 121 b 221 343 225 207 221 275 b 282 742 221 475 239 617 l 285 740 b 303 633 292 733 303 644 l 318 371 b 414 274 321 318 358 274 b 508 358 464 274 499 311 b 599 718 526 483 549 601 b 638 783 607 735 621 771 b 688 510 692 707 688 599 b 681 183 688 403 681 289 b 681 83 681 168 681 99 b 772 6 688 38 728 6 b 868 108 831 6 868 53 b 874 514 867 242 874 382 b 635 979 874 663 850 979 b 460 856 557 979 497 919 l 451 842 b 449 838 450 839 450 838 z m 453 757 b 468 800 453 769 464 790 b 639 946 497 865 558 946 b 700 917 656 946 700 939 b 688 903 700 908 697 903 b 639 918 672 903 658 918 b 478 751 554 918 503 819 b 465 743 474 747 471 743 b 453 757 457 743 453 750 z m 89 433 b 164 781 89 553 121 672 b 263 917 178 813 228 917 b 275 903 269 917 275 910 b 244 869 275 890 253 879 b 190 768 224 838 206 803 b 115 375 139 643 111 511 b 106 369 114 371 110 369 b 89 433 85 369 89 425 z m 717 890 b 728 901 717 896 722 901 b 738 890 735 901 738 896 b 728 879 738 883 735 879 b 717 890 722 879 717 885 z m 89 314 b 101 326 89 322 93 326 b 114 314 111 326 114 322 b 100 304 114 306 107 304 b 89 314 93 304 89 307 z "},"N":{"ha":936,"x_min":0,"x_max":0,"o":"m 31 415 b 51 171 31 335 35 251 b 168 -1 67 106 79 -1 b 258 88 217 -1 258 38 b 239 206 258 125 243 171 b 224 424 231 279 224 350 b 258 694 224 514 231 607 b 268 724 261 703 267 724 l 269 724 l 365 371 b 651 44 401 238 485 44 b 892 415 831 44 892 271 l 892 546 b 872 746 892 558 879 699 b 851 883 872 750 858 844 b 756 969 844 932 806 969 b 661 872 701 969 661 925 b 661 856 661 869 661 858 b 700 424 686 706 700 576 b 649 239 699 386 678 239 b 601 293 631 239 608 279 b 469 726 533 424 504 588 b 269 974 442 821 393 974 b 31 415 60 974 31 539 z m 267 894 b 281 908 267 903 274 908 b 294 896 288 908 294 903 b 279 881 294 888 286 881 b 267 894 271 881 267 888 z m 149 769 b 221 879 156 793 190 879 b 235 867 229 879 235 874 b 204 825 235 854 211 838 b 164 726 188 794 174 761 b 114 315 125 593 108 456 b 99 301 111 307 108 301 b 85 328 86 301 86 318 b 149 769 85 483 100 621 z m 726 853 b 740 868 726 861 732 868 b 756 849 751 868 754 857 b 786 533 775 743 786 640 b 676 183 786 446 778 183 b 656 197 667 183 656 186 b 707 235 656 211 693 211 b 760 533 760 319 760 439 b 726 853 760 639 749 746 z m 597 183 b 614 197 597 192 607 197 b 625 186 622 197 625 194 b 610 171 625 176 619 171 b 597 183 603 171 597 175 z "},"O":{"ha":822,"x_min":0,"x_max":0,"o":"m 33 663 b 81 494 33 600 51 549 b 81 489 81 493 81 490 b 72 389 81 456 72 422 b 379 4 72 210 178 4 b 790 544 640 4 790 318 b 375 985 790 779 617 985 b 33 663 194 985 33 849 z m 81 656 b 396 950 81 822 236 950 b 575 892 460 950 524 931 b 597 865 583 885 597 876 b 585 851 597 858 593 851 b 532 888 568 851 546 879 b 396 921 489 911 444 921 b 108 629 229 921 104 796 b 94 617 108 622 101 617 b 81 656 78 617 81 647 z m 615 818 b 631 832 615 825 624 832 b 640 826 635 832 638 829 b 640 819 640 825 640 821 b 628 806 640 811 636 806 b 615 818 621 806 615 811 z m 408 575 b 465 617 425 585 421 617 b 526 532 511 617 526 569 b 456 381 526 497 499 381 b 303 515 385 394 303 433 b 364 596 303 551 322 596 b 408 575 382 596 397 588 z m 150 414 b 165 431 150 422 154 431 b 176 418 174 431 176 425 b 161 401 176 411 169 401 b 150 414 154 401 150 407 z m 136 333 b 154 379 136 346 135 379 b 167 365 161 379 167 372 b 165 332 167 354 165 344 b 231 165 165 274 193 210 b 310 88 240 154 310 93 b 296 75 310 79 306 75 b 254 100 283 75 264 92 b 136 333 192 158 136 244 z "},"P":{"ha":731,"x_min":0,"x_max":0,"o":"m 163 817 b 63 701 96 807 63 769 b 67 529 63 644 67 586 l 67 506 b 26 425 43 483 26 458 b 58 350 26 396 39 371 b 72 142 61 272 64 217 b 182 0 81 74 101 0 b 281 101 239 0 281 44 b 274 239 281 147 274 193 l 274 263 b 374 247 307 253 339 247 b 700 601 563 247 700 419 b 394 965 700 768 578 965 b 163 817 292 965 217 899 z m 174 615 b 410 925 174 749 257 925 b 582 817 485 925 542 878 b 599 782 589 807 599 794 b 586 769 599 775 594 769 b 410 897 567 769 517 897 b 200 593 258 897 208 714 b 188 583 199 588 193 583 b 175 593 182 583 176 588 b 174 615 175 597 174 613 z m 606 719 b 619 733 606 729 610 733 b 633 721 626 733 633 729 b 618 707 633 711 626 707 b 606 719 611 707 606 713 z m 369 650 b 428 714 386 674 390 714 b 492 614 476 714 492 651 b 411 482 492 574 458 482 b 278 619 349 482 278 560 b 329 675 278 647 300 675 b 369 650 346 675 360 661 z m 63 438 b 79 450 63 447 69 450 b 86 450 79 450 85 450 b 93 439 90 447 93 443 b 75 425 93 429 83 425 b 63 438 67 425 63 429 z m 94 413 b 107 424 94 419 99 424 b 172 382 129 424 151 392 b 221 358 182 376 215 360 b 428 318 286 328 356 318 b 436 307 435 314 436 313 b 417 290 436 294 426 292 l 390 290 b 122 379 296 290 199 325 b 94 413 111 388 94 397 z "},"Q":{"ha":742,"x_min":0,"x_max":0,"o":"m 33 406 b 347 -4 33 218 131 -4 b 472 26 392 -4 431 8 l 474 26 b 614 -64 513 -11 554 -64 b 706 29 664 -64 706 -21 b 619 153 706 85 658 119 b 614 158 618 154 614 158 b 643 215 614 176 635 197 b 710 540 689 318 710 428 b 413 972 710 717 628 972 b 183 822 307 972 239 904 b 131 775 171 803 144 794 b 33 406 58 672 33 529 z m 213 715 b 428 935 213 804 335 935 b 449 921 438 935 449 935 b 394 900 449 900 408 906 b 251 758 329 876 279 818 b 224 699 244 743 246 699 b 213 715 214 699 213 707 z m 465 907 b 481 924 465 917 472 924 b 493 913 488 924 493 921 b 478 896 493 904 486 896 b 465 907 472 896 465 901 z m 367 553 b 433 594 379 574 408 594 b 482 533 468 594 482 563 b 365 335 482 465 454 335 b 244 521 296 335 244 463 b 303 590 244 556 264 590 b 367 553 333 590 346 571 z m 92 410 b 92 443 92 418 92 442 b 118 504 93 457 97 504 b 132 492 126 504 132 499 b 119 408 132 464 119 436 b 203 160 119 319 153 232 b 285 75 214 144 285 83 b 271 63 285 68 278 63 b 231 89 257 63 240 79 b 92 410 143 171 92 289 z m 488 351 b 488 354 485 351 485 354 b 488 351 489 354 489 351 z m 311 65 b 326 79 311 74 318 79 b 338 67 335 79 338 74 b 324 53 338 58 332 53 b 311 65 315 53 311 57 z "},"R":{"ha":689,"x_min":0,"x_max":0,"o":"m 400 976 b 47 519 178 976 74 700 b 39 386 42 475 39 432 b 192 1 39 299 58 1 b 279 89 239 1 279 42 b 246 222 279 136 246 174 l 246 231 b 357 129 278 199 317 156 l 497 38 b 560 19 515 26 538 19 b 656 114 613 19 656 61 b 589 206 656 158 628 186 l 476 278 b 372 379 438 303 403 342 b 379 388 372 383 376 385 b 593 757 488 486 593 603 b 400 976 593 871 521 976 z m 442 922 b 453 935 442 929 444 935 b 465 922 460 935 465 931 b 454 911 465 915 461 911 b 442 922 446 911 442 915 z m 107 447 b 315 890 107 579 204 807 b 399 922 343 910 364 922 b 406 911 401 921 406 915 b 318 858 406 900 332 871 b 135 446 204 749 158 597 b 121 432 133 436 131 432 b 107 447 111 432 107 439 z m 282 628 b 371 801 282 675 303 801 b 400 750 397 801 400 768 b 433 758 411 754 422 758 b 471 713 460 758 471 735 b 358 581 471 647 414 603 b 311 565 342 574 329 565 b 282 628 279 565 282 604 z "},"S":{"ha":629,"x_min":0,"x_max":0,"o":"m 56 692 b 158 499 56 611 101 551 b 308 378 182 481 286 396 b 403 251 340 351 403 301 b 319 193 403 208 354 193 b 126 332 249 224 207 332 b 36 236 75 332 36 286 b 118 107 36 182 82 140 b 329 1 183 50 240 1 b 593 251 467 1 593 110 b 297 632 593 424 415 540 b 247 692 283 644 247 669 b 382 778 247 735 342 778 b 401 774 388 778 396 776 b 482 732 425 750 447 732 b 569 819 529 732 569 771 b 375 975 569 913 458 975 b 56 692 231 975 56 846 z m 108 767 b 126 801 108 779 119 792 b 374 946 174 868 288 946 b 408 931 385 946 408 947 b 399 918 408 925 404 919 b 181 819 314 924 240 874 b 121 754 168 808 136 754 b 108 767 114 754 108 760 z m 440 918 b 453 931 440 925 446 931 b 464 918 461 931 464 925 b 451 906 464 911 458 906 b 440 918 446 906 440 913 z m 442 263 b 454 276 442 269 447 276 b 467 264 461 276 467 272 b 453 251 467 256 461 251 b 442 263 447 251 442 257 z m 143 258 b 156 271 143 265 149 271 b 328 153 175 271 235 153 b 449 243 406 153 433 243 b 461 231 454 243 461 239 b 446 196 461 221 447 197 b 328 126 422 151 376 126 b 147 247 249 126 188 185 b 143 258 146 250 143 254 z "},"T":{"ha":960,"x_min":0,"x_max":0,"o":"m 31 778 b 219 611 31 676 150 654 b 382 340 300 561 379 438 l 388 111 b 494 -14 390 47 424 -14 b 597 158 588 -14 597 90 b 582 363 597 226 593 294 b 582 472 582 379 582 456 b 582 583 582 500 582 578 b 590 769 583 639 589 769 l 617 771 l 747 771 b 856 756 785 771 819 756 b 951 847 908 756 951 794 b 760 972 951 946 836 968 b 328 946 614 972 472 967 b 31 778 229 932 31 903 z m 126 779 b 658 924 126 915 563 924 b 744 922 672 924 732 922 b 760 908 751 921 760 914 b 744 893 760 899 753 896 b 308 864 600 897 450 894 b 157 779 275 857 157 831 b 165 751 157 768 165 761 b 151 738 165 744 158 738 b 126 779 133 738 126 767 z m 785 900 b 799 914 785 908 792 914 b 811 901 804 914 811 908 b 797 888 811 896 804 888 b 785 900 790 888 785 894 z m 374 749 b 388 751 376 750 385 751 l 388 738 b 374 749 383 739 375 747 z m 406 736 b 417 749 406 742 411 749 b 431 736 425 749 431 743 b 418 725 431 728 425 725 b 406 736 411 725 406 728 z m 310 589 b 321 601 310 594 315 601 b 336 586 329 601 336 596 b 324 575 336 579 332 575 b 310 589 317 575 310 582 z m 343 549 b 356 561 343 557 349 561 b 390 531 369 561 383 539 b 468 278 447 460 468 367 l 468 260 b 453 243 467 253 463 243 b 440 251 447 243 443 247 b 346 540 438 361 419 458 b 343 549 343 543 343 546 z "},"U":{"ha":996,"x_min":0,"x_max":0,"o":"m 29 589 b 128 454 29 528 54 454 b 221 546 178 454 221 494 b 217 578 221 557 217 567 b 271 731 217 596 256 731 l 272 731 b 276 622 278 694 276 658 b 272 393 276 546 272 469 b 488 10 272 249 293 10 b 747 204 606 10 690 111 l 749 204 b 856 -6 754 129 746 -6 b 954 103 918 -6 954 46 b 954 126 954 107 954 122 b 938 467 943 244 938 350 b 963 814 938 583 942 699 b 963 833 963 817 963 831 b 867 935 963 886 922 935 b 753 768 774 935 764 839 b 678 519 739 686 707 597 b 496 211 653 456 544 211 b 469 390 475 211 469 385 b 474 619 469 467 474 543 b 290 972 474 740 464 972 b 29 589 125 972 29 725 z m 292 919 b 307 933 292 929 299 933 b 318 921 314 933 318 928 b 304 904 318 913 314 904 b 292 919 294 904 292 911 z m 75 593 b 231 907 75 703 154 833 b 258 922 238 914 249 922 b 271 908 267 922 271 915 b 225 861 271 893 235 872 b 103 561 156 788 101 661 b 90 554 100 554 96 554 b 75 574 79 554 76 564 b 75 593 75 576 75 590 z m 800 717 b 813 731 800 725 804 731 b 824 719 818 731 824 725 b 810 706 824 710 819 706 b 800 717 803 706 800 710 z m 517 169 b 771 642 651 297 726 464 b 785 656 772 650 776 656 b 799 639 794 656 799 647 b 774 542 799 607 785 572 b 554 165 729 404 660 267 b 528 149 550 161 538 149 b 515 161 521 149 515 154 b 517 169 515 164 515 168 z "},"V":{"ha":718,"x_min":0,"x_max":0,"o":"m 31 775 b 335 -7 31 581 82 -7 b 653 453 526 -7 625 319 b 688 803 676 567 688 686 b 576 976 688 875 669 976 b 482 881 522 976 482 932 b 488 835 482 863 482 857 b 368 250 488 626 465 438 b 339 208 363 240 350 208 b 306 282 333 208 308 271 b 224 860 244 463 224 671 b 225 906 224 875 225 890 b 135 996 225 956 183 996 b 31 775 21 996 31 853 z m 82 732 b 83 782 82 744 82 779 b 107 907 83 804 79 907 b 121 892 115 907 121 901 b 113 738 121 840 113 789 b 243 168 113 542 150 343 b 246 163 244 168 246 164 b 232 149 246 154 239 149 b 214 164 222 149 218 157 b 82 732 118 350 82 524 z m 233 122 b 244 135 233 129 238 135 b 264 119 253 135 264 129 b 250 107 264 113 257 107 b 233 122 242 107 233 114 z "},"W":{"ha":1019,"x_min":0,"x_max":0,"o":"m 78 893 b 38 492 53 760 38 626 b 299 -4 38 333 67 -12 b 479 101 389 -1 417 44 b 511 57 489 94 501 68 b 674 -19 557 10 604 -22 b 988 590 939 -11 988 406 b 963 781 988 656 982 718 b 931 872 954 813 940 842 l 893 949 b 804 994 878 982 839 996 b 706 893 749 993 706 949 b 711 853 706 879 707 865 b 763 728 717 840 758 740 b 783 583 781 682 783 632 b 699 207 783 483 767 290 b 676 188 697 204 686 188 b 663 201 671 188 665 199 b 611 429 618 263 611 354 b 615 543 611 467 615 504 b 515 650 615 601 579 653 b 399 449 403 647 415 525 b 301 206 389 399 332 207 l 299 206 b 290 218 299 206 293 214 b 242 513 242 306 242 414 b 242 558 242 525 242 557 l 268 863 b 271 886 271 872 271 878 b 174 979 271 940 228 981 b 78 893 126 978 88 940 z m 160 921 b 174 936 160 931 164 936 b 189 922 182 936 189 931 b 174 904 189 914 182 906 b 160 921 165 904 160 914 z m 79 510 b 129 849 79 625 93 738 b 150 876 132 858 138 875 b 165 858 160 876 165 869 b 154 838 165 847 157 846 b 111 519 119 735 111 625 b 181 196 111 404 139 301 b 182 188 182 192 182 192 b 168 174 182 181 176 174 b 151 188 158 172 154 179 b 79 510 110 289 79 397 z m 456 450 b 460 549 456 483 457 515 b 479 592 461 560 460 592 b 493 578 488 593 493 586 b 486 454 493 536 486 494 b 607 75 486 319 506 168 b 635 47 617 65 635 64 b 621 35 635 40 628 35 b 583 56 608 33 592 49 b 456 450 478 150 456 314 z m 656 38 b 667 50 656 44 660 50 b 681 35 674 50 681 43 b 668 22 681 29 675 22 b 656 38 660 21 656 31 z "},"X":{"ha":892,"x_min":0,"x_max":0,"o":"m 79 883 b 99 821 79 858 85 842 l 333 439 l 207 307 l 53 169 b 21 97 33 151 21 124 b 114 6 21 47 64 6 b 169 22 135 6 153 13 b 438 274 264 101 353 185 l 585 54 b 667 10 604 26 633 10 b 757 101 718 10 757 50 b 746 150 757 118 756 136 l 568 418 l 568 422 b 863 871 626 492 863 790 b 775 956 863 919 824 956 b 685 896 733 956 708 928 l 499 635 b 461 589 499 633 474 603 l 306 836 b 236 933 304 838 256 906 b 165 968 219 957 194 968 b 79 883 117 968 79 932 z m 131 867 b 160 906 131 886 139 906 b 176 893 169 906 176 904 b 156 867 176 878 156 886 b 244 692 156 821 217 729 l 372 519 b 374 514 372 518 374 515 b 360 499 374 506 367 499 b 347 506 356 499 350 501 b 131 867 293 574 131 781 z m 508 571 b 513 581 508 574 510 578 l 742 893 b 756 900 746 899 750 900 b 767 888 761 900 767 893 b 763 876 767 883 767 881 l 532 564 b 521 558 529 560 526 558 b 508 571 514 558 508 563 z m 343 390 b 356 396 346 393 351 396 b 368 382 363 396 368 389 b 365 375 368 379 368 376 l 96 113 b 74 97 90 107 83 97 b 63 103 71 97 63 99 l 63 117 z "},"Y":{"ha":715,"x_min":0,"x_max":0,"o":"m 31 742 b 269 364 31 594 82 364 b 483 483 376 364 411 418 b 415 236 483 393 464 313 b 331 93 388 190 331 151 b 425 0 331 40 374 0 b 554 93 483 0 524 49 b 683 603 667 257 683 403 b 564 926 683 685 706 926 b 458 844 513 926 478 888 b 406 728 453 833 411 739 b 272 558 393 697 318 558 b 224 804 217 608 224 742 b 229 901 224 838 229 869 b 140 990 229 950 189 990 b 31 742 22 990 31 817 z m 106 922 b 119 936 106 932 110 936 b 133 925 128 936 133 932 b 117 913 133 915 124 913 b 106 922 110 913 106 915 z m 78 757 b 103 888 78 776 75 888 b 115 871 113 888 115 879 b 107 756 115 832 107 794 b 215 451 107 643 131 531 b 217 446 215 451 217 447 b 204 435 217 439 213 435 b 160 469 186 435 168 460 b 78 757 93 542 78 664 z m 538 683 b 550 694 539 689 544 694 b 565 681 558 694 565 689 l 565 664 b 497 221 565 515 549 361 b 413 117 486 190 457 117 b 399 129 406 117 399 121 b 422 149 399 142 414 143 b 476 244 450 169 465 214 b 538 683 525 383 535 538 z m 375 96 b 388 113 375 104 378 113 b 399 100 397 113 399 108 b 386 85 399 92 396 85 b 375 96 379 85 375 89 z "},"Z":{"ha":794,"x_min":0,"x_max":0,"o":"m 97 911 b 25 818 54 897 25 863 b 113 728 25 769 63 728 b 169 747 135 728 150 736 l 329 781 b 442 792 365 788 404 792 b 524 774 454 792 518 792 b 524 760 524 771 524 761 b 433 532 524 681 471 597 b 428 524 433 529 431 525 b 306 550 386 535 347 550 b 217 465 257 550 217 515 b 324 365 217 399 274 386 l 319 360 b 213 213 303 338 229 235 b 164 96 188 178 164 139 b 318 -18 164 4 242 -18 l 579 0 b 756 93 647 0 756 -3 b 617 189 756 172 681 189 l 432 179 l 421 179 b 424 185 421 181 424 185 b 508 301 438 203 496 283 b 513 303 510 303 511 303 b 603 285 543 303 571 285 b 692 371 651 285 692 321 b 617 468 692 426 658 446 b 711 761 661 561 711 657 b 442 979 711 921 585 979 b 97 911 324 979 207 950 z m 125 831 b 449 926 125 904 403 926 b 597 896 481 926 597 924 b 583 883 597 889 590 883 b 481 899 550 883 514 897 b 447 899 479 899 456 899 b 143 819 356 899 211 893 b 138 818 142 818 139 818 b 125 831 131 818 125 824 z m 99 804 b 113 817 99 813 106 817 b 124 806 119 817 124 813 b 110 793 124 797 118 793 b 99 804 103 793 99 796 z m 263 461 b 329 507 263 496 301 507 b 453 463 354 507 453 483 b 439 449 453 454 446 449 b 329 479 410 449 369 479 b 289 460 315 479 289 479 b 292 446 289 456 292 451 b 281 436 292 439 286 436 b 263 461 268 436 263 451 z m 471 454 b 485 465 471 461 478 465 b 496 453 492 465 496 458 b 485 442 496 446 492 442 b 471 454 478 442 471 446 z "},".":{"ha":267,"x_min":0,"x_max":0,"o":"m 47 82 b 133 -7 47 33 83 -7 b 222 85 183 -7 222 33 b 135 171 222 133 183 171 b 47 82 83 171 47 132 z "},"a":{"ha":614,"x_min":0,"x_max":0,"o":"m 35 293 b 225 0 35 174 76 0 b 325 33 261 0 296 11 b 389 99 335 40 388 99 b 479 25 400 58 438 25 b 569 117 529 25 569 67 b 568 136 569 126 569 128 b 528 338 550 201 528 268 l 528 513 b 490 578 528 540 504 558 b 463 624 479 592 474 610 b 313 694 426 671 371 694 b 35 293 113 694 35 457 z m 208 582 b 249 613 214 588 233 613 b 260 603 256 613 260 610 b 219 553 260 583 231 568 b 131 279 165 474 131 376 b 139 218 131 258 139 239 b 126 204 139 208 135 204 b 106 253 110 204 106 242 b 208 582 106 360 132 501 z m 274 400 b 319 451 281 421 293 451 b 356 390 350 451 356 414 b 296 278 356 358 338 278 b 221 381 251 278 221 344 b 246 414 221 397 228 414 b 274 400 257 414 265 400 z m 133 163 b 143 174 133 169 136 174 b 165 153 153 174 164 156 b 165 147 165 151 165 147 b 154 136 165 140 161 136 b 133 163 143 136 133 151 z "},"b":{"ha":701,"x_min":0,"x_max":0,"o":"m 56 863 b 47 503 44 743 47 622 b 67 221 47 408 54 315 b 206 0 78 142 97 0 b 303 64 250 0 282 26 b 344 40 315 64 333 46 b 426 22 371 28 397 22 b 647 356 599 22 647 219 b 436 697 647 488 607 697 b 229 511 322 697 275 597 l 229 842 b 232 865 232 851 232 856 b 143 951 232 914 190 951 b 56 863 92 951 61 908 z m 76 694 b 138 892 76 729 75 892 b 169 869 149 892 169 883 b 157 858 169 863 164 858 b 138 864 150 858 146 864 b 103 693 106 864 103 715 b 110 563 103 650 110 607 b 96 546 110 554 107 546 b 82 575 82 546 82 567 b 76 678 81 594 76 667 b 76 694 76 678 76 690 z m 279 490 b 422 650 279 551 357 650 b 436 639 429 650 436 646 b 379 604 436 622 392 613 b 325 546 357 589 338 569 b 290 475 315 529 307 475 b 279 490 279 475 279 482 z m 89 489 b 103 508 89 497 93 508 b 113 497 110 508 113 506 b 101 474 113 488 114 474 b 89 489 92 474 89 481 z m 401 389 b 439 422 408 404 421 422 b 478 369 467 422 478 392 b 421 276 478 338 460 276 b 340 363 381 276 340 325 b 374 403 340 382 353 403 b 401 389 385 403 393 397 z "},"c":{"ha":585,"x_min":0,"x_max":0,"o":"m 44 301 b 282 0 44 172 108 0 b 515 144 385 0 467 69 b 550 224 532 169 550 193 b 461 301 550 267 510 301 b 282 164 360 301 357 164 b 225 300 235 164 225 272 b 335 531 225 343 267 531 b 449 436 382 497 369 436 b 532 515 497 436 532 474 b 336 694 532 607 439 694 b 44 301 135 694 44 446 z m 313 638 b 325 649 313 646 319 647 b 339 649 328 649 338 649 b 376 633 350 649 376 649 b 365 624 376 626 372 624 b 322 628 349 624 343 629 b 313 638 317 629 313 633 z m 119 449 b 286 643 131 500 217 643 b 300 631 296 643 300 638 b 268 613 300 618 278 617 b 163 489 218 586 186 533 b 143 442 156 475 153 453 b 132 436 138 436 138 436 b 119 449 124 436 118 442 z "},"d":{"ha":725,"x_min":0,"x_max":0,"o":"m 475 914 b 424 668 463 833 446 750 b 351 681 400 668 375 681 b 35 260 154 681 35 429 b 224 1 35 143 86 1 b 465 207 342 1 418 113 l 468 207 l 482 56 b 574 -28 488 10 528 -28 b 665 68 628 -28 665 15 l 665 83 b 643 564 649 244 643 403 l 660 867 l 660 914 b 568 994 660 960 610 994 b 475 914 518 994 486 960 z m 589 932 b 607 918 599 932 607 929 b 554 875 607 901 572 906 b 510 640 515 804 511 719 b 499 631 508 635 504 631 b 485 647 489 631 486 640 b 589 932 485 713 499 932 z m 229 549 b 360 621 229 594 325 621 b 442 581 382 621 442 613 b 432 568 442 574 440 568 b 408 582 421 568 417 578 b 360 594 392 592 379 594 b 283 574 331 594 308 586 b 242 538 267 565 258 538 b 229 549 235 538 229 542 z m 203 507 b 214 518 203 514 207 518 b 225 506 222 518 225 513 b 215 496 225 499 222 496 b 203 507 208 496 203 499 z m 281 396 b 331 442 290 415 304 442 b 367 385 360 442 367 407 b 300 267 367 357 335 267 b 207 363 250 267 207 313 b 244 417 207 385 217 417 b 281 396 260 417 271 407 z "},"e":{"ha":614,"x_min":0,"x_max":0,"o":"m 32 314 b 308 0 32 151 135 0 b 547 133 382 0 547 36 b 469 213 547 178 514 213 b 404 186 440 213 428 199 b 307 161 375 169 340 161 b 199 257 249 161 215 206 b 297 264 238 258 263 257 b 540 506 410 289 540 379 b 339 694 540 617 444 694 b 32 314 143 694 32 490 z m 107 435 b 304 644 107 503 238 644 b 315 633 311 644 315 639 b 256 597 315 621 265 604 b 138 463 204 567 163 517 b 126 426 133 453 133 436 b 118 422 122 422 124 422 b 107 435 108 422 107 426 z m 351 635 b 363 644 351 640 357 644 b 374 635 369 644 374 642 b 363 625 374 628 369 625 b 351 635 357 625 351 629 z m 308 483 b 347 514 313 483 326 514 b 375 471 371 514 375 489 b 319 386 375 442 356 386 b 260 463 286 386 260 433 b 285 493 260 478 267 493 b 308 483 293 493 300 483 z "},"f":{"ha":549,"x_min":0,"x_max":0,"o":"m 165 440 b 19 351 103 436 19 433 b 110 251 19 303 61 257 b 164 254 128 249 144 256 l 164 122 b 161 93 161 113 161 104 b 256 -14 161 40 203 -7 b 354 86 314 -21 354 31 l 354 250 l 357 251 b 526 336 428 250 526 243 b 429 440 526 390 481 433 b 365 444 407 443 386 442 b 433 600 365 499 389 567 l 439 600 b 490 578 457 588 471 581 b 579 654 538 572 579 604 b 431 789 579 726 496 781 b 169 442 243 813 186 583 z m 232 549 b 389 749 232 611 315 757 b 403 735 396 747 403 742 b 356 707 403 718 367 714 b 281 617 322 688 299 651 b 244 531 274 603 261 528 b 232 540 239 532 235 535 b 232 549 232 542 232 547 z m 226 500 b 238 511 226 508 231 511 b 249 497 244 510 249 506 b 239 488 249 493 243 488 b 226 500 232 489 226 494 z m 136 400 b 147 410 136 407 140 411 b 158 397 154 408 158 403 b 147 389 158 390 154 388 b 136 400 140 389 136 392 z m 67 350 b 113 403 67 375 85 406 b 126 388 121 401 126 396 b 94 347 126 374 94 374 b 119 301 94 325 119 319 b 107 292 119 294 114 290 b 67 350 82 294 67 328 z "},"g":{"ha":653,"x_min":0,"x_max":0,"o":"m 42 231 b 207 8 42 129 88 8 b 382 110 282 8 333 58 b 285 -133 382 29 343 -79 b 179 -164 261 -156 208 -164 b 128 -153 163 -164 146 -153 b 33 -246 78 -153 33 -194 b 176 -362 33 -326 106 -362 b 579 78 444 -362 544 -156 b 600 390 589 183 600 285 b 582 543 600 439 601 497 b 532 606 569 571 550 583 b 361 692 486 658 432 692 b 42 231 156 692 42 399 z m 113 358 b 354 653 113 460 243 653 b 376 639 363 653 376 651 b 300 606 376 625 317 617 b 139 343 211 547 150 447 b 126 335 136 335 132 335 b 114 344 121 335 115 338 z m 394 639 b 406 653 394 647 396 653 b 418 639 414 653 418 646 b 406 626 418 632 414 626 b 394 639 399 626 394 631 z m 279 389 b 332 432 296 401 306 432 b 364 378 361 432 364 400 b 257 222 364 325 318 222 b 207 336 218 222 207 313 b 247 421 207 360 214 421 b 279 389 268 421 267 394 z "},"h":{"ha":700,"x_min":0,"x_max":0,"o":"m 53 208 b 163 -1 53 125 47 -1 b 269 89 218 -1 253 40 l 335 274 b 433 460 349 313 406 440 b 440 397 438 454 440 404 l 449 88 b 549 -19 450 31 490 -19 b 649 90 608 -19 649 32 l 649 104 b 640 406 647 150 642 360 b 458 703 633 517 604 703 b 269 576 378 703 314 638 l 269 594 l 282 832 l 282 938 b 188 1026 282 986 236 1026 b 96 951 147 1026 100 994 l 54 326 b 53 208 53 292 53 243 z m 196 956 b 211 942 204 956 211 951 b 182 899 211 938 186 910 b 146 688 158 833 146 757 l 146 551 b 133 540 146 544 139 540 b 117 576 115 540 117 567 b 196 956 117 638 118 956 z m 282 514 b 306 561 282 531 297 549 b 471 668 343 613 401 668 b 568 568 525 668 568 621 b 556 549 568 558 567 549 b 471 639 535 549 539 639 b 293 501 375 639 311 501 b 282 514 286 501 282 508 z m 564 513 b 578 525 564 519 571 525 b 589 513 583 525 589 518 b 576 501 589 504 583 501 b 564 513 569 501 564 504 z m 124 500 b 142 519 124 510 131 519 b 153 508 149 519 153 515 b 136 485 153 497 147 485 b 124 500 128 485 124 493 z "},"i":{"ha":297,"x_min":0,"x_max":0,"o":"m 147 894 b 101 926 131 907 124 926 b 53 872 71 926 53 900 b 156 753 53 815 93 753 b 235 879 204 753 235 838 b 199 939 235 903 229 939 b 147 894 168 939 167 907 z m 36 89 b 138 -22 36 29 72 -22 b 238 67 186 -22 236 15 l 257 589 b 156 699 257 649 213 699 b 53 597 100 699 54 653 l 36 110 b 36 89 36 108 36 94 z m 79 288 b 151 632 79 332 81 632 b 179 613 164 632 179 626 b 167 599 179 606 174 599 b 153 601 161 599 158 601 b 128 533 143 601 129 540 b 110 286 113 453 110 368 b 114 136 110 236 114 186 b 114 122 114 133 114 124 b 99 114 111 115 106 114 b 85 128 90 114 88 121 b 79 288 82 181 79 235 z m 190 611 b 206 624 190 618 197 624 b 219 611 213 624 219 619 b 204 597 219 603 214 597 b 190 611 196 597 190 603 z "},"j":{"ha":301,"x_min":0,"x_max":0,"o":"m 176 885 b 133 915 161 897 154 915 b 89 865 106 915 89 892 b 183 756 89 814 126 756 b 257 872 228 756 257 833 b 224 926 257 893 251 926 b 176 885 194 926 193 897 z m -44 6 b -171 -89 -107 6 -171 -15 b -87 -182 -171 -133 -136 -182 l -26 -182 b 63 -153 1 -182 39 -167 b 261 454 258 -40 261 264 b 254 633 261 514 258 574 b 168 707 249 676 211 707 b 76 586 100 707 78 643 l 71 349 b -44 6 69 256 50 31 z m 140 619 b 151 632 140 628 144 632 b 167 619 158 632 167 629 b 154 608 167 613 160 608 b 140 619 146 608 140 613 z m 129 569 b 142 578 132 575 136 578 b 156 563 151 578 154 571 b 160 449 160 521 160 490 b 117 110 160 335 147 219 b 10 -39 104 65 68 -39 b -7 -26 1 -39 -7 -36 b 21 -10 -7 -10 11 -14 b 69 58 44 3 60 38 b 132 444 124 176 132 318 b 129 557 132 482 129 519 b 129 569 129 558 129 568 z "},"k":{"ha":618,"x_min":0,"x_max":0,"o":"m 46 697 b 29 346 32 581 29 463 b 49 122 29 269 38 197 b 144 1 57 67 76 1 b 232 101 204 1 232 47 l 214 203 l 214 210 b 453 21 268 122 368 71 b 499 8 468 13 482 8 b 586 94 547 8 586 44 b 549 165 586 122 574 150 b 419 249 529 178 439 236 b 361 307 397 263 372 282 b 401 397 361 344 378 369 l 531 557 b 578 638 556 586 578 597 b 494 722 578 683 540 722 b 428 692 468 722 447 710 b 207 417 346 611 261 521 b 207 428 207 418 207 425 b 213 654 207 503 213 578 b 213 703 213 661 213 696 b 128 792 208 749 179 792 b 46 697 75 792 43 746 z m 76 514 b 76 568 76 528 76 565 b 136 736 78 599 82 736 b 167 715 149 736 167 729 b 157 706 167 710 163 706 b 139 711 150 706 146 711 b 107 617 117 711 107 636 b 103 575 106 607 103 578 l 103 438 b 92 425 103 432 97 425 b 76 461 74 425 78 451 b 76 514 76 463 76 500 z m 513 675 b 524 688 513 681 519 688 b 535 676 529 688 535 682 b 524 664 535 669 531 664 b 513 675 517 664 513 669 z m 258 417 b 472 658 313 514 383 592 b 486 664 476 663 479 664 b 499 651 493 664 499 658 b 486 638 499 644 490 642 b 282 414 396 569 344 510 b 265 396 278 406 275 396 b 254 406 258 396 254 399 b 258 417 254 408 257 415 z m 89 372 b 106 394 89 382 94 394 b 114 390 108 394 113 394 b 115 364 113 375 115 375 b 104 354 115 358 111 354 b 89 372 93 354 89 364 z "},"l":{"ha":325,"x_min":0,"x_max":0,"o":"m 38 524 b 35 329 38 468 35 385 b 35 236 35 315 35 250 b 181 -7 36 135 46 -7 b 324 92 244 -7 324 14 b 228 186 324 146 282 185 l 226 188 b 222 239 225 189 222 235 b 222 331 222 253 222 317 b 231 778 222 481 231 629 b 138 994 231 846 249 994 b 50 914 94 994 51 958 z m 79 603 b 99 856 79 688 83 772 b 149 935 103 881 115 935 b 182 907 164 935 182 924 b 181 901 182 907 181 901 b 169 896 178 897 175 896 b 151 907 163 896 157 901 b 115 790 132 907 117 797 b 108 689 114 775 110 704 b 108 606 108 676 108 618 b 113 444 108 547 107 503 b 99 431 113 436 107 431 b 83 454 86 431 85 442 b 79 603 81 503 79 553 z m 88 404 b 99 417 88 413 90 417 b 115 404 107 417 115 414 b 101 388 115 396 108 388 b 88 404 90 388 88 396 z "},"m":{"ha":844,"x_min":0,"x_max":0,"o":"m 404 603 b 378 640 394 611 388 631 b 260 704 346 676 308 701 b 29 278 69 715 29 413 b 31 235 29 267 31 236 l 49 79 b 139 -6 54 32 93 -3 b 226 75 186 -8 226 26 b 222 110 226 88 226 93 b 217 279 219 165 217 222 b 254 479 217 339 222 429 b 264 440 258 478 264 443 l 285 256 b 381 160 290 206 331 163 b 499 332 478 153 482 265 b 582 518 507 371 561 519 l 585 518 b 603 468 588 517 601 475 b 618 364 611 435 617 397 l 625 79 b 717 -11 626 32 672 -8 b 811 89 778 -15 811 33 b 811 113 811 94 811 111 b 806 356 810 149 806 319 b 590 715 797 482 757 706 b 404 603 508 721 447 665 z m 397 513 b 404 540 397 524 399 526 b 589 672 436 611 504 678 b 663 632 607 672 663 658 b 650 619 663 625 658 619 b 590 646 635 621 618 644 b 458 578 538 650 488 617 b 410 499 444 558 425 497 b 397 513 400 499 397 504 z m 254 654 b 267 667 254 661 260 667 b 278 653 275 665 278 660 b 267 642 278 646 275 642 b 254 654 261 642 254 647 z m 86 282 b 183 594 86 392 119 508 b 214 622 189 601 203 624 b 226 608 222 622 226 615 b 182 540 226 594 190 557 b 114 282 139 463 114 372 b 118 214 114 260 118 238 b 106 200 118 206 115 200 b 86 282 82 201 86 269 z m 683 604 b 693 614 683 610 686 615 b 703 603 699 614 703 610 b 693 593 703 597 699 593 b 683 604 686 593 683 599 z "},"n":{"ha":699,"x_min":0,"x_max":0,"o":"m 418 708 b 196 563 325 706 251 636 b 121 604 194 563 160 606 b 28 492 60 601 29 547 b 26 472 26 486 26 472 l 32 213 b 50 68 33 168 44 108 b 140 -7 57 24 94 -8 b 236 82 185 -6 235 36 l 240 169 b 374 494 244 263 304 419 b 411 521 382 503 399 521 b 467 378 447 522 464 406 l 479 157 l 475 78 b 565 -7 474 29 518 -8 b 665 144 653 -4 663 78 b 667 168 667 151 667 168 l 654 396 b 418 708 646 536 583 714 z m 194 404 b 419 663 199 514 303 658 b 483 636 435 663 485 658 b 469 622 483 628 476 622 b 418 633 453 622 438 635 b 219 381 297 631 225 483 b 207 372 215 374 213 372 b 194 404 190 372 193 394 z m 514 606 b 526 617 514 611 521 617 b 538 606 532 617 539 613 b 526 594 538 600 532 594 b 514 606 519 594 513 599 z m 79 433 b 81 469 79 443 81 468 b 96 508 82 479 78 507 b 107 503 100 508 104 508 b 122 136 99 379 104 256 b 128 121 124 131 124 126 l 126 99 b 114 89 126 93 118 89 b 100 100 107 89 101 93 b 85 206 97 115 86 190 b 82 238 83 210 82 232 b 78 397 81 261 78 372 b 79 433 78 401 79 428 z "},"o":{"ha":640,"x_min":0,"x_max":0,"o":"m 271 686 b 229 694 256 692 244 694 b 29 336 78 694 29 446 b 285 6 29 181 106 6 b 614 413 489 6 614 231 b 353 700 614 565 513 700 b 271 686 324 700 299 693 z m 332 632 b 379 649 332 651 367 649 b 565 429 494 649 565 533 b 546 363 565 415 569 363 b 533 378 538 363 533 369 b 538 429 533 394 538 411 b 379 621 538 519 481 621 b 347 619 368 621 358 619 b 332 632 339 619 332 624 z m 218 626 b 231 638 218 635 224 638 b 242 629 238 638 242 635 b 228 615 242 621 236 615 b 218 626 221 615 218 621 z m 93 336 b 164 589 93 415 107 526 b 192 611 167 592 182 611 b 206 597 199 611 206 604 b 181 567 206 586 188 575 b 121 336 133 503 121 414 b 149 179 121 283 128 229 b 201 113 158 158 201 119 b 189 99 201 104 199 99 b 93 336 119 99 93 289 z m 307 389 b 354 431 324 401 325 431 b 388 376 382 431 388 397 b 314 260 388 338 360 260 b 221 369 257 260 221 317 b 264 419 221 394 236 419 b 307 389 286 419 292 401 z m 508 321 b 528 339 508 332 515 339 b 540 328 533 339 540 335 b 519 310 540 318 526 310 b 508 321 511 310 508 315 z "},"p":{"ha":674,"x_min":0,"x_max":0,"o":"m 218 575 b 119 676 208 628 179 676 b 26 581 65 676 26 632 b 26 565 26 576 26 567 l 50 53 l 71 -183 b 172 -285 75 -237 117 -285 b 278 -167 240 -285 274 -228 b 285 14 279 -140 285 -14 l 288 32 b 397 -4 322 8 356 -4 b 639 322 565 -4 639 181 b 408 701 639 456 582 701 b 260 626 347 701 300 668 b 218 575 244 610 235 589 z m 210 415 b 226 465 210 432 221 450 b 417 640 258 543 322 640 b 553 489 488 640 553 558 b 540 472 553 481 549 472 b 417 610 515 472 510 610 b 224 401 294 610 243 401 b 210 415 215 401 210 407 z m 94 575 b 110 588 96 583 101 588 b 124 575 117 588 124 583 l 133 14 b 118 -8 133 1 128 -8 b 106 1 113 -8 106 -4 l 103 28 b 94 510 103 33 97 371 b 94 543 94 513 94 535 b 94 575 94 547 94 571 z m 532 435 b 549 450 532 444 540 450 b 561 439 556 450 561 446 b 544 424 561 429 553 424 b 532 435 538 424 532 428 z m 354 357 b 414 428 358 383 379 428 b 464 350 451 428 464 378 b 392 217 464 315 436 217 b 279 338 344 217 279 290 b 315 381 279 358 293 381 b 354 357 332 381 344 367 z "},"q":{"ha":629,"x_min":0,"x_max":0,"o":"m 29 275 b 214 -7 29 165 76 -7 b 374 122 307 -7 374 122 b 407 -211 381 11 392 -100 b 504 -307 414 -264 446 -307 b 597 -210 558 -307 597 -264 b 596 -197 597 -207 596 -199 l 575 -35 l 558 249 b 558 325 558 251 558 304 b 561 518 558 390 561 454 b 458 664 561 588 542 664 b 422 658 446 664 435 658 b 301 696 383 682 346 696 b 29 275 99 696 29 433 z m 306 638 b 349 618 318 638 349 636 b 336 604 349 611 344 604 b 307 608 326 604 317 608 b 240 582 282 608 258 600 b 115 279 157 503 119 393 b 103 267 115 274 108 267 b 89 278 96 267 90 271 b 306 638 89 393 161 638 z m 381 606 b 394 618 381 613 386 618 b 406 608 400 618 406 615 b 392 592 406 600 400 592 b 381 606 385 592 381 599 z m 261 424 b 306 461 276 435 282 461 b 347 400 336 461 347 424 b 256 243 347 364 299 243 b 183 376 214 243 183 344 b 232 449 183 404 197 449 b 261 424 247 449 256 436 z "},"r":{"ha":574,"x_min":0,"x_max":0,"o":"m 35 236 b 158 -15 35 161 49 -15 b 242 69 206 -15 242 22 b 238 99 242 79 238 88 b 440 17 303 72 365 17 b 539 110 494 17 539 54 b 476 192 539 149 514 181 b 367 235 438 203 403 214 b 415 275 378 249 401 263 b 519 499 478 332 519 413 b 335 696 519 604 442 696 b 35 236 124 696 35 403 z m 110 354 b 347 656 110 454 238 656 b 363 642 354 656 363 650 b 290 606 363 631 300 613 b 136 349 204 553 147 449 b 124 338 133 343 131 338 b 110 354 114 338 110 346 z m 379 644 b 388 656 379 650 382 656 b 399 644 393 656 399 650 b 388 635 399 638 393 635 b 379 644 381 635 379 638 z m 321 469 b 361 504 328 486 342 504 b 406 436 396 504 406 465 b 324 331 406 389 375 331 b 233 418 269 331 233 363 b 290 482 233 450 257 482 b 321 469 303 482 310 469 z "},"s":{"ha":528,"x_min":0,"x_max":0,"o":"m 47 471 b 140 299 47 401 88 343 l 240 215 b 278 167 247 208 281 181 b 263 160 276 163 267 160 b 115 246 204 160 185 246 b 32 158 67 246 32 206 b 265 -15 32 60 181 -15 b 453 167 365 -15 453 65 b 350 354 453 243 406 307 l 250 438 b 222 472 242 444 222 460 b 311 531 222 504 283 531 b 415 474 356 531 350 474 b 497 553 460 474 497 508 b 301 707 497 649 385 707 b 47 471 179 707 47 600 z m 115 510 b 132 542 115 521 126 532 b 321 665 172 604 243 665 b 386 638 338 665 386 658 b 375 625 386 631 382 625 b 321 639 357 625 340 639 b 139 503 238 639 179 568 b 128 497 136 499 132 497 b 115 510 122 497 115 501 z m 406 626 b 415 639 406 632 410 639 b 426 628 422 639 426 635 b 415 617 426 619 422 617 b 406 626 410 617 406 621 z m 317 217 b 326 228 317 225 321 228 b 338 218 333 228 338 224 b 328 207 338 211 335 207 b 317 217 322 207 317 210 z m 285 117 b 328 153 301 119 328 132 l 328 183 b 340 192 328 190 335 192 b 356 163 354 192 356 175 b 265 90 356 113 310 90 b 147 143 243 90 147 111 b 158 153 147 150 151 153 b 194 133 171 153 186 139 b 267 117 217 121 240 117 z "},"t":{"ha":621,"x_min":0,"x_max":0,"o":"m 100 668 b 8 574 49 668 8 622 b 101 481 8 522 50 481 l 183 481 b 342 31 190 328 206 131 b 467 -15 379 3 419 -15 b 621 94 533 -15 621 14 b 529 185 621 144 581 185 b 469 172 508 185 490 172 b 432 200 456 172 439 193 b 371 485 375 267 371 400 l 492 489 b 579 582 542 490 579 535 b 485 675 579 633 536 675 b 386 672 474 674 396 672 b 379 672 385 672 381 672 b 381 771 379 706 381 738 b 379 896 381 818 381 846 b 292 972 371 939 338 972 b 206 894 250 972 208 938 l 190 668 z m 232 769 b 281 911 232 799 232 911 b 306 892 292 911 306 904 b 293 879 306 886 300 878 b 282 883 292 879 283 882 b 260 768 261 883 260 790 b 264 689 260 742 264 715 b 250 674 264 682 257 674 b 232 769 225 674 232 753 z m 321 889 b 331 900 321 896 324 900 b 340 889 336 900 340 896 b 331 879 340 883 336 879 b 321 889 324 879 321 883 z m 69 571 b 106 633 69 589 82 633 b 117 622 113 633 117 631 b 97 572 117 604 97 593 b 133 522 97 539 133 542 b 121 508 133 515 128 508 b 69 571 90 508 69 544 z m 222 388 b 240 453 222 400 219 453 b 254 440 249 453 254 450 b 250 388 254 422 250 406 b 288 211 250 328 264 267 b 318 147 294 193 318 167 b 304 135 318 139 314 135 b 286 153 294 135 289 146 b 222 388 249 225 222 306 z m 317 111 b 331 125 317 117 324 125 b 342 114 336 125 342 119 b 328 99 342 106 336 99 b 317 111 321 99 317 103 z "},"u":{"ha":700,"x_min":0,"x_max":0,"o":"m 44 601 b 24 381 32 528 24 456 b 242 -11 24 247 60 -11 b 468 165 343 -11 421 86 l 471 163 b 481 113 471 163 478 128 b 578 -6 490 54 506 -6 b 672 75 626 -6 664 29 b 674 94 674 78 674 92 b 642 301 674 165 647 232 b 642 356 642 310 642 347 b 649 549 642 421 649 485 b 649 589 649 556 649 582 b 550 676 639 639 603 676 b 447 592 497 676 465 639 b 385 428 442 576 392 444 b 249 193 367 383 276 193 l 247 193 b 218 296 240 193 221 285 b 214 381 215 325 214 351 b 225 565 214 442 218 504 b 236 621 225 585 236 600 b 149 708 236 671 199 708 b 44 601 85 708 57 657 z m 118 628 b 131 642 118 636 124 642 b 143 629 138 642 143 635 b 131 615 143 622 138 615 b 118 628 122 615 118 621 z m 492 454 b 532 585 493 483 497 585 b 543 572 539 585 543 578 b 526 518 543 556 529 536 b 519 408 519 481 519 446 b 550 156 519 322 528 238 b 563 124 554 144 563 135 b 549 110 563 115 557 110 b 492 454 501 110 492 397 z m 72 375 b 113 572 72 396 79 572 b 124 565 117 572 121 572 b 124 558 124 564 124 558 b 113 503 124 539 115 521 b 100 368 104 458 100 414 b 125 197 100 311 106 251 b 154 144 132 181 154 161 b 140 132 154 136 147 132 b 72 375 88 132 72 325 z m 565 86 b 585 100 572 93 576 100 b 594 90 592 100 594 96 b 576 69 594 79 589 76 b 565 86 565 69 565 78 z "},"v":{"ha":674,"x_min":0,"x_max":0,"o":"m 435 626 b 438 547 435 600 438 574 b 336 204 438 472 404 261 b 250 410 288 249 260 350 l 215 631 b 119 708 208 678 165 708 b 28 604 60 708 28 658 b 336 0 28 407 94 0 b 642 550 565 0 642 388 b 535 728 642 624 632 728 b 435 626 478 728 435 682 z m 104 663 b 117 674 104 669 110 674 b 129 661 122 674 129 667 b 117 649 129 656 122 649 b 104 663 110 649 104 656 z m 74 576 b 94 618 74 586 78 618 b 107 607 101 618 107 615 b 103 585 107 599 103 592 b 101 549 101 579 101 554 b 176 243 101 442 133 340 b 250 122 188 219 250 133 b 236 110 250 114 246 110 b 189 163 215 110 197 149 b 74 576 104 294 74 421 z "},"w":{"ha":960,"x_min":0,"x_max":0,"o":"m 658 606 b 692 518 658 569 678 550 b 711 426 706 486 711 461 b 631 197 711 350 690 251 b 467 538 532 283 639 538 b 350 371 365 538 367 444 b 288 222 342 338 321 246 b 247 446 249 249 247 392 b 251 589 247 493 251 542 b 151 690 251 644 208 690 b 50 599 101 690 56 650 l 35 454 b 35 418 35 453 35 428 b 288 1 35 261 82 1 b 447 78 351 1 403 36 b 510 21 451 78 499 28 b 629 -21 544 -4 586 -21 b 924 426 835 -21 924 264 b 764 710 924 519 886 710 b 658 606 704 710 658 667 z m 90 429 b 135 625 90 454 97 625 b 150 610 143 625 150 618 b 132 554 150 594 136 569 b 122 435 124 514 122 475 b 178 163 122 342 133 247 b 226 108 186 146 226 118 b 210 93 226 99 219 93 b 107 267 154 93 115 231 b 90 429 96 321 90 375 z m 415 350 b 447 481 415 369 418 481 b 463 465 456 481 463 474 b 447 351 463 431 447 392 b 500 153 447 281 463 213 b 578 71 515 128 578 83 b 563 58 578 63 569 58 b 515 86 546 58 528 76 b 415 350 444 151 415 257 z "},"x":{"ha":650,"x_min":0,"x_max":0,"o":"m 82 606 b 106 542 82 581 92 560 l 210 360 l 49 151 b 31 96 36 136 31 115 b 124 4 31 46 72 4 b 196 38 150 4 179 15 l 311 183 l 315 179 b 406 47 329 160 392 67 b 485 4 424 21 453 4 b 576 96 538 4 576 46 b 560 154 576 118 572 135 l 435 340 l 582 532 b 614 601 603 550 614 574 b 526 688 614 650 575 688 b 443 644 492 688 465 669 l 339 522 b 247 650 307 567 278 607 b 168 692 228 675 200 692 b 82 606 121 692 82 651 z m 372 479 b 374 489 372 483 371 486 l 500 636 b 517 649 504 643 508 649 b 528 636 522 649 528 642 b 522 622 528 631 526 626 l 396 474 b 383 468 393 469 390 468 b 372 479 376 468 372 472 z m 138 590 b 164 644 138 613 147 632 b 169 644 165 644 169 644 b 183 633 178 644 183 642 b 165 590 183 618 165 608 b 253 436 165 532 218 476 b 254 426 254 433 254 429 b 243 415 254 419 250 415 b 138 590 208 415 138 550 z m 72 104 b 74 113 72 108 72 110 l 215 292 b 231 303 218 297 224 303 b 243 289 239 303 243 296 b 238 278 243 285 240 281 l 103 104 b 85 92 99 100 92 92 b 72 104 78 92 72 97 z "},"y":{"ha":713,"x_min":0,"x_max":0,"o":"m 29 419 b 288 1 29 258 79 1 b 454 68 353 1 404 29 l 456 68 b 325 -225 456 -14 375 -167 b 244 -339 290 -265 244 -278 b 356 -440 244 -401 296 -440 b 657 -33 506 -440 628 -143 b 682 224 678 49 682 139 l 682 561 b 571 679 682 625 636 679 b 463 585 514 679 478 638 b 426 444 458 571 431 458 b 292 218 410 389 340 218 b 246 393 264 218 246 374 b 246 521 246 436 246 478 b 260 597 247 547 260 571 b 160 697 260 650 214 697 b 29 419 32 697 29 507 z m 114 619 b 126 632 114 628 118 632 b 140 618 133 632 140 626 b 126 607 140 611 132 607 b 114 619 118 607 114 611 z m 72 418 b 114 585 72 446 76 585 b 126 569 122 585 126 578 b 114 521 126 561 115 528 b 106 421 106 488 106 456 b 217 118 106 315 135 190 b 286 68 235 103 286 88 b 271 56 286 58 281 56 b 219 76 253 56 233 67 b 72 418 114 150 72 297 z m 568 353 b 585 372 569 364 572 372 b 599 363 589 372 599 369 l 599 333 b 583 206 599 325 588 236 b 381 -299 558 40 508 -178 b 351 -315 374 -306 361 -315 b 336 -300 342 -315 336 -308 b 340 -289 336 -296 336 -293 b 431 -183 376 -257 407 -228 b 568 353 518 -19 551 168 z m 299 -319 b 315 -303 299 -311 306 -303 b 329 -315 322 -303 329 -308 b 313 -335 329 -324 322 -335 b 299 -319 304 -335 299 -328 z "},"z":{"ha":638,"x_min":0,"x_max":0,"o":"m 29 568 b 113 482 29 522 65 482 b 157 492 128 482 142 486 b 388 525 232 506 310 525 b 274 369 363 467 313 413 l 118 201 b 64 92 90 171 64 135 b 160 -11 64 42 106 -11 l 218 -11 l 525 6 b 610 94 569 7 610 49 b 481 189 610 165 540 189 b 361 185 442 189 401 185 b 356 185 361 185 357 185 l 358 188 b 439 279 371 201 428 265 b 583 551 503 351 583 449 b 378 710 583 667 478 710 b 215 689 324 710 268 703 b 107 660 210 688 133 667 b 29 568 63 647 29 615 z m 92 590 b 374 671 92 650 339 671 b 481 644 385 671 481 671 b 467 632 481 638 474 632 b 374 643 432 639 406 643 b 158 610 301 643 226 635 b 104 576 149 607 107 576 b 92 590 96 576 92 583 z m 497 626 b 507 638 497 635 500 638 b 517 629 513 638 517 635 b 506 617 517 622 514 617 b 497 626 500 617 497 622 z m 407 478 b 419 490 407 483 413 490 b 431 478 425 490 431 483 b 419 465 431 472 425 465 b 407 478 413 465 407 471 z m 149 157 b 136 171 142 157 136 163 b 138 176 136 172 138 176 l 369 435 b 389 449 372 439 382 449 b 401 436 397 449 401 443 b 397 425 401 431 401 429 l 165 168 b 149 157 160 161 157 157 z "},"-":{"ha":601,"x_min":0,"x_max":0,"o":"m 44 418 b 126 321 40 367 75 325 b 140 319 129 319 140 319 l 419 311 b 554 404 479 310 547 336 b 463 501 558 461 514 496 b 444 503 457 501 444 503 l 131 500 b 44 418 85 500 49 461 z m 101 393 b 242 467 107 456 193 467 b 361 468 260 467 339 468 b 375 454 368 467 376 463 b 349 440 374 440 360 440 b 261 439 340 440 269 439 b 128 388 233 438 132 431 b 139 360 126 375 140 371 b 125 351 139 353 131 350 b 101 393 106 353 100 378 z m 392 453 b 407 465 392 460 400 467 b 419 453 414 465 419 460 b 403 440 418 444 411 440 b 392 453 397 442 392 447 z "},"+":{"ha":794,"x_min":0,"x_max":0,"o":"m 128 588 b 32 503 78 585 36 554 b 121 404 28 449 69 408 b 285 403 175 400 231 407 b 289 294 288 386 288 311 b 382 153 290 232 310 158 b 482 242 436 149 478 190 b 482 250 482 244 482 250 l 479 382 l 481 399 b 650 392 536 400 593 394 b 757 478 700 393 753 421 b 664 579 763 533 717 572 b 610 583 657 581 618 583 b 494 590 572 588 533 588 b 486 592 492 592 486 592 l 485 608 l 494 725 b 414 806 497 767 451 803 b 293 596 304 814 301 669 z m 336 663 b 422 760 340 704 371 763 b 439 740 431 758 439 750 b 424 728 438 733 431 728 b 417 731 424 728 417 731 b 361 661 388 728 364 688 b 365 618 360 646 367 632 b 353 608 365 613 358 607 b 336 663 331 610 336 650 z m 93 475 b 293 547 99 547 247 551 b 313 546 296 547 310 546 b 322 532 319 544 324 539 b 308 519 322 524 317 521 b 122 471 264 522 126 518 b 146 442 122 457 147 458 b 135 432 146 435 140 432 b 93 475 113 440 92 454 z m 336 528 b 347 538 336 533 342 539 b 358 525 354 538 358 531 b 347 514 358 518 353 514 b 336 528 340 515 335 521 z m 332 354 b 346 372 333 361 336 372 b 357 363 351 371 356 369 b 361 243 351 325 350 281 b 393 206 365 226 394 224 b 381 193 392 199 388 193 b 329 328 322 197 326 292 b 332 354 329 332 331 350 z "},"*":{"ha":299,"x_min":0,"x_max":0,"o":"m 118 817 b 94 826 111 822 103 826 b 75 819 88 826 81 825 b 74 776 63 808 63 789 b 83 765 76 772 81 768 b 47 736 65 763 49 756 b 75 703 44 718 58 704 b 78 703 76 703 78 703 l 79 703 b 76 656 69 689 63 671 b 99 646 82 649 90 646 b 119 654 106 646 114 649 b 122 656 121 654 122 656 l 125 658 b 124 646 125 654 124 650 b 151 610 124 629 133 611 b 186 640 169 608 183 622 b 188 657 186 642 188 653 b 194 650 190 654 192 651 b 221 638 201 643 211 638 b 239 644 228 638 233 639 b 242 690 253 657 251 676 l 238 694 b 263 721 250 694 261 710 b 228 757 264 743 247 753 l 236 764 b 236 801 246 772 243 792 b 214 813 229 808 221 813 b 193 806 207 813 200 810 l 192 817 b 165 849 192 833 182 847 b 132 821 147 851 133 838 b 131 804 131 815 131 810 z m 156 829 b 176 796 168 828 175 813 b 168 788 174 793 171 790 b 154 819 167 804 163 818 b 144 813 149 819 150 811 b 140 815 142 813 140 814 b 156 829 143 822 149 831 z m 83 799 b 94 803 86 801 90 803 b 131 785 107 803 121 794 b 131 772 131 781 131 776 b 89 790 117 785 97 799 b 88 779 86 788 92 782 b 83 779 86 778 85 778 b 83 799 81 786 78 794 z m 193 792 b 226 789 204 796 218 799 b 226 781 228 786 228 782 b 219 781 225 779 221 779 b 218 783 219 781 219 783 b 193 782 213 788 200 786 z m 178 768 b 175 769 176 768 176 768 b 178 781 172 772 175 776 b 178 768 179 776 178 771 z m 96 753 b 106 744 100 750 103 747 b 76 742 96 744 86 744 b 64 732 71 740 69 732 b 60 736 63 732 60 733 b 96 753 61 751 82 753 z m 217 747 b 247 718 231 746 249 735 b 240 714 246 715 243 713 b 236 718 239 714 236 715 b 238 721 236 718 238 721 b 207 739 235 736 219 739 z m 108 703 b 92 682 101 696 96 689 b 90 665 89 676 94 669 b 85 667 89 664 86 664 b 96 703 75 678 86 693 z "},"^":{"ha":576,"x_min":0,"x_max":0,"o":"m 75 668 b 157 575 71 618 108 578 b 274 664 214 572 243 624 l 278 663 l 340 604 b 404 578 357 589 381 579 b 503 663 451 576 500 614 b 465 751 506 700 490 726 b 285 871 413 803 364 867 b 261 872 281 871 265 872 b 117 757 194 861 156 813 b 75 668 97 729 76 701 z m 288 832 b 300 846 288 840 292 846 b 311 831 308 844 311 839 b 299 818 310 824 304 818 b 288 832 292 819 288 826 z m 138 661 b 126 676 131 661 126 668 b 129 683 126 678 129 683 b 260 826 149 728 196 829 b 274 813 268 826 274 821 b 210 769 272 804 219 781 b 138 661 186 746 153 660 z "},"":{"ha":458,"x_min":0,"x_max":0,"o":"m 338 897 b 275 864 313 899 290 885 b 189 899 244 879 222 896 b 58 792 135 901 61 847 b 115 722 56 757 79 725 b 182 764 156 721 179 764 b 256 726 192 764 232 732 b 274 725 258 726 271 725 b 397 826 333 721 394 761 b 338 897 400 863 375 894 z m 94 794 b 200 868 97 839 163 871 b 213 868 203 868 211 868 b 221 856 219 865 222 863 b 215 849 221 853 219 850 b 140 829 188 851 161 847 b 103 785 132 824 107 783 b 94 794 96 785 94 790 z m 226 850 b 236 858 228 856 232 858 b 244 850 240 858 244 854 b 235 842 244 843 240 842 b 226 850 229 843 226 846 z m 368 843 b 376 851 368 849 371 851 b 383 843 382 850 383 847 b 375 835 382 838 379 835 b 368 843 369 835 368 839 z m 275 763 b 342 785 300 761 322 769 b 368 817 350 790 357 818 b 376 806 375 817 376 811 b 274 743 374 763 310 742 b 235 761 264 744 233 747 b 244 771 235 767 239 771 b 275 763 254 769 264 764 z "},"/":{"ha":546,"x_min":0,"x_max":0,"o":"m 58 175 b 24 76 44 142 24 114 b 118 -19 24 25 64 -19 b 210 50 160 -19 194 11 l 476 713 b 526 901 497 764 526 843 b 439 992 526 953 490 992 b 339 889 375 992 356 942 z m 415 919 b 426 931 415 925 421 931 b 439 918 435 931 439 925 b 428 904 439 911 438 904 b 415 919 419 904 415 911 z m 203 367 b 189 382 194 367 189 374 b 193 394 189 385 192 392 l 388 869 b 403 882 390 879 393 882 b 414 871 410 882 414 878 b 411 858 414 864 414 864 l 218 382 b 203 367 215 376 210 367 z "},"\\":{"ha":553,"x_min":0,"x_max":0,"o":"m 213 894 b 114 997 196 946 178 997 b 26 907 63 997 26 958 b 75 717 26 849 54 769 l 342 54 b 435 -14 357 17 392 -14 b 529 82 488 -14 529 31 b 494 181 529 118 507 147 z m 136 924 b 124 910 136 917 133 910 b 114 924 115 910 114 917 b 125 936 114 929 118 936 b 136 924 132 936 136 931 z m 350 372 b 335 388 342 372 338 382 l 140 864 b 139 876 138 869 139 869 b 149 886 139 883 142 886 b 165 875 158 886 161 883 l 360 399 b 363 388 360 397 363 389 b 350 372 363 378 357 372 z "},":":{"ha":268,"x_min":0,"x_max":0,"o":"m 47 683 b 133 594 47 633 83 594 b 222 685 183 594 222 635 b 135 772 222 735 183 772 b 47 683 83 772 47 733 z m 47 82 b 133 -7 47 33 83 -7 b 222 85 183 -7 222 33 b 135 171 222 133 183 171 b 47 82 83 171 47 132 z "},";":{"ha":311,"x_min":0,"x_max":0,"o":"m 47 683 b 133 594 47 633 83 594 b 222 685 183 594 222 635 b 135 772 222 735 183 772 b 47 683 83 772 47 733 z m 14 -71 b 107 -160 14 -124 57 -160 b 240 -35 176 -160 210 -89 b 271 49 256 -8 271 18 b 183 136 271 99 233 136 b 53 14 114 136 88 64 b 14 -71 32 -14 14 -36 z "},"<":{"ha":404,"x_min":0,"x_max":0,"o":"m 57 433 b 185 217 57 342 124 276 b 257 186 204 197 229 186 b 353 279 308 186 353 228 b 333 338 353 301 346 319 b 251 426 306 363 272 393 b 250 433 250 429 250 431 b 250 436 250 433 250 436 l 335 560 b 349 606 344 572 349 590 b 260 693 349 656 308 693 b 108 567 190 693 147 613 b 57 433 78 529 57 483 z m 111 453 b 260 636 111 508 200 636 b 271 625 268 636 271 632 b 139 432 271 606 135 547 b 128 422 138 426 133 422 b 111 453 111 422 111 440 z m 121 396 b 138 411 121 406 129 411 b 147 406 140 411 147 411 l 147 390 b 135 382 147 386 138 382 b 121 396 128 382 121 389 z "},"=":{"ha":628,"x_min":0,"x_max":0,"o":"m 60 524 b 142 426 56 472 92 431 b 157 425 146 425 156 425 l 435 417 b 569 510 496 415 564 442 b 478 607 575 567 531 601 b 460 608 474 607 461 608 l 146 606 b 60 524 100 606 64 567 z m 118 499 b 258 572 124 561 210 572 b 376 574 275 572 356 574 b 392 560 385 572 392 568 b 365 546 390 546 375 546 b 276 544 356 546 285 544 b 143 493 249 543 147 536 b 156 465 143 481 156 476 b 140 457 154 458 146 456 b 118 499 122 458 117 483 z m 408 558 b 424 571 408 565 417 572 b 435 558 429 571 436 565 b 419 546 435 550 428 546 b 408 558 413 547 407 553 z m 60 308 b 142 211 56 258 92 217 b 157 211 146 211 156 211 l 435 203 b 569 296 496 201 564 228 b 478 392 575 351 531 388 b 460 393 474 393 461 393 l 146 392 b 60 308 100 390 64 353 z m 118 283 b 258 358 124 347 210 357 b 376 360 275 358 356 360 b 392 346 385 358 392 354 b 365 332 390 332 375 332 b 276 329 356 331 285 331 b 143 279 249 328 147 322 b 156 251 143 267 156 263 b 140 243 154 244 146 242 b 118 283 122 244 117 269 z m 408 344 b 424 357 408 351 417 357 b 435 344 429 356 436 351 b 419 332 435 336 428 332 b 408 344 413 332 407 339 z "},">":{"ha":399,"x_min":0,"x_max":0,"o":"m 353 433 b 301 567 353 483 332 529 b 150 693 264 613 219 693 b 61 606 101 693 61 656 b 75 560 61 590 65 572 l 160 436 b 160 433 160 436 160 433 b 158 426 160 431 160 429 b 76 338 138 393 104 363 b 57 279 64 319 57 301 b 153 186 57 228 101 186 b 225 217 181 186 206 197 b 353 433 286 276 353 342 z m 299 453 b 282 422 299 440 299 422 b 271 432 276 422 272 426 b 139 625 276 547 139 606 b 150 636 139 632 142 636 b 299 453 210 636 299 508 z m 289 396 b 275 382 289 389 282 382 b 263 390 272 382 263 386 l 263 406 b 272 411 263 411 269 411 b 289 396 281 411 289 406 z "},"!":{"ha":289,"x_min":0,"x_max":0,"o":"m 57 886 b 49 699 51 824 49 761 l 50 310 b 128 190 50 254 74 207 b 57 90 85 175 58 136 b 142 1 54 42 92 1 b 236 103 199 1 235 49 b 172 192 238 153 210 169 b 242 290 214 211 242 243 l 236 878 b 149 971 236 928 201 971 b 57 886 100 971 65 932 z m 121 789 b 136 801 122 797 129 801 b 147 792 142 801 147 797 b 140 413 147 735 142 469 b 140 385 140 411 140 392 b 139 357 139 381 139 361 b 124 344 138 350 131 344 b 113 356 118 344 113 350 b 119 747 113 414 118 689 b 121 768 119 749 121 764 b 121 789 121 772 121 786 z m 119 303 b 132 315 119 308 125 315 b 144 301 140 315 144 308 b 133 290 144 294 140 290 b 119 303 125 290 119 293 z m 151 89 b 163 100 151 96 156 100 b 175 88 169 100 175 94 b 163 75 175 82 168 75 b 151 89 153 75 151 82 z "},"?":{"ha":564,"x_min":0,"x_max":0,"o":"m 24 793 b 114 706 24 743 65 706 b 188 746 143 706 172 719 b 294 796 210 783 253 796 b 346 767 317 796 342 792 b 346 747 346 764 346 750 b 275 526 346 669 303 596 b 208 272 244 449 208 357 b 272 156 208 225 228 178 b 233 79 250 133 233 113 b 319 -10 233 32 269 -10 b 414 82 368 -10 414 32 b 367 163 414 115 397 149 l 367 165 b 401 224 382 179 401 201 l 401 285 b 422 371 401 297 418 358 b 539 750 461 496 539 615 b 294 986 539 892 432 986 b 24 793 190 986 24 919 z m 78 819 b 99 854 78 832 90 846 b 306 944 150 910 229 944 b 429 892 354 944 396 929 b 433 882 432 889 433 885 b 422 869 433 875 428 869 b 382 899 404 869 396 890 b 306 915 360 911 332 915 b 150 864 250 915 196 896 b 89 807 136 854 104 807 b 78 819 81 807 78 811 z m 450 832 b 465 844 450 840 458 844 b 475 835 471 844 475 840 b 461 822 475 825 468 822 b 450 832 454 822 450 826 z m 286 71 b 300 86 286 78 293 86 b 311 74 306 86 311 79 b 299 58 311 67 306 58 b 286 71 292 58 286 65 z "},"'":{"ha":254,"x_min":0,"x_max":0,"o":"m 63 754 b 131 657 63 711 78 657 b 193 746 183 657 193 704 b 189 828 192 756 190 813 b 126 892 188 863 163 892 b 63 754 56 892 63 803 z m 88 778 b 125 857 88 797 94 857 b 135 849 131 857 135 854 b 118 829 135 839 122 838 b 107 778 110 814 107 796 b 113 735 107 764 113 749 b 104 725 113 729 110 725 b 88 778 89 725 88 769 z "},"\"":{"ha":404,"x_min":0,"x_max":0,"o":"m 63 754 b 131 657 63 711 78 657 b 193 746 183 657 193 704 b 189 828 192 756 190 813 b 126 892 188 863 163 892 b 63 754 56 892 63 803 z m 206 754 b 275 657 206 711 221 657 b 336 746 328 657 336 704 b 333 828 336 756 333 813 b 271 892 331 863 306 892 b 206 754 200 892 206 803 z m 88 778 b 125 857 88 797 94 857 b 135 849 131 857 135 854 b 118 829 135 839 122 838 b 107 778 110 814 107 796 b 113 735 107 764 113 749 b 104 725 113 729 110 725 b 88 778 89 725 88 769 z m 232 778 b 269 857 232 797 239 857 b 279 849 275 857 279 854 b 263 829 279 839 267 838 b 251 778 253 814 251 796 b 257 735 251 764 257 749 b 247 725 257 729 253 725 b 232 778 233 725 232 769 z "},"#":{"ha":986,"x_min":0,"x_max":0,"o":"m 647 917 b 625 646 636 831 628 735 l 624 644 l 449 640 l 440 844 b 339 986 439 908 415 981 b 244 889 279 992 244 946 b 249 629 244 803 249 715 b 249 624 249 628 249 624 l 243 622 b 78 521 174 614 78 611 b 182 417 78 463 126 421 b 254 422 208 414 229 425 b 258 417 258 422 260 422 b 261 364 258 408 260 375 b 258 358 261 361 261 358 b 140 346 240 357 158 347 b 28 253 85 339 28 318 b 124 153 28 200 71 157 b 257 156 165 149 217 156 b 263 156 257 156 261 156 b 271 153 263 156 269 156 b 375 -8 274 83 288 -1 b 475 81 428 -12 475 25 b 471 161 475 107 471 133 b 471 167 471 163 471 167 l 617 176 l 633 175 b 738 14 638 107 650 21 b 838 108 794 8 838 53 b 833 183 838 133 833 158 b 833 190 833 185 833 189 b 915 285 878 210 915 232 b 833 385 915 335 878 368 b 828 388 832 385 828 388 l 828 446 b 958 536 888 446 958 464 b 828 651 958 607 892 646 b 833 846 828 717 833 781 l 833 892 b 739 986 826 942 790 982 b 647 917 693 989 656 961 z m 286 771 b 357 901 286 824 286 907 b 381 879 367 900 381 890 b 368 865 381 871 375 865 b 353 871 363 867 358 871 b 317 769 310 875 317 793 b 329 496 317 679 321 589 b 339 425 333 471 339 450 b 339 415 339 424 339 417 b 328 410 336 410 332 410 b 293 575 304 411 293 546 b 286 754 292 603 288 728 b 286 771 286 756 286 768 z m 715 885 b 728 896 715 892 722 897 b 746 878 739 896 746 886 b 735 867 746 871 742 867 b 715 885 726 868 715 875 z m 389 879 b 404 893 389 889 394 894 b 415 881 411 893 415 888 b 400 865 415 874 408 864 b 389 879 390 865 389 872 z m 667 514 b 685 771 667 600 669 689 l 699 844 b 714 857 700 851 707 858 b 728 840 724 857 728 849 b 711 743 728 813 715 769 b 697 513 701 667 697 590 b 714 274 697 433 703 354 b 703 257 714 265 714 257 b 667 453 674 260 668 426 b 667 514 667 454 667 497 z m 458 425 b 458 438 458 429 458 438 l 625 442 l 625 379 l 471 371 l 461 371 b 458 425 458 392 458 406 z "},"@":{"ha":851,"x_min":0,"x_max":0,"o":"m 60 415 b 417 -8 60 200 179 -8 b 740 164 506 -8 740 47 b 661 244 740 208 707 244 b 557 193 621 244 590 211 b 417 158 514 169 465 158 b 225 419 272 158 225 296 b 488 803 225 569 303 803 b 638 618 588 803 638 708 b 635 575 638 604 638 589 b 499 699 618 639 568 699 b 300 422 371 699 300 529 b 415 265 300 353 333 265 b 501 303 449 265 476 282 l 503 303 b 606 253 532 272 563 253 b 803 621 765 253 803 510 b 488 968 803 806 681 968 b 60 415 201 968 60 664 z m 451 922 b 461 932 451 929 454 932 b 471 924 467 932 471 929 b 461 913 471 918 468 913 b 451 922 456 913 451 917 z m 122 529 b 346 892 122 665 235 822 b 421 925 367 904 396 925 b 432 915 428 925 432 922 b 399 893 432 899 413 899 b 350 865 382 886 365 876 b 146 507 235 782 149 651 b 135 500 144 501 140 500 b 122 529 121 500 122 521 z m 471 553 b 500 571 481 563 486 571 b 539 521 528 571 539 544 b 474 433 539 492 507 433 b 407 519 449 433 407 492 b 444 558 407 542 421 558 b 471 553 454 558 463 553 z "},"$":{"ha":643,"x_min":0,"x_max":0,"o":"m 243 939 b 24 661 132 888 24 794 b 288 338 24 507 179 415 b 354 258 308 322 354 289 b 211 172 354 218 231 178 b 107 79 157 156 107 151 b 221 -17 107 15 163 -15 b 211 -128 221 -57 211 -92 b 306 -225 211 -182 250 -225 b 397 -131 358 -225 394 -181 l 408 53 b 540 258 482 104 540 168 b 404 482 540 350 475 431 l 271 581 b 210 661 247 599 210 628 b 407 788 210 739 346 788 b 443 782 419 788 432 786 b 529 724 467 749 489 724 b 617 808 576 724 617 761 b 492 958 617 876 551 936 b 435 972 474 964 451 965 b 438 1074 435 1010 438 1042 b 354 1164 438 1122 406 1164 b 265 1088 310 1164 272 1132 z m 286 1004 b 350 1126 286 1044 294 1126 b 382 1107 363 1126 382 1124 b 371 1096 382 1100 376 1096 b 353 1101 368 1096 354 1100 b 299 974 299 1101 329 974 b 286 983 293 974 288 978 z m 72 686 b 247 875 72 742 192 875 b 261 863 254 875 261 871 b 206 826 261 847 218 835 b 99 683 156 789 121 740 b 85 674 92 674 92 674 b 72 686 78 674 72 679 z "},"":{"ha":764,"x_min":0,"x_max":0,"o":"m 181 636 b 25 524 113 626 25 608 b 118 431 25 472 67 431 b 157 436 132 431 144 436 b 161 425 163 436 161 426 b 161 417 161 424 161 418 b 39 317 100 414 39 386 b 122 222 39 274 74 222 l 206 222 b 243 147 207 222 238 156 b 475 0 297 65 372 0 b 676 88 557 0 615 36 b 713 165 700 107 713 136 b 614 265 713 221 668 265 b 476 201 550 265 525 201 b 428 236 456 201 438 219 b 576 343 497 247 576 250 b 460 443 576 408 519 443 b 365 436 446 442 379 438 l 363 439 l 363 453 b 579 565 443 460 579 450 b 496 663 579 614 543 653 b 469 663 492 663 474 663 b 411 661 450 663 431 661 b 535 769 411 703 493 769 b 549 769 536 769 547 769 b 557 746 553 764 554 753 b 644 689 572 710 606 689 b 739 796 704 689 739 739 b 529 972 739 908 633 972 b 185 639 343 972 238 796 z m 264 693 b 281 750 264 713 272 732 b 538 933 328 850 422 933 b 611 910 551 933 611 936 b 597 897 611 900 606 897 b 565 903 586 897 576 901 b 538 904 561 903 542 904 b 321 765 449 904 363 844 b 290 688 313 750 297 697 b 276 679 285 679 285 679 b 264 693 268 679 264 685 z m 638 890 b 650 903 638 897 643 903 b 663 892 658 903 663 899 b 649 879 663 882 657 879 b 638 890 642 879 638 883 z m 146 596 b 158 608 146 604 150 608 b 175 592 168 608 175 600 b 164 579 175 583 172 579 b 146 596 154 579 146 586 z m 72 536 b 114 596 72 560 85 596 b 126 583 121 596 126 590 b 101 538 126 565 101 567 b 133 488 101 506 133 504 b 125 475 133 482 129 479 b 72 536 89 475 72 501 z m 154 371 b 172 385 154 381 164 385 b 183 374 179 385 183 381 b 168 357 183 364 178 357 b 154 371 161 357 154 364 z m 82 321 b 126 381 82 346 97 381 b 143 367 135 381 143 376 b 110 321 143 350 110 350 b 144 279 110 301 124 279 b 163 281 150 279 156 281 b 175 269 169 281 175 278 b 146 250 175 253 160 250 b 82 321 107 250 82 283 z "},"%":{"ha":1093,"x_min":0,"x_max":0,"o":"m 185 94 b 281 -1 185 42 228 -1 b 364 44 314 -1 344 15 l 865 831 b 878 878 874 843 878 863 b 781 972 878 931 833 972 b 696 925 746 972 715 956 l 199 146 b 185 94 189 131 185 111 z m 26 683 b 235 443 26 565 106 443 b 460 708 372 443 460 582 b 253 947 460 826 381 947 b 26 683 114 947 26 811 z m 219 896 b 231 908 219 903 222 908 b 243 894 238 908 243 901 b 232 882 243 888 239 882 b 219 896 225 882 219 889 z m 72 688 b 189 894 72 749 108 894 b 204 881 197 894 204 889 b 160 850 204 864 171 860 b 100 689 115 811 100 744 b 103 642 100 674 103 658 b 90 628 103 632 100 628 b 72 688 68 628 72 675 z m 706 824 b 722 840 706 831 714 840 b 733 828 728 840 733 833 b 718 811 733 819 726 811 b 706 824 710 811 706 815 z m 257 167 b 258 175 257 168 258 174 l 663 793 b 675 797 665 797 671 797 b 686 786 683 797 686 793 b 685 775 686 781 688 779 l 283 163 b 271 154 279 156 278 154 b 257 167 264 154 257 158 z m 221 685 b 250 750 221 697 231 750 b 264 707 263 750 264 714 b 235 639 264 681 256 657 b 221 685 222 650 221 669 z m 607 263 b 832 -3 607 135 690 -3 b 1069 278 978 -3 1069 144 b 846 542 1069 406 985 542 b 607 263 699 542 607 399 z m 806 493 b 818 506 806 500 811 506 b 831 492 825 506 831 499 b 818 479 831 485 824 479 b 806 493 810 479 806 486 z m 656 275 b 729 453 656 340 686 406 b 774 488 736 460 757 488 b 786 474 781 488 786 481 b 783 468 786 472 786 471 b 685 278 732 417 685 354 b 693 224 685 257 686 243 b 679 211 692 215 686 211 b 656 275 656 211 656 261 z m 801 263 b 843 347 801 283 811 347 b 874 278 871 347 874 294 b 832 193 874 256 865 193 b 801 263 806 193 801 246 z "},"&":{"ha":729,"x_min":0,"x_max":0,"o":"m 47 651 b 122 389 47 557 79 471 b 85 318 122 364 94 340 b 50 182 64 274 50 231 b 250 -10 50 69 140 -10 b 438 47 315 -10 379 15 b 443 46 439 47 440 47 b 582 -31 482 14 526 -31 b 678 61 635 -31 678 7 b 586 176 678 133 624 131 b 681 419 639 246 681 331 b 592 526 681 474 653 526 b 496 404 503 526 515 460 b 440 304 494 397 453 304 b 358 389 429 311 358 376 b 515 749 433 497 515 614 b 515 756 515 750 515 753 l 515 775 b 515 782 515 778 515 781 b 311 972 503 888 421 972 b 47 651 142 972 47 804 z m 108 640 b 218 894 108 729 142 839 b 269 921 229 901 253 921 b 282 907 276 921 282 915 b 276 896 282 903 281 899 b 138 636 176 853 138 739 b 157 524 138 596 144 563 b 143 508 157 514 150 508 b 108 640 115 508 108 621 z m 315 910 b 325 921 315 917 319 921 b 336 911 332 921 336 917 b 325 900 336 903 333 900 b 315 910 319 900 315 903 z m 239 657 b 310 782 239 696 256 782 b 325 746 326 782 325 757 b 251 574 325 685 286 621 b 239 657 243 574 239 646 z m 532 479 b 546 492 532 486 539 492 b 557 481 553 492 557 488 b 543 468 557 471 551 468 b 532 479 536 468 532 472 z m 486 307 b 510 347 486 318 504 336 b 532 414 519 368 526 390 b 538 451 535 425 532 440 b 550 460 540 456 544 460 b 563 447 556 460 561 454 b 499 294 563 418 532 294 b 486 307 493 294 486 300 z m 92 196 b 136 307 92 215 106 307 b 149 294 142 307 149 301 b 129 256 149 282 133 264 b 121 194 121 235 121 217 b 149 97 121 158 128 126 b 208 46 161 81 208 57 b 203 33 208 40 207 38 b 92 196 128 33 92 133 z m 240 182 b 250 221 240 194 243 210 b 276 194 254 217 272 199 b 281 189 278 193 281 189 b 240 182 276 179 242 182 z m 219 43 b 235 57 219 53 226 57 b 244 43 243 57 244 50 b 233 31 244 36 240 31 b 219 43 225 31 219 36 z "},"(":{"ha":401,"x_min":0,"x_max":0,"o":"m 28 399 b 171 -92 28 225 67 50 b 336 -236 211 -144 256 -236 b 431 -140 388 -236 431 -193 b 385 -57 431 -106 410 -81 b 218 397 267 97 218 196 b 304 832 218 550 256 689 b 360 951 319 875 360 907 b 271 1040 360 1001 319 1040 b 88 786 168 1040 108 858 b 28 399 50 660 28 531 z m 242 963 b 254 975 242 971 246 975 b 267 964 261 975 267 969 b 253 950 267 957 260 950 b 242 963 244 950 242 956 z m 64 474 b 190 913 64 614 107 797 b 226 946 197 922 211 946 b 240 933 233 946 240 942 b 201 879 240 915 210 894 b 93 476 132 763 93 613 b 103 385 93 446 103 415 b 92 374 103 378 99 374 b 64 474 63 374 64 456 z "},")":{"ha":451,"x_min":0,"x_max":0,"o":"m 431 399 b 371 786 431 531 408 660 b 188 1040 350 858 290 1040 b 99 951 139 1040 99 1001 b 154 832 99 907 139 875 b 240 397 203 689 240 550 b 74 -57 240 196 192 97 b 28 -140 49 -81 28 -106 b 122 -236 28 -193 71 -236 b 288 -92 203 -236 247 -144 b 431 399 392 50 431 225 z m 217 963 b 206 950 217 956 214 950 b 192 964 199 950 192 957 b 204 975 192 969 197 975 b 217 963 213 975 217 971 z m 394 474 b 367 374 394 456 396 374 b 356 385 360 374 356 378 b 365 476 356 415 365 446 b 257 879 365 613 326 763 b 218 933 249 894 218 915 b 232 946 218 942 225 946 b 268 913 247 946 261 922 b 394 474 351 797 394 614 z "},"{":{"ha":528,"x_min":0,"x_max":0,"o":"m 28 356 b 153 256 28 250 150 263 b 172 71 176 203 167 125 b 442 -293 190 -112 224 -293 b 607 -186 510 -293 607 -274 b 511 -96 607 -133 563 -96 b 440 -103 488 -96 464 -103 b 382 -44 401 -103 388 -83 l 365 64 b 346 275 360 131 358 207 b 331 328 342 293 338 313 b 307 372 325 342 313 358 b 388 604 357 442 381 522 b 413 778 392 663 389 724 b 458 860 425 807 439 835 b 507 954 482 890 507 914 b 419 1040 507 1003 469 1040 b 207 742 314 1040 214 835 l 196 597 b 136 469 192 550 171 501 b 28 356 93 429 28 436 z m 389 971 b 403 983 389 978 394 983 b 414 972 410 983 414 979 b 400 958 414 964 408 958 b 389 971 392 958 389 964 z m 239 710 b 338 938 246 793 275 879 b 371 957 346 944 358 957 b 383 942 381 957 383 950 b 361 921 383 925 371 928 b 263 586 268 833 265 704 b 250 574 260 578 258 574 b 238 586 242 574 238 578 b 239 710 238 606 239 690 z "},"|":{"ha":329,"x_min":0,"x_max":0,"o":"m 68 -183 b 169 -262 69 -232 126 -264 b 268 -164 222 -261 268 -218 l 264 865 l 261 947 b 158 1029 260 994 201 1031 b 61 931 107 1028 60 982 l 64 -93 z m 119 858 b 132 872 121 865 126 871 b 149 843 149 872 149 854 b 158 392 150 776 157 460 b 144 360 158 382 160 360 b 131 369 138 358 132 363 b 128 440 131 379 128 429 b 119 858 124 579 121 719 z "},"}":{"ha":629,"x_min":0,"x_max":0,"o":"m 607 356 b 497 469 607 436 542 429 b 439 597 463 501 443 550 l 428 742 b 214 1040 419 835 319 1040 b 126 954 165 1040 126 1003 b 176 860 126 914 153 890 b 222 778 194 835 210 807 b 247 604 246 724 242 663 b 326 372 253 522 276 442 b 304 328 322 358 310 342 b 289 275 297 313 292 293 b 269 64 275 207 274 131 l 253 -44 b 194 -103 246 -83 233 -103 b 122 -96 169 -103 147 -96 b 28 -186 72 -96 28 -133 b 193 -293 28 -274 124 -293 b 461 71 410 -293 444 -112 b 481 256 467 125 458 203 b 607 356 483 263 607 250 z m 244 971 b 235 958 244 964 242 958 b 219 972 226 958 219 964 b 232 983 219 979 224 983 b 244 971 239 983 244 978 z m 397 586 b 385 574 397 578 392 574 b 372 586 376 574 375 578 b 274 921 369 704 367 833 b 250 942 263 928 250 925 b 264 957 250 950 254 957 b 296 938 275 957 289 944 b 397 586 396 844 397 713 z "},"[":{"ha":522,"x_min":0,"x_max":0,"o":"m 39 -97 b 272 -253 43 -211 178 -256 l 394 -249 b 488 -137 450 -246 490 -189 b 388 -43 486 -83 444 -40 b 363 -46 378 -43 371 -43 b 354 -46 361 -46 357 -46 l 328 -47 b 318 -47 324 -47 321 -47 b 242 -46 296 -49 265 -53 b 240 -44 242 -46 240 -44 l 239 -4 l 242 739 b 250 829 242 751 242 826 b 326 835 281 832 299 833 b 404 831 353 835 378 829 b 497 928 457 832 499 874 b 247 1032 493 1043 325 1036 b 38 740 67 1026 39 906 l 35 -10 z m 353 971 b 367 989 353 981 357 988 b 379 976 374 989 379 983 b 367 957 379 968 376 958 b 353 971 358 957 353 961 z m 97 679 b 107 810 96 722 101 765 b 263 985 119 917 146 981 b 326 967 275 985 326 989 b 313 953 326 958 319 954 b 292 957 308 954 294 956 b 267 956 289 957 271 957 b 113 650 78 949 158 653 b 99 658 106 650 101 651 z "},"]":{"ha":543,"x_min":0,"x_max":0,"o":"m 503 -10 l 500 740 b 290 1032 499 906 471 1026 b 40 928 213 1036 44 1043 b 133 831 39 874 81 832 b 211 835 160 829 185 835 b 288 829 239 833 258 832 b 296 739 296 826 296 751 l 299 -4 l 297 -44 b 296 -46 297 -44 296 -46 b 219 -47 272 -53 242 -49 b 210 -47 217 -47 214 -47 l 183 -46 b 175 -46 181 -46 176 -46 b 150 -43 167 -43 160 -43 b 50 -137 93 -40 51 -83 b 143 -249 47 -189 88 -246 l 265 -253 b 499 -97 360 -256 494 -211 z m 185 971 b 171 957 185 961 181 957 b 158 976 161 958 158 968 b 171 989 158 983 165 989 b 185 971 181 988 185 981 z m 440 658 b 425 650 436 651 432 650 b 271 956 379 653 460 949 b 246 957 267 957 249 957 b 225 953 243 956 229 954 b 211 967 218 954 211 958 b 275 985 211 989 263 985 b 431 810 392 981 418 917 b 440 658 438 758 440 710 z "},"":{"ha":268,"x_min":0,"x_max":0,"o":"m 24 865 b 136 731 24 799 63 731 b 240 832 192 731 240 775 b 182 918 240 871 217 901 b 201 967 193 933 201 947 b 133 1036 201 1004 171 1036 b 24 865 61 1036 24 924 z m 121 850 b 140 863 126 857 132 863 b 157 840 153 863 157 850 b 126 793 157 821 147 793 b 88 835 106 793 88 814 b 106 856 88 844 96 856 b 121 850 111 856 115 850 z "},"":{"ha":243,"x_min":0,"x_max":0,"o":"m 240 901 b 128 1036 240 968 201 1036 b 24 935 72 1036 24 992 b 82 849 24 896 47 865 b 63 800 71 833 63 819 b 131 731 63 763 93 731 b 240 901 203 731 240 843 z m 143 917 b 124 904 138 910 132 904 b 107 926 111 904 107 917 b 138 974 107 946 117 974 b 176 932 158 974 176 953 b 157 911 176 922 168 911 b 143 917 153 911 149 917 z "},"":{"ha":499,"x_min":0,"x_max":0,"o":"m 24 865 b 136 731 24 799 63 731 b 240 832 192 731 240 775 b 182 918 240 871 217 901 b 201 967 193 933 201 947 b 133 1036 201 1004 171 1036 b 24 865 61 1036 24 924 z m 247 865 b 360 731 247 799 288 731 b 465 832 417 731 465 775 b 407 918 465 871 442 901 b 426 967 418 933 426 947 b 358 1036 426 1004 394 1036 b 247 865 285 1036 247 924 z m 121 850 b 140 863 126 857 132 863 b 157 840 153 863 157 850 b 126 793 157 821 147 793 b 88 835 106 793 88 814 b 106 856 88 844 96 856 b 121 850 111 856 115 850 z m 344 850 b 364 863 350 857 356 863 b 382 840 376 863 382 850 b 350 793 382 821 372 793 b 313 835 331 793 313 814 b 331 856 313 844 321 856 b 344 850 336 856 340 850 z "},"":{"ha":499,"x_min":0,"x_max":0,"o":"m 465 901 b 353 1036 465 968 426 1036 b 247 935 297 1036 247 992 b 306 849 247 896 272 865 b 288 800 294 833 288 819 b 356 731 288 763 318 731 b 465 901 428 731 465 843 z m 240 901 b 128 1036 240 968 201 1036 b 24 935 72 1036 24 992 b 82 849 24 896 47 865 b 63 800 71 833 63 819 b 131 731 63 763 93 731 b 240 901 203 731 240 843 z m 368 917 b 349 904 363 910 357 904 b 331 926 336 904 331 917 b 363 974 331 946 340 974 b 401 932 383 974 401 953 b 382 911 401 922 392 911 b 368 917 376 911 372 917 z m 143 917 b 124 904 138 910 132 904 b 107 926 111 904 107 917 b 138 974 107 946 117 974 b 176 932 158 974 176 953 b 157 911 176 922 168 911 b 143 917 153 911 149 917 z "},"":{"ha":267,"x_min":0,"x_max":0,"o":"m 240 39 b 128 172 240 106 201 172 b 24 71 72 172 24 129 b 82 -14 24 32 47 1 b 63 -64 71 -31 63 -43 b 131 -132 63 -100 93 -132 b 240 39 203 -132 240 -21 z m 143 53 b 124 42 138 47 132 42 b 107 64 111 42 107 53 b 138 110 107 83 117 110 b 176 69 158 110 176 89 b 157 49 176 60 168 49 b 143 53 153 49 149 53 z "},"":{"ha":493,"x_min":0,"x_max":0,"o":"m 465 39 b 353 172 465 106 426 172 b 247 71 297 172 247 129 b 306 -14 247 32 272 1 b 288 -64 294 -31 288 -43 b 356 -132 288 -100 318 -132 b 465 39 428 -132 465 -21 z m 240 39 b 128 172 240 106 201 172 b 24 71 72 172 24 129 b 82 -14 24 32 47 1 b 63 -64 71 -31 63 -43 b 131 -132 63 -100 93 -132 b 240 39 203 -132 240 -21 z m 368 53 b 349 42 363 47 357 42 b 331 64 336 42 331 53 b 363 110 331 83 340 110 b 401 69 383 110 401 89 b 382 49 401 60 392 49 b 368 53 376 49 372 53 z m 143 53 b 124 42 138 47 132 42 b 107 64 111 42 107 53 b 138 110 107 83 117 110 b 176 69 158 110 176 89 b 157 49 176 60 168 49 b 143 53 153 49 149 53 z "},"":{"ha":353,"x_min":0,"x_max":0,"o":"m 171 568 b 114 590 157 568 135 589 b 44 482 61 593 44 522 b 135 324 44 414 88 367 b 154 311 142 318 144 311 b 307 510 210 308 307 453 b 236 594 307 551 281 593 b 171 568 213 596 189 582 z "},"_":{"ha":744,"x_min":0,"x_max":0,"o":"m 268 -107 b 33 -121 189 -107 111 -114 b -24 -179 3 -124 -22 -149 b 35 -242 -26 -214 0 -240 b 46 -242 38 -242 44 -242 l 290 -236 b 410 -237 329 -240 372 -237 b 668 -228 421 -239 657 -228 b 806 -169 718 -229 801 -244 b 747 -100 807 -136 782 -104 b 664 -97 719 -100 690 -100 z m 69 -165 b 360 -153 167 -156 263 -153 b 371 -162 365 -153 371 -156 b 350 -171 371 -172 357 -171 b 260 -172 336 -172 274 -172 l 75 -182 b 61 -185 72 -183 64 -185 b 53 -175 57 -185 53 -181 b 69 -165 53 -167 64 -167 z m 390 -162 b 399 -154 390 -158 394 -154 b 407 -164 404 -154 407 -158 b 399 -172 407 -169 404 -174 b 390 -162 393 -172 390 -168 z "},"":{"ha":694,"x_min":0,"x_max":0,"o":"m 335 468 b 201 469 324 468 229 469 b 99 465 186 469 114 467 b 39 410 68 464 42 440 b 94 344 36 375 61 347 b 106 343 97 344 106 343 b 522 339 229 340 393 349 b 588 333 542 338 565 333 b 663 390 625 333 658 343 b 608 463 667 424 642 457 b 582 465 604 463 585 464 b 525 469 565 467 540 467 z m 133 418 b 419 419 229 425 325 424 b 435 408 426 419 435 417 b 413 400 433 397 421 400 b 324 403 400 400 338 403 l 138 401 b 124 400 135 401 126 400 b 115 410 119 400 115 404 b 133 418 117 418 128 418 z m 454 407 b 463 415 454 411 458 415 b 471 404 468 414 471 410 b 461 396 471 400 467 396 b 454 407 456 397 453 401 z "},"":{"ha":1065,"x_min":0,"x_max":0,"o":"m 335 468 b 201 469 324 468 229 469 b 99 465 186 469 114 467 b 39 410 68 464 42 440 b 94 344 36 375 61 347 b 106 343 97 344 106 343 b 894 339 229 340 764 349 b 960 333 914 338 938 333 b 1035 390 997 333 1031 343 b 981 463 1038 424 1014 457 b 953 465 976 463 957 464 b 896 469 936 467 913 467 z m 133 418 b 419 419 229 425 325 424 b 435 408 426 419 435 417 b 413 400 433 397 421 400 b 324 403 400 400 338 403 l 138 401 b 124 400 135 401 126 400 b 115 410 119 400 115 404 b 133 418 117 418 128 418 z m 454 407 b 463 415 454 411 458 415 b 471 404 468 414 471 410 b 461 396 471 400 467 396 b 454 407 456 397 453 401 z "},"":{"ha":694,"x_min":0,"x_max":0,"o":"m 326 976 b 193 978 315 976 222 978 b 92 974 178 978 107 975 b 31 918 61 972 35 949 b 86 853 28 883 53 856 b 97 851 89 853 97 851 b 515 847 222 849 385 857 b 581 842 535 846 558 842 b 656 899 617 842 650 851 b 600 971 658 932 635 965 b 574 974 596 971 578 972 b 517 978 557 975 532 975 z m 126 926 b 261 931 171 929 215 931 b 413 926 311 931 363 929 b 415 926 413 926 415 926 b 426 917 422 926 428 924 b 406 908 425 906 413 908 b 315 911 392 908 329 911 l 129 910 b 117 908 128 910 118 908 b 108 918 111 908 107 913 b 126 926 108 926 119 926 z m 446 915 b 456 924 446 919 450 924 b 463 913 460 922 464 918 b 453 904 463 908 458 904 b 446 915 449 906 446 910 z "},"":{"ha":724,"x_min":0,"x_max":0,"o":"m 346 565 b 211 567 333 565 240 568 b 110 563 196 567 125 564 b 50 507 79 561 53 538 b 106 442 46 472 71 444 b 117 440 108 442 115 440 b 533 436 240 438 403 446 b 551 435 539 436 544 435 b 547 279 551 378 556 382 b 601 165 544 229 528 172 b 674 219 635 163 668 186 b 676 247 674 224 675 243 b 678 276 678 263 675 261 l 676 426 b 674 500 676 454 674 489 b 614 560 672 531 649 557 l 597 561 b 592 563 594 563 593 563 b 535 567 576 564 551 564 z m 144 517 b 431 517 239 522 336 521 b 435 515 431 517 433 517 b 444 506 440 515 446 513 b 424 497 444 494 431 497 b 333 501 410 497 347 500 l 147 499 b 135 497 146 499 136 497 b 126 507 129 497 126 501 b 144 517 128 515 138 515 z m 464 504 b 474 513 465 508 468 513 b 481 503 479 513 482 507 b 472 494 481 497 476 493 b 464 504 467 494 464 499 z m 676 467 l 676 426 b 678 399 678 414 678 403 b 676 467 679 369 676 478 z m 626 378 b 617 367 626 371 624 365 b 608 389 606 368 608 381 b 610 432 608 394 610 413 b 629 435 617 432 624 433 b 631 424 631 428 631 425 b 628 381 631 421 629 411 b 626 378 628 381 628 378 z m 615 347 b 624 338 619 347 624 343 b 614 331 624 333 618 331 b 606 340 608 331 604 335 b 615 347 606 344 610 347 z "},"":{"ha":997,"x_min":0,"x_max":0,"o":"m 703 951 b 628 979 681 968 657 979 b 524 922 585 979 549 956 b 504 893 522 919 508 893 b 369 975 486 963 433 975 l 167 963 b 32 850 100 958 32 925 b 103 747 32 803 60 767 b 143 731 107 746 140 733 b 154 725 144 731 153 728 b 257 611 158 665 192 611 b 361 733 325 611 361 672 b 360 768 361 744 360 756 b 414 774 368 771 406 774 b 476 803 435 775 471 803 b 471 738 474 779 471 760 b 567 628 471 679 503 628 b 649 671 604 628 622 643 b 651 671 649 671 650 671 b 693 664 665 671 678 664 b 772 697 725 664 747 678 b 789 671 778 693 783 675 b 868 632 810 646 835 632 b 969 733 925 632 969 675 b 811 996 969 832 943 996 b 706 951 769 996 738 976 z m 715 846 b 819 947 715 897 769 947 b 914 813 890 947 906 865 b 901 799 914 804 908 799 b 815 914 864 799 892 914 b 729 826 750 914 740 826 b 715 846 717 826 715 836 z m 532 768 b 611 929 532 808 551 929 b 626 914 619 929 626 924 b 601 894 626 900 610 901 b 560 767 572 871 560 800 l 561 746 b 563 735 563 742 563 739 b 550 722 563 728 558 722 b 532 768 531 722 532 757 z m 329 899 b 340 908 329 906 335 908 b 357 892 351 908 357 903 b 346 882 357 885 353 882 b 329 899 338 882 329 888 z m 108 819 b 249 904 108 883 201 904 b 307 885 261 904 307 908 b 292 871 307 876 300 871 b 254 874 279 871 267 874 b 138 818 225 874 138 858 b 150 793 138 807 150 804 b 139 782 150 786 146 782 b 108 819 121 782 108 804 z "},"":{"ha":857,"x_min":0,"x_max":0,"o":"m 68 525 b 419 106 68 324 199 106 b 781 535 643 106 781 331 b 426 956 781 738 649 956 b 68 525 203 956 68 728 z m 374 863 b 390 881 374 872 381 881 b 403 869 397 881 403 876 b 386 847 403 860 396 847 b 374 863 376 847 374 853 z m 158 564 b 285 821 158 661 217 757 b 328 846 296 832 311 846 b 347 828 339 846 347 839 b 311 806 347 811 322 815 b 185 556 246 744 185 649 l 186 546 b 175 528 186 539 185 528 b 158 564 157 528 158 554 z m 272 524 b 429 753 272 613 319 753 b 575 574 521 753 563 649 b 575 567 575 572 575 569 l 575 546 b 419 308 575 453 533 308 b 272 524 315 308 272 439 z m 369 517 b 425 392 369 486 382 392 b 443 411 435 392 443 401 b 417 472 443 429 417 447 b 483 426 432 457 457 426 b 506 447 496 426 506 435 b 475 478 506 465 486 468 b 453 500 468 483 453 500 l 453 506 b 490 586 468 529 490 557 b 444 636 490 613 471 636 b 369 517 388 636 369 560 z m 414 533 b 442 592 414 544 429 592 b 444 586 446 592 444 588 b 414 529 444 567 424 540 b 414 533 414 529 414 533 z "},"":{"ha":797,"x_min":0,"x_max":0,"o":"m 35 525 b 385 106 35 324 165 106 b 746 535 608 106 746 331 b 393 956 746 738 614 956 b 35 525 168 956 35 728 z m 246 801 b 261 815 246 811 253 815 b 275 803 268 815 275 810 b 260 789 275 793 269 789 b 246 801 253 789 246 794 z m 124 528 b 131 597 124 551 125 575 b 214 763 136 622 182 763 b 233 744 222 763 233 754 b 210 715 233 735 214 724 b 153 522 178 658 153 589 b 158 465 153 507 151 482 b 171 440 163 456 171 450 b 160 429 171 433 167 429 b 124 528 125 429 124 508 z m 238 524 b 394 753 238 613 285 753 b 540 574 486 753 528 649 b 540 567 540 572 540 569 l 540 546 b 385 308 542 453 500 308 b 238 524 282 308 238 439 z m 342 514 b 404 425 342 472 354 425 b 472 469 428 425 472 440 b 453 488 472 482 464 488 b 406 469 435 488 424 469 b 386 515 383 469 386 499 b 414 574 386 535 386 574 b 421 574 415 574 419 574 b 447 539 429 561 426 539 b 465 561 460 539 465 549 b 415 617 465 590 444 617 b 342 514 360 617 342 560 z "},"":{"ha":674,"x_min":0,"x_max":0,"o":"m 414 714 b 410 713 414 713 411 713 b 353 726 390 715 372 725 b 283 726 328 731 307 731 b 256 719 276 725 260 719 b 165 779 231 747 207 774 b 61 713 117 785 69 756 b 74 661 58 697 61 675 l 124 604 b 103 536 114 581 107 560 b 135 374 93 481 104 424 l 135 372 l 82 288 b 74 263 78 279 75 271 b 150 175 67 222 100 181 b 246 214 188 169 228 185 l 289 281 b 347 283 304 281 332 285 b 354 276 351 282 353 282 b 471 160 381 235 404 168 b 575 226 521 154 568 183 b 569 269 578 242 575 254 b 501 379 558 286 511 363 b 499 383 500 379 499 383 b 531 474 515 414 525 443 b 528 575 538 508 535 540 b 531 579 528 578 529 579 b 539 590 531 581 539 589 b 594 656 547 600 586 646 b 610 690 603 667 607 678 b 533 779 617 733 583 774 b 414 714 475 788 444 750 z m 147 568 b 324 701 158 629 246 711 b 338 688 332 701 339 696 b 324 678 336 682 331 678 b 157 556 214 681 172 554 b 147 568 150 557 146 563 z m 353 692 b 365 700 353 699 357 701 b 375 690 372 699 376 696 b 360 681 374 685 367 681 b 353 692 353 682 351 688 z m 324 526 b 369 538 338 536 353 544 b 381 490 392 529 390 507 b 313 451 371 472 339 440 b 268 525 279 464 253 494 b 308 540 275 538 292 547 b 324 526 315 538 318 529 z "},"":{"ha":585,"x_min":0,"x_max":0,"o":"m 228 667 b 164 615 210 647 182 635 b 58 333 93 539 67 435 b 150 49 50 233 68 117 b 215 8 169 31 193 24 b 301 -207 213 -64 194 -200 b 399 -122 351 -211 394 -172 b 393 14 403 -78 389 -32 b 464 74 393 14 453 61 b 533 182 489 106 521 143 b 535 199 533 185 535 196 b 451 297 539 250 503 293 b 294 179 357 304 344 175 b 242 321 235 185 239 281 b 354 519 247 392 268 504 b 426 471 378 496 389 474 b 517 551 474 467 514 506 b 415 693 522 617 474 674 l 414 707 l 424 822 b 344 899 426 863 381 896 b 232 707 242 907 240 775 b 228 667 231 701 229 674 z m 290 696 b 278 710 283 696 278 701 l 283 778 b 308 829 283 788 290 831 b 318 824 313 829 315 826 b 318 817 318 822 318 818 b 310 779 317 804 310 792 l 303 704 b 290 696 303 696 296 694 z m 326 640 b 338 650 326 647 331 650 b 349 639 344 650 349 646 b 335 629 347 631 342 629 b 326 640 329 629 325 633 z m 251 624 b 288 638 261 628 274 638 b 299 624 296 636 300 633 b 208 543 299 618 219 558 b 126 349 163 489 132 419 b 125 313 125 336 126 325 b 115 303 125 306 121 301 b 100 328 101 303 101 317 b 101 333 100 329 101 331 l 101 350 b 251 624 108 449 157 576 z "},"":{"ha":717,"x_min":0,"x_max":0,"o":"m 178 488 b 29 360 111 472 24 443 b 132 267 33 304 76 265 b 168 275 146 268 154 267 b 144 183 169 249 158 204 b 118 163 138 175 125 171 b 89 86 97 143 86 115 b 197 -10 93 31 142 -11 b 238 -6 211 -8 224 -6 b 250 -4 240 -6 249 -4 b 449 -7 279 -6 419 -7 b 476 -6 450 -7 469 -7 b 668 163 569 -3 676 56 b 563 261 665 217 619 263 b 488 219 532 260 507 243 b 474 194 483 214 479 200 b 463 194 471 194 464 194 b 363 196 435 193 363 194 l 363 199 b 372 285 364 211 371 272 b 375 313 372 289 374 308 b 382 315 375 314 381 315 b 422 319 389 317 417 319 b 544 324 440 319 526 324 b 638 426 599 328 642 369 b 526 524 633 482 583 526 l 382 518 l 382 524 b 456 769 382 576 403 768 b 494 692 471 771 494 703 b 494 644 496 675 493 660 b 594 553 497 592 542 550 b 686 713 676 556 690 649 b 447 974 678 835 585 979 b 336 936 408 972 368 958 b 179 496 197 836 183 656 z m 246 619 b 429 910 240 711 322 906 b 476 890 442 910 475 911 b 469 879 476 886 475 879 b 274 606 343 879 267 719 b 263 597 274 601 267 597 b 246 619 251 597 247 610 z m 508 890 b 519 903 508 897 511 903 b 531 889 528 903 531 897 b 521 878 532 882 528 878 b 508 890 513 878 508 882 z m 83 333 b 296 479 76 426 225 476 b 319 463 306 479 319 474 b 308 449 321 456 315 450 b 110 332 254 439 104 414 b 117 314 110 325 117 321 b 106 300 118 306 114 301 b 83 333 89 300 85 321 z m 368 458 b 382 472 368 465 374 472 b 394 461 389 472 394 468 b 382 444 394 454 390 444 b 368 458 372 443 368 450 z "},"":{"ha":888,"x_min":0,"x_max":0,"o":"m 257 621 b 219 760 238 621 221 739 b 219 783 219 760 219 778 b 219 808 219 788 219 804 b 240 871 222 831 240 847 b 144 968 240 924 199 968 b 18 760 42 968 18 839 b 251 414 18 618 78 414 b 469 538 343 414 410 475 b 519 594 488 556 500 579 b 519 589 519 593 519 589 b 504 411 519 567 508 415 l 503 410 b 244 271 424 399 244 386 b 339 175 244 219 286 175 b 447 196 376 175 408 196 b 454 196 449 196 453 196 b 429 156 450 182 446 158 b 336 143 415 153 350 144 b 189 43 268 136 189 136 b 292 -53 189 -15 238 -49 b 264 -122 292 -58 264 -94 b 365 -221 264 -178 310 -221 b 557 -40 457 -221 517 -104 b 574 -33 560 -33 569 -35 b 782 81 650 -25 782 -29 b 665 182 782 149 725 176 b 675 218 667 188 674 213 b 679 226 676 221 676 225 b 869 335 756 238 869 224 b 714 438 869 428 788 438 b 725 699 714 525 725 611 b 600 1006 725 788 744 1006 b 421 810 503 1006 463 874 b 257 621 404 783 290 621 z m 115 900 b 128 913 115 908 119 913 b 143 900 136 913 143 907 b 129 888 143 890 138 888 b 115 900 121 888 115 890 z m 579 892 b 594 904 579 899 588 904 b 607 890 601 904 607 897 b 594 876 607 883 604 876 b 579 892 586 876 579 883 z m 74 757 b 96 849 74 768 74 849 b 110 835 107 849 110 844 b 101 767 110 813 101 789 b 144 603 101 707 115 656 b 156 585 151 597 156 593 b 139 569 156 576 147 569 b 113 600 125 569 117 592 b 74 757 85 653 74 697 z m 579 829 b 592 843 579 836 585 843 b 614 779 614 843 614 792 b 619 596 617 718 619 657 b 613 456 619 542 619 511 b 599 443 613 449 606 443 b 583 461 588 443 583 451 b 588 524 583 481 586 510 b 588 619 588 538 588 606 b 586 786 588 688 589 722 b 579 829 585 800 579 815 z m 358 338 b 371 350 358 344 364 350 b 385 333 382 350 385 342 b 375 322 385 328 382 322 b 358 338 367 322 358 329 z m 303 285 b 329 332 303 299 310 332 b 342 319 336 332 342 325 b 332 289 342 308 332 300 b 367 263 332 272 353 264 b 413 263 374 263 406 263 b 425 250 419 263 425 257 b 374 232 425 228 386 232 b 303 285 342 232 303 247 z m 258 39 b 442 126 258 117 386 126 b 456 111 449 124 456 119 b 401 96 456 89 414 97 b 288 35 376 93 288 71 b 301 -3 288 19 301 11 b 289 -14 301 -11 296 -14 b 283 -14 288 -14 283 -14 b 258 39 267 -1 258 19 z m 482 114 b 496 126 482 121 489 126 b 511 114 503 126 511 122 b 499 100 511 107 506 100 b 482 114 492 100 482 107 z "},"":{"ha":794,"x_min":0,"x_max":0,"o":"m 63 442 b 151 335 57 386 96 339 b 208 342 172 332 189 342 l 526 339 l 632 333 b 739 424 686 331 735 371 b 658 533 744 472 710 528 l 576 540 b 388 547 564 542 432 546 b 281 544 371 547 296 546 b 63 442 207 540 72 543 z m 154 465 b 214 488 157 485 206 486 b 293 499 229 490 285 497 b 340 503 301 500 335 501 l 536 506 b 544 506 538 506 543 506 b 561 489 554 504 563 500 b 546 476 561 482 553 476 l 308 471 b 168 451 261 469 214 457 b 165 451 168 451 165 451 b 154 465 157 453 154 458 z m 590 475 b 606 488 592 483 596 488 b 617 474 611 486 618 481 b 601 463 617 465 608 461 b 590 475 594 463 590 467 z "},"":{"ha":794,"x_min":0,"x_max":0,"o":"m 147 867 b 50 782 97 864 54 833 b 140 683 46 728 88 688 b 304 682 194 679 250 686 b 307 574 307 665 307 589 b 401 432 308 511 328 438 b 500 521 454 428 496 469 b 500 529 500 524 500 529 l 497 661 l 499 678 b 668 671 556 678 613 674 b 776 757 719 672 772 700 b 683 858 781 813 735 851 b 629 863 675 860 638 863 b 514 869 590 865 551 867 b 504 871 511 869 504 871 l 504 888 l 513 1004 b 432 1085 517 1046 469 1082 b 313 875 322 1093 321 947 z m 356 940 b 440 1038 358 983 390 1042 b 457 1019 450 1038 458 1028 b 443 1007 457 1013 450 1007 b 435 1010 442 1007 436 1010 b 381 940 406 1006 382 965 b 385 897 379 925 386 911 b 371 886 385 892 378 886 b 356 940 350 889 354 928 z m 111 754 b 313 826 117 826 265 831 l 331 825 b 342 811 338 824 342 818 b 326 799 340 803 335 800 b 142 750 282 801 146 797 b 164 721 140 736 165 738 b 153 711 164 714 160 710 b 111 754 132 719 110 733 z m 354 806 b 367 817 354 811 361 817 b 378 803 374 817 378 810 b 365 793 376 797 372 793 b 354 806 360 794 354 800 z m 350 632 b 365 651 351 640 356 651 b 376 642 371 650 374 647 b 379 521 371 603 368 560 b 411 485 385 504 413 503 b 399 472 411 478 406 472 b 349 607 340 476 346 571 b 350 632 349 611 350 629 z m 92 307 b 181 200 86 251 126 206 b 238 207 201 197 218 207 l 556 204 l 661 199 b 768 289 715 196 764 236 b 688 399 774 338 739 393 l 606 406 b 417 413 593 407 461 411 b 310 410 400 413 325 411 b 92 307 236 406 101 408 z m 183 331 b 243 353 186 350 235 351 b 369 368 282 360 329 368 l 565 371 b 574 371 567 371 572 371 b 590 354 583 369 592 367 b 575 342 590 347 582 342 l 338 336 b 197 317 290 335 244 322 b 194 317 197 317 194 317 b 183 331 186 318 183 324 z m 619 340 b 635 353 621 349 625 353 b 647 339 640 351 647 346 b 631 328 646 331 639 326 b 619 340 624 328 619 332 z "},"":{"ha":633,"x_min":0,"x_max":0,"o":"m 408 740 b 294 628 376 711 326 667 b 290 631 293 628 292 628 l 204 726 b 129 761 186 749 154 761 b 67 678 82 761 56 724 b 83 640 69 664 74 653 l 188 506 b 185 500 188 503 185 500 b 99 400 172 485 111 415 b 67 308 76 374 57 350 b 176 222 79 258 128 222 b 226 240 196 222 215 226 l 318 346 l 321 343 b 475 222 360 294 408 222 b 540 307 521 222 551 258 b 506 369 535 331 521 350 b 429 463 497 379 436 453 b 426 467 429 464 426 465 l 426 468 l 439 485 l 544 607 b 572 683 568 625 581 649 b 468 765 561 731 514 765 b 408 740 443 765 425 756 z m 357 603 b 476 711 353 624 453 711 b 492 699 482 711 490 706 b 376 593 494 688 390 617 b 372 593 375 593 372 593 b 357 603 367 593 360 597 z m 124 632 b 125 694 117 647 100 689 b 142 688 131 696 139 693 b 150 633 147 676 138 660 b 210 578 163 610 182 590 b 213 574 211 578 213 575 b 207 563 215 568 214 564 b 124 632 174 556 135 610 z m 176 682 b 189 693 174 690 181 693 b 201 682 196 693 200 689 b 192 669 203 674 199 669 b 176 682 183 669 178 674 z m 115 317 b 218 451 110 336 192 451 b 232 439 225 451 231 446 b 229 429 233 433 233 433 b 140 317 193 396 164 358 b 129 306 136 308 139 306 b 115 317 122 306 117 310 z "},"":{"ha":794,"x_min":0,"x_max":0,"o":"m 297 683 b 392 589 297 631 339 589 b 485 681 443 589 485 629 b 390 776 485 735 444 776 b 297 683 338 776 297 736 z m 381 681 b 393 694 381 688 386 694 b 406 682 401 694 406 690 b 392 669 406 674 400 669 b 381 681 385 669 381 674 z m 111 526 b 11 426 56 521 11 483 b 86 335 11 382 42 343 b 146 335 94 335 138 335 b 676 344 322 335 499 346 b 786 444 733 349 786 381 b 660 549 786 517 721 543 b 244 538 521 549 383 546 z m 121 457 b 508 504 246 490 379 504 b 629 497 549 504 588 503 b 668 476 640 496 668 493 b 653 463 668 468 661 463 b 592 471 635 463 610 469 b 497 474 557 474 533 474 b 125 431 374 474 244 461 b 118 431 124 431 119 431 b 106 442 111 431 106 433 b 121 457 106 450 114 454 z m 708 476 b 724 496 710 486 714 496 b 738 483 732 496 738 492 b 721 465 738 475 731 465 b 708 476 715 465 707 471 z m 299 201 b 392 107 299 150 339 107 b 486 200 442 107 486 149 b 394 297 486 251 449 297 b 299 201 340 297 299 254 z m 394 201 b 411 218 394 210 403 218 b 425 206 418 218 425 213 b 406 190 425 196 414 190 b 394 201 400 190 394 193 z "},"":{"ha":374,"x_min":0,"x_max":0,"o":"m 97 1033 b 78 729 86 932 81 831 b 75 618 76 713 75 635 b 178 475 74 553 101 476 b 279 581 238 472 276 524 b 278 624 279 596 279 606 b 288 931 279 671 286 885 b 197 1117 289 1000 297 1114 b 97 1033 146 1118 106 1082 z m 142 1007 b 156 1015 142 1014 150 1015 b 168 997 165 1014 168 1006 b 165 972 167 988 167 982 l 144 658 b 131 644 144 651 138 644 b 117 658 124 646 117 650 l 118 704 l 136 963 z m 94 228 b 93 181 94 215 93 182 l 106 -107 b 217 -304 108 -181 118 -301 b 315 -200 276 -306 314 -256 b 317 -183 317 -196 317 -183 l 292 292 b 200 429 293 354 278 426 b 94 228 92 433 97 301 z m 154 219 b 181 301 154 232 157 303 b 199 274 194 301 199 285 b 185 249 197 260 186 261 b 179 111 181 206 179 153 b 176 19 178 97 176 33 b 182 -53 176 8 181 -42 b 168 -72 182 -61 179 -72 b 151 -47 156 -72 153 -57 b 146 24 150 -36 146 14 b 154 219 146 89 149 154 z "},"":{"ha":679,"x_min":0,"x_max":0,"o":"m 253 85 b 340 -4 253 36 290 -4 b 429 88 390 -4 429 36 b 340 174 429 136 390 174 b 253 85 290 174 253 135 z m 53 82 b 139 -7 53 33 89 -7 b 228 85 189 -7 228 33 b 140 171 228 133 189 171 b 53 82 89 171 53 132 z m 451 82 b 539 -7 451 33 489 -7 b 628 85 589 -7 628 33 b 539 171 628 133 589 171 b 451 82 489 171 451 132 z "},"":{"ha":292,"x_min":0,"x_max":0,"o":"m 56 379 b 139 288 56 332 89 288 b 238 400 197 288 238 347 b 186 483 238 440 218 461 b 142 501 171 494 161 501 b 56 379 85 501 56 428 z m 139 406 b 157 417 144 411 150 417 b 176 390 171 417 176 401 b 153 350 176 375 171 350 b 104 389 131 350 104 364 b 122 413 104 401 110 413 b 139 406 129 413 133 408 z "},"":{"ha":324,"x_min":0,"x_max":0,"o":"m 233 -115 b 243 74 239 -53 243 11 l 240 461 b 163 582 240 517 217 564 b 235 681 207 596 233 636 b 149 771 236 731 199 771 b 54 669 92 771 56 724 b 118 579 53 619 81 601 b 49 481 78 561 49 528 l 54 -106 b 142 -199 54 -156 89 -199 b 233 -115 190 -199 225 -161 z m 139 682 b 128 671 139 675 135 671 b 115 685 121 671 115 678 b 128 696 117 690 122 696 b 139 682 138 696 139 690 z m 171 469 b 158 456 171 463 165 456 b 146 471 150 456 146 463 b 157 481 146 478 150 481 b 171 469 165 481 171 478 z m 169 -18 b 154 -29 168 -26 161 -29 b 143 -19 149 -29 144 -26 b 150 358 143 38 149 301 b 151 386 150 361 150 381 b 151 392 151 388 151 389 l 151 408 b 167 428 151 418 156 428 b 178 417 172 428 178 422 b 171 24 178 357 172 83 b 169 3 171 22 169 8 b 169 -18 169 0 169 -15 z "},"":{"ha":576,"x_min":0,"x_max":0,"o":"m 543 -47 b 453 40 543 3 501 40 b 379 0 424 40 394 26 b 272 -50 357 -37 314 -50 b 221 -21 250 -50 225 -47 b 221 -1 221 -18 221 -4 b 292 219 221 76 264 150 b 358 474 322 297 358 389 b 296 590 358 521 339 568 b 333 667 318 613 333 633 b 249 756 333 714 297 756 b 153 664 199 756 153 714 b 200 583 153 631 171 597 l 200 581 b 167 522 185 567 167 544 l 167 461 b 144 375 167 449 149 388 b 29 -6 106 250 29 131 b 272 -240 29 -146 135 -240 b 543 -47 378 -240 543 -174 z m 281 675 b 267 660 281 668 274 660 b 256 672 261 660 256 667 b 269 688 256 679 261 688 b 281 675 275 688 281 681 z m 490 -74 b 468 -108 490 -86 476 -100 b 263 -199 417 -164 339 -199 b 138 -147 213 -199 171 -183 b 133 -136 136 -144 133 -139 b 146 -124 133 -129 139 -124 b 185 -153 163 -124 171 -144 b 261 -169 208 -165 235 -169 b 417 -118 318 -169 372 -151 b 478 -61 431 -108 463 -61 b 490 -74 486 -61 490 -65 z m 117 -86 b 101 -99 117 -94 110 -99 b 92 -89 96 -99 92 -96 b 107 -76 92 -79 100 -76 b 117 -86 113 -76 117 -81 z "},"":{"ha":303,"x_min":0,"x_max":0,"o":"m 36 847 b 150 718 36 783 81 718 b 260 843 215 718 260 781 b 147 971 260 906 214 971 b 36 847 79 971 36 913 z m 146 935 b 153 942 146 939 149 942 b 158 933 157 942 158 938 b 153 928 158 931 156 928 b 146 935 149 928 146 931 z m 64 840 b 132 932 64 871 97 932 b 142 924 136 932 142 929 b 125 914 142 915 129 917 b 78 842 103 900 78 869 b 79 833 78 839 79 836 b 74 828 79 829 76 828 b 64 835 68 828 67 829 b 64 840 64 836 64 840 z m 151 869 b 188 881 160 881 174 886 b 200 833 204 874 207 849 b 143 793 193 817 164 785 b 103 860 118 803 90 831 b 126 876 107 872 115 876 b 151 869 133 876 143 874 z m 126 849 b 128 851 129 847 131 851 b 126 849 126 853 125 849 z "},"":{"ha":339,"x_min":0,"x_max":0,"o":"m 33 811 b 122 696 33 757 60 696 b 174 711 140 696 158 701 b 193 725 181 715 186 724 b 249 688 204 703 224 688 b 304 736 275 688 300 708 b 308 890 303 788 308 838 b 247 964 308 928 290 964 b 219 958 236 964 232 963 b 165 972 203 967 185 972 b 33 811 86 972 33 882 z m 183 944 b 190 953 183 950 185 953 b 197 946 194 953 197 950 b 189 938 197 942 194 938 b 183 944 185 938 183 940 z m 149 943 b 165 949 153 944 161 949 b 172 940 169 947 172 944 b 146 921 172 931 151 926 b 88 840 119 899 97 872 b 85 811 86 832 89 818 b 79 808 82 808 82 808 b 71 817 75 808 71 811 b 149 943 71 868 101 921 z m 108 832 b 124 850 108 840 114 850 b 138 846 128 850 132 846 b 147 849 140 846 143 849 b 167 828 158 849 167 838 b 143 785 167 817 157 785 b 138 786 142 785 139 785 b 108 832 125 797 108 814 z "},"":{"ha":453,"x_min":0,"x_max":0,"o":"m 50 910 b 221 697 50 808 108 697 b 418 944 346 697 418 833 b 247 1157 418 1044 360 1157 b 50 910 121 1157 50 1021 z m 171 1078 b 243 1111 171 1104 225 1111 b 304 1093 253 1111 304 1108 b 290 1082 304 1085 299 1082 b 242 1089 274 1082 258 1089 b 196 1079 226 1089 207 1088 b 181 1067 190 1075 189 1067 b 171 1078 174 1067 171 1072 z m 310 1082 b 319 1092 310 1088 314 1092 b 329 1082 325 1092 329 1088 b 321 1074 329 1076 325 1074 b 310 1082 314 1074 310 1076 z m 147 940 b 194 1017 147 969 156 1017 b 238 989 213 1017 226 1001 l 239 989 b 276 1011 249 1003 261 1011 b 318 958 306 1011 318 985 b 310 921 318 943 315 935 b 264 833 292 883 283 865 b 235 800 258 825 247 800 b 203 824 224 800 207 819 b 147 940 171 854 147 894 z m 203 871 b 203 874 204 871 204 874 b 203 871 201 874 201 871 z "},"":{"ha":288,"x_min":0,"x_max":0,"o":"m 54 1136 b 53 860 54 1044 53 951 l 53 771 b 142 693 58 724 97 693 b 232 772 189 693 224 726 b 235 1122 233 889 235 1006 b 144 1219 235 1174 197 1219 b 54 1136 97 1219 61 1182 z m 90 939 b 90 967 90 946 90 965 b 100 1118 92 978 97 1083 b 117 1147 100 1129 101 1147 b 129 1135 124 1147 129 1142 b 126 1125 129 1132 128 1129 b 118 826 118 1026 115 926 b 108 819 117 822 113 819 b 90 939 83 819 90 919 z "},"":{"ha":428,"x_min":0,"x_max":0,"o":"m 86 1081 b 164 997 86 1036 118 997 b 208 1010 181 997 193 1001 b 139 890 208 979 163 914 l 69 822 b 50 768 57 808 50 786 b 121 686 50 728 79 690 b 278 682 174 686 225 682 b 364 761 324 682 364 714 b 307 840 364 799 340 828 l 307 843 b 375 1049 350 906 375 974 b 236 1221 375 1132 331 1221 b 86 1081 163 1221 86 1156 z m 151 1101 b 250 1169 151 1143 215 1169 b 296 1147 263 1169 296 1165 b 285 1136 296 1140 293 1136 b 253 1143 274 1136 265 1143 b 183 1119 228 1143 203 1135 b 161 1089 174 1111 174 1089 b 151 1101 154 1089 151 1096 z m 315 1113 b 325 1124 315 1118 319 1124 b 335 1114 331 1124 335 1121 b 326 1103 335 1108 333 1103 b 315 1113 319 1103 315 1107 z m 253 1004 b 264 1015 253 1010 258 1015 b 274 1004 269 1015 274 1008 b 263 993 274 997 269 993 b 253 1004 257 993 253 999 z m 115 792 b 106 803 110 792 106 794 b 139 828 110 817 131 822 b 217 942 174 857 197 901 b 226 972 221 951 221 963 b 238 979 229 978 231 979 b 247 967 244 979 247 972 b 115 792 247 928 164 792 z "},"":{"ha":403,"x_min":0,"x_max":0,"o":"m 54 1072 b 140 997 54 1022 94 997 b 110 935 122 981 110 960 b 208 861 110 878 161 864 b 183 835 208 851 193 835 b 129 856 178 835 153 856 b 60 782 90 856 60 819 b 181 690 60 722 129 690 b 351 863 269 690 351 774 b 307 968 351 904 336 938 b 338 1071 325 1000 338 1035 b 211 1197 338 1144 282 1197 b 54 1072 143 1197 54 1149 z m 111 1079 b 206 1154 111 1122 169 1154 b 256 1138 215 1154 256 1149 b 242 1126 256 1129 249 1126 b 201 1131 228 1126 215 1131 b 133 1088 174 1131 143 1113 b 128 1071 131 1082 132 1075 b 121 1069 126 1068 124 1069 b 111 1079 115 1069 111 1074 z m 272 1125 b 285 1136 272 1131 279 1136 b 293 1128 289 1136 293 1132 b 282 1117 293 1122 288 1117 b 272 1125 276 1117 272 1119 z "},"":{"ha":181,"x_min":0,"x_max":0,"o":"m -290 89 b -200 0 -290 39 -247 0 b -126 40 -172 0 -140 15 l 372 854 b 386 903 381 868 386 886 b 297 993 386 951 347 993 b 213 940 261 993 232 972 l -276 138 b -290 89 -286 122 -290 106 z m 174 771 b 188 783 174 779 179 783 b 197 774 194 783 197 779 b 192 760 197 768 196 763 b 185 760 190 760 186 760 b 174 771 178 760 174 763 z m -135 281 b -131 292 -135 286 -135 286 l 156 753 b 165 757 157 757 161 757 b 178 744 174 757 178 753 b 174 733 178 739 178 739 l -111 276 b -124 268 -114 272 -118 268 b -135 281 -129 268 -135 274 z "},"":{"ha":1028,"x_min":0,"x_max":0,"o":"m 299 486 b 299 490 299 488 299 489 b 300 539 299 506 299 524 l 332 860 b 335 882 335 868 335 874 b 246 971 335 931 296 971 b 158 899 204 971 167 942 l 135 764 l 111 550 l 111 494 b 207 401 111 443 160 401 b 239 406 218 401 229 406 b 232 392 239 401 233 394 l 97 207 b 26 89 68 174 26 138 b 117 0 26 39 68 0 b 243 89 174 0 214 47 l 526 479 b 568 538 539 499 556 517 l 781 833 b 800 886 792 849 800 867 b 713 975 800 933 761 975 b 633 933 681 975 654 957 l 549 831 z m 183 638 b 214 872 188 719 196 794 b 228 888 215 879 219 888 b 240 875 236 888 240 883 b 222 781 240 844 226 810 b 211 646 221 760 213 667 b 196 624 211 636 208 624 b 183 638 189 624 183 629 z m 490 649 b 499 656 490 653 493 656 b 506 649 503 656 506 653 b 497 643 506 643 501 643 b 490 649 492 643 490 643 z m 178 197 b 182 210 178 203 178 203 b 210 257 189 221 208 254 l 446 611 b 465 626 450 618 456 626 b 479 614 474 626 479 622 b 468 596 479 606 474 600 l 199 190 b 188 186 196 186 192 186 b 178 197 181 186 178 190 z m 814 553 b 747 418 804 532 757 439 b 729 390 742 408 736 399 b 729 400 729 392 729 399 b 747 501 729 436 747 467 b 657 594 747 551 707 594 b 542 375 560 594 542 447 b 706 142 542 279 590 142 b 779 163 732 142 756 150 l 782 163 b 781 104 782 143 781 124 b 875 1 781 49 818 1 b 969 96 929 1 967 43 l 982 354 l 997 479 l 997 526 b 903 607 997 572 944 607 b 814 553 864 607 835 585 z m 597 410 b 633 532 597 426 603 532 b 644 524 639 532 642 528 b 646 517 644 522 646 518 b 626 454 646 506 629 472 b 626 446 626 453 626 450 l 626 422 b 636 306 626 383 628 344 b 653 251 639 288 653 268 b 642 239 653 243 649 239 b 597 410 603 239 597 382 z m 885 479 b 899 496 886 486 889 496 b 908 490 901 496 908 493 l 908 474 b 871 153 889 367 876 260 b 858 144 868 149 864 144 b 844 174 844 144 844 164 b 844 183 844 175 844 182 l 861 353 z m 242 406 b 242 408 240 406 240 408 b 242 406 243 408 243 406 z "},"":{"ha":861,"x_min":0,"x_max":0,"o":"m 290 585 l 125 161 b 115 111 118 144 115 129 b 208 18 115 61 157 18 b 299 81 249 18 283 43 l 417 386 l 615 843 b 625 889 622 857 625 874 b 535 979 625 939 585 979 b 460 935 504 979 474 961 l 385 793 z m 29 550 l 29 458 b 126 367 29 407 78 367 b 218 457 175 367 215 407 l 242 854 b 151 976 242 915 226 976 b 64 896 107 976 71 939 l 44 772 z m 514 875 b 503 881 511 875 503 878 l 503 896 b 517 904 503 901 513 904 b 529 893 522 904 529 900 b 514 875 529 885 521 875 z m 214 247 b 329 558 238 351 282 463 l 475 849 b 490 858 476 854 485 858 b 503 847 499 858 503 856 b 496 829 503 839 501 836 l 333 499 l 268 335 b 244 264 267 331 250 281 b 226 222 243 257 242 222 b 214 239 217 222 214 232 b 214 247 214 240 214 246 z m 106 813 b 119 826 108 819 110 826 b 132 813 126 826 132 819 b 126 756 132 793 126 776 l 126 599 b 115 589 126 590 121 589 b 99 626 97 589 99 615 b 97 682 99 629 97 668 b 106 813 97 725 100 768 z m 465 417 b 551 326 465 368 501 326 b 576 329 560 326 568 329 b 542 283 574 317 547 289 b 492 233 535 276 500 242 b 392 97 451 194 392 160 b 492 0 392 40 438 0 b 697 10 561 0 628 11 b 788 108 747 19 788 56 b 740 189 788 143 769 171 b 721 199 735 193 724 193 b 836 467 775 272 836 372 b 701 600 836 544 778 600 b 465 417 611 600 465 518 z m 517 422 b 724 538 517 475 679 538 b 744 522 735 538 744 535 b 686 503 744 504 700 507 b 543 425 635 488 581 464 b 528 407 540 414 540 407 b 517 422 519 407 517 415 z "},"":{"ha":1135,"x_min":0,"x_max":0,"o":"m 33 810 b 129 719 33 757 76 719 l 129 718 b 111 660 118 699 111 681 b 203 561 111 606 151 569 b 28 451 144 524 28 571 b 136 353 28 392 81 353 b 425 596 275 353 425 446 b 392 696 425 632 415 668 b 419 731 396 710 411 719 b 463 853 444 768 463 807 b 300 990 463 943 383 990 b 33 810 206 990 33 924 z m 428 538 l 236 133 b 229 94 231 121 229 108 b 324 0 229 40 271 0 b 407 51 358 0 392 19 l 639 533 l 758 747 b 808 882 779 786 808 836 b 715 974 808 933 765 974 b 619 881 650 974 646 925 l 532 736 z m 110 843 b 310 911 110 886 285 911 b 378 892 322 911 378 917 b 364 881 378 882 371 881 b 321 882 349 881 335 882 b 136 840 260 882 188 872 b 122 828 136 835 129 828 b 110 843 114 828 110 835 z m 367 301 b 368 306 367 303 368 306 l 608 778 b 624 790 611 785 617 790 b 635 775 633 790 635 783 b 635 771 635 774 635 771 l 392 296 b 379 289 389 292 385 289 b 367 301 371 289 367 293 z m 674 568 b 643 394 656 508 643 456 b 813 161 643 289 688 161 b 913 190 849 161 881 174 l 914 182 b 1008 24 915 115 917 24 b 1106 124 1065 24 1106 69 b 1101 250 1106 175 1101 208 b 1100 363 1101 288 1100 325 b 1104 471 1100 399 1104 435 b 1008 569 1104 524 1063 569 b 921 519 971 569 940 551 b 832 374 910 496 853 392 b 832 381 832 375 832 378 l 832 399 b 832 404 832 401 832 403 b 850 543 832 451 850 496 b 760 635 850 592 810 635 b 674 568 718 635 686 606 z m 717 528 b 729 542 718 535 721 542 b 746 522 742 542 746 533 b 739 499 746 514 740 507 b 738 444 736 476 738 468 b 763 278 738 386 750 335 b 750 260 763 268 763 260 b 732 286 736 260 733 276 b 708 436 722 335 708 386 b 717 528 708 467 713 497 z "},"":{"ha":1524,"x_min":0,"x_max":0,"o":"m 183 93 b 276 -1 183 43 225 -1 b 360 47 310 -1 344 18 l 781 814 b 800 876 792 835 800 853 b 706 972 800 929 758 972 b 619 921 669 972 636 951 l 203 160 b 183 93 189 135 183 119 z m 24 658 b 207 431 24 551 86 431 b 419 701 344 431 419 582 b 235 928 419 808 356 928 b 24 658 99 928 24 778 z m 81 724 b 218 886 81 803 156 857 b 239 892 222 888 233 892 b 257 876 249 892 257 885 b 250 864 257 871 257 867 b 124 774 203 846 151 822 b 93 704 117 761 106 704 b 82 713 88 704 83 707 b 81 724 82 714 81 722 z m 278 869 b 288 881 278 875 281 881 b 297 869 293 881 297 875 b 288 858 297 863 294 858 b 278 869 279 858 278 863 z m 578 757 b 597 778 578 768 585 778 b 617 764 606 778 617 774 b 588 743 617 754 596 743 b 578 757 579 743 578 750 z m 214 713 b 249 738 218 713 231 738 b 276 706 267 738 276 722 b 210 604 276 678 238 604 b 153 681 186 604 153 657 b 185 725 153 699 163 725 b 214 713 196 725 203 713 z m 319 293 b 325 307 319 297 324 304 l 550 703 b 574 722 556 711 563 722 b 588 708 582 722 588 717 b 574 688 588 700 578 694 b 554 651 571 682 557 657 l 344 290 b 331 281 343 283 338 281 b 319 293 325 281 319 286 z m 843 518 b 806 525 831 518 818 525 b 618 222 675 525 618 325 b 833 -24 618 94 696 -24 b 1083 150 946 -24 1033 54 l 1085 150 b 1263 -17 1106 64 1168 -17 b 1499 253 1399 -17 1499 126 b 1264 483 1499 403 1392 451 b 1250 500 1257 485 1254 496 b 1122 547 1215 538 1172 547 b 908 533 1051 547 979 542 b 843 518 888 532 863 518 z m 829 438 b 846 457 829 447 835 457 b 857 446 853 457 857 451 b 842 422 857 436 853 422 b 829 438 832 422 829 431 z m 694 294 b 793 442 694 360 744 407 b 803 446 797 444 799 446 b 817 433 810 446 817 440 b 729 333 817 413 743 371 b 707 272 724 321 725 272 b 694 294 696 272 694 286 z m 821 286 b 863 319 826 286 842 319 b 893 278 885 319 893 296 b 838 192 893 250 871 192 b 768 254 807 192 768 222 b 800 292 768 272 781 292 b 821 286 807 292 814 286 z m 1268 263 b 1299 282 1275 272 1285 282 b 1328 244 1318 282 1328 263 b 1286 165 1328 225 1314 165 b 1279 167 1283 165 1279 167 b 1214 257 1233 188 1214 204 b 1239 275 1218 269 1226 275 b 1268 263 1250 275 1258 268 z "},"":{"ha":842,"x_min":0,"x_max":0,"o":"m 24 590 b 322 326 24 426 178 346 l 325 324 l 338 129 b 433 46 342 81 388 46 b 528 157 499 46 528 99 l 501 678 b 464 778 499 718 489 747 b 469 779 465 781 468 779 b 603 606 567 779 592 686 b 629 81 625 431 615 256 b 718 0 638 36 671 0 b 807 86 767 0 803 40 b 813 313 810 161 813 238 b 469 971 813 558 813 971 b 24 590 272 971 24 806 z m 510 914 b 521 928 510 921 513 928 b 532 914 529 928 532 921 b 521 904 532 907 528 904 b 510 914 514 904 510 907 z m 121 672 b 444 918 121 763 360 918 b 458 907 453 918 458 915 b 376 869 458 885 394 878 b 185 732 303 839 239 790 b 133 657 174 719 144 657 b 121 672 125 657 121 664 z m 642 699 b 656 713 642 706 650 713 b 669 699 664 713 669 706 b 658 683 669 690 667 683 b 642 699 650 683 642 690 z m 239 626 b 297 676 244 626 267 676 b 331 638 317 676 331 657 b 239 536 331 589 289 536 b 171 597 201 536 171 558 b 210 636 171 619 189 636 b 239 626 221 636 231 626 z m 660 647 b 693 431 690 647 693 463 b 689 314 693 392 690 353 b 674 303 688 306 681 303 b 661 313 668 303 663 307 b 661 325 661 314 661 324 b 664 433 661 361 664 397 b 649 631 664 500 657 564 b 660 647 649 639 649 647 z m 381 311 b 393 322 381 317 386 322 b 406 308 401 322 403 315 b 408 190 404 269 404 229 b 421 131 411 171 421 150 b 408 119 421 124 415 119 b 378 254 376 119 378 242 b 381 311 378 275 379 285 z "},"":{"ha":561,"x_min":0,"x_max":0,"o":"m 160 817 b 185 719 160 782 169 751 b 125 658 185 717 132 667 b 57 479 82 606 57 549 b 185 271 57 393 113 315 l 282 210 b 308 185 290 204 304 189 b 310 181 308 183 310 181 b 154 42 310 132 154 144 b 251 -50 154 -12 200 -50 b 354 -14 288 -50 324 -31 b 492 181 428 26 492 90 b 418 332 492 240 461 290 b 508 513 471 382 508 436 b 417 718 508 590 467 660 b 339 824 399 736 339 797 b 403 932 339 865 403 869 b 317 1015 403 979 364 1015 b 160 817 222 1015 160 901 z m 208 836 b 254 933 208 857 221 933 b 267 921 261 933 267 928 b 265 915 267 921 265 917 b 235 833 242 890 235 868 b 265 719 235 793 247 756 b 313 650 275 700 313 667 b 301 640 313 643 308 640 b 294 642 299 640 297 640 b 208 836 242 692 208 763 z m 111 474 b 186 622 111 522 151 590 b 218 644 196 631 204 644 b 229 632 225 644 229 639 b 228 625 229 631 228 626 b 135 461 178 576 144 532 b 124 454 133 457 128 454 b 111 474 114 454 111 465 z m 236 486 b 290 581 236 519 267 558 b 328 513 307 581 328 525 b 326 501 328 511 326 503 b 258 443 314 471 283 461 b 236 486 246 454 236 469 z "},"":{"ha":714,"x_min":0,"x_max":0,"o":"m 260 903 b 251 761 258 882 253 783 b 249 742 251 756 250 742 l 113 725 b 29 631 64 719 29 676 b 122 536 29 576 71 536 b 242 540 163 536 201 540 b 251 540 244 540 251 540 l 253 524 b 257 274 254 519 257 344 b 257 93 257 247 257 121 b 358 0 264 39 304 0 b 457 88 407 0 453 38 b 461 186 457 101 460 171 l 461 204 b 457 546 461 318 457 432 l 583 546 b 685 647 636 546 685 596 b 586 747 685 697 639 747 l 453 747 b 449 876 453 767 450 857 b 351 982 446 932 410 982 b 260 903 306 982 268 947 z m 300 824 b 333 911 300 844 300 911 b 350 897 343 911 350 906 b 329 854 350 878 329 890 l 329 788 b 317 778 329 779 322 778 b 300 824 297 778 300 814 z m 86 651 b 203 710 86 701 168 710 l 221 710 b 238 693 229 707 238 703 b 231 681 238 688 238 683 b 128 667 199 683 158 683 b 99 636 115 660 113 636 b 86 651 88 636 86 643 z "},"":{"ha":718,"x_min":0,"x_max":0,"o":"m 110 750 b 24 657 63 743 24 706 b 122 565 24 601 69 565 b 238 575 161 565 199 575 b 244 575 239 575 243 575 b 247 376 246 508 247 443 l 117 364 b 28 269 67 360 28 321 b 126 178 28 215 74 178 b 150 179 135 178 143 178 l 254 179 b 256 163 254 179 256 167 b 356 0 260 92 260 0 b 453 106 414 0 453 50 b 450 188 453 132 450 158 l 581 192 b 676 289 633 193 676 239 b 585 383 676 338 635 383 l 446 383 l 444 386 b 440 563 443 388 440 533 b 440 589 440 571 440 589 l 593 599 b 692 699 647 601 692 643 b 578 792 692 764 633 792 b 456 788 536 792 496 788 l 439 788 l 435 890 b 346 972 433 936 389 972 b 254 886 299 972 257 933 l 246 772 z m 307 789 b 293 804 300 789 293 797 l 293 850 b 358 914 293 883 326 914 b 375 901 369 914 375 911 b 322 857 375 883 332 885 b 318 797 315 840 317 814 b 307 789 317 792 313 789 z m 86 654 b 208 724 86 713 167 724 l 225 722 b 236 710 232 722 236 717 b 222 696 236 700 231 697 b 182 693 217 696 188 694 b 114 657 163 693 114 685 b 119 642 114 651 119 649 b 106 629 119 633 113 629 b 86 654 93 629 86 643 z "},"~":{"ha":410,"x_min":0,"x_max":0,"o":"m 39 781 b 101 715 39 746 65 715 b 154 740 124 715 139 724 b 181 724 164 736 171 729 b 263 700 206 711 233 700 b 365 800 317 700 365 744 b 303 868 365 835 339 868 b 246 844 279 868 263 858 b 156 878 218 864 190 878 b 39 781 103 878 39 839 z m 78 801 b 168 857 78 838 140 857 b 201 842 178 857 201 856 b 193 833 201 836 197 833 b 181 836 188 833 185 833 b 110 817 156 836 129 835 b 88 790 101 811 97 790 b 78 801 81 790 78 796 z m 254 753 b 288 760 267 753 276 753 b 311 779 296 764 301 779 b 321 769 317 779 321 776 b 253 732 321 742 272 732 b 197 753 242 732 197 738 b 207 764 197 760 201 764 b 254 753 217 764 235 753 z "},"":{"ha":353,"x_min":0,"x_max":0,"o":"m 157 525 b 56 356 106 475 56 432 b 211 158 56 283 133 158 b 296 244 258 158 296 199 b 229 357 296 296 229 331 b 231 363 229 360 229 360 b 296 468 256 399 296 421 b 214 547 296 513 258 547 b 157 525 192 547 174 539 z m 101 374 b 224 500 101 408 188 500 b 236 489 231 500 236 497 b 199 458 236 475 208 467 b 151 414 179 443 172 435 b 117 357 140 401 125 357 b 101 374 107 357 101 365 z "},"":{"ha":356,"x_min":0,"x_max":0,"o":"m 194 525 b 138 547 178 539 158 547 b 56 468 93 547 56 513 b 121 363 56 421 96 399 b 122 357 122 360 122 360 b 56 244 122 331 56 296 b 139 158 56 199 92 158 b 296 356 218 158 296 283 b 194 525 296 432 246 475 z m 250 374 b 235 357 250 365 244 357 b 200 414 226 357 211 401 b 153 458 179 435 172 443 b 115 489 143 467 115 475 b 128 500 115 497 121 500 b 250 374 164 500 250 408 z "},"":{"ha":594,"x_min":0,"x_max":0,"o":"m 157 525 b 56 356 106 475 56 432 b 211 158 56 283 133 158 b 296 244 258 158 296 199 b 229 357 296 296 229 331 b 231 363 229 360 229 360 b 296 468 256 399 296 421 b 214 547 296 513 258 547 b 157 525 192 547 174 539 z m 381 525 b 279 356 329 475 279 432 b 435 158 279 283 357 158 b 519 244 482 158 519 199 b 453 357 519 296 453 331 b 454 363 453 360 453 360 b 519 468 479 399 519 421 b 438 547 519 513 482 547 b 381 525 415 547 397 539 z m 101 374 b 224 500 101 408 188 500 b 236 489 231 500 236 497 b 199 458 236 475 208 467 b 151 414 179 443 172 435 b 117 357 140 401 125 357 b 101 374 107 357 101 365 z m 325 374 b 447 500 325 408 411 500 b 460 489 454 500 460 497 b 422 458 460 475 432 467 b 375 414 403 443 396 435 b 340 357 364 401 349 357 b 325 374 331 357 325 365 z "},"":{"ha":582,"x_min":0,"x_max":0,"o":"m 418 525 b 361 547 401 539 382 547 b 279 468 317 547 279 513 b 344 363 279 421 319 399 b 346 357 346 360 346 360 b 279 244 346 331 279 296 b 363 158 279 199 317 158 b 519 356 442 158 519 283 b 418 525 519 432 469 475 z m 194 525 b 138 547 178 539 158 547 b 56 468 93 547 56 513 b 121 363 56 421 96 399 b 122 357 122 360 122 360 b 56 244 122 331 56 296 b 139 158 56 199 92 158 b 296 356 218 158 296 283 b 194 525 296 432 246 475 z m 474 374 b 458 357 474 365 468 357 b 424 414 450 357 435 401 b 376 458 403 435 396 443 b 339 489 367 467 339 475 b 351 500 339 497 344 500 b 474 374 388 500 474 408 z m 250 374 b 235 357 250 365 244 357 b 200 414 226 357 211 401 b 153 458 179 435 172 443 b 115 489 143 467 115 475 b 128 500 115 497 121 500 b 250 374 164 500 250 408 z "},"":{"ha":481,"x_min":0,"x_max":0,"o":"m 229 894 b 221 896 228 896 222 896 b 136 946 196 921 174 944 b 57 869 93 947 57 913 b 103 781 57 833 79 808 b 236 719 138 740 185 722 b 425 869 318 717 425 779 b 339 956 425 915 383 954 b 229 894 275 958 265 894 z m 124 875 b 136 886 124 882 129 888 b 160 868 146 886 153 874 b 215 850 176 856 196 851 b 267 861 233 850 251 851 b 299 881 276 865 288 881 b 311 868 306 881 311 874 b 215 824 311 839 239 824 b 124 875 193 825 124 846 z "},"":{"ha":185,"x_min":0,"x_max":0,"o":"m 25 833 b 92 767 25 796 56 767 b 161 833 128 767 161 796 b 93 899 161 871 129 899 b 25 833 57 899 25 871 z "},"":{"ha":417,"x_min":0,"x_max":0,"o":"m 46 879 b 207 706 46 789 111 706 b 381 894 308 706 381 797 b 219 1039 381 983 304 1039 b 156 1031 196 1039 179 1033 b 128 1029 153 1031 131 1029 b 46 879 64 1019 46 932 z m 218 924 b 257 956 233 935 233 956 b 299 907 285 956 299 931 b 233 813 299 874 274 813 b 129 899 185 813 129 846 b 174 939 129 924 150 939 b 218 924 192 939 201 933 z "},"":{"ha":513,"x_min":0,"x_max":0,"o":"m 114 864 b 71 781 94 839 71 814 b 142 710 71 742 104 710 b 264 897 218 710 264 835 b 196 967 264 936 235 967 b 114 864 129 967 139 904 z m 297 864 b 254 781 278 839 254 814 b 325 710 254 742 288 710 b 447 897 401 710 447 835 b 379 967 447 936 418 967 b 297 864 313 967 322 904 z m 110 797 b 126 814 110 806 121 808 b 182 910 140 829 174 910 b 192 906 186 910 189 910 b 192 900 192 904 192 900 b 119 788 192 875 147 788 b 110 797 114 788 110 790 z m 293 797 b 310 814 293 806 304 808 b 365 910 324 829 357 910 b 375 906 369 910 372 910 b 375 900 375 904 375 900 b 303 788 375 875 331 788 b 293 797 297 788 293 790 z "},"":{"ha":340,"x_min":0,"x_max":0,"o":"m 15 -117 b 161 -269 15 -197 78 -269 b 313 -157 225 -269 313 -229 b 238 -79 313 -114 281 -79 b 179 -101 214 -79 197 -89 l 178 -101 b 215 6 178 -60 215 -35 b 142 81 215 47 183 81 b 15 -117 60 81 15 -51 z m 61 -99 b 114 15 61 -76 88 15 b 125 6 121 15 125 13 b 108 -21 125 -4 113 -12 b 88 -97 94 -47 88 -68 b 97 -143 88 -118 97 -132 b 86 -154 97 -150 93 -154 b 61 -99 65 -154 61 -112 z "},"":{"ha":494,"x_min":0,"x_max":0,"o":"m 240 903 b 149 961 222 904 196 956 b 56 889 103 967 61 936 b 122 778 50 842 94 808 b 226 715 151 747 185 721 b 390 803 296 707 346 758 b 432 872 410 822 429 843 b 358 968 439 919 407 963 b 244 906 307 975 281 939 b 240 903 243 904 240 903 z m 228 788 b 289 822 256 783 272 825 b 300 810 297 821 300 818 b 231 761 296 783 256 757 b 160 821 207 764 156 792 b 172 832 161 828 164 832 b 228 788 183 831 196 792 z "},"":{"ha":358,"x_min":0,"x_max":0,"o":"m 78 89 b 179 -22 78 29 114 -22 b 279 67 228 -22 278 15 l 299 589 b 197 699 299 649 254 699 b 94 597 142 699 96 653 l 78 110 b 78 89 78 108 78 94 z m 121 288 b 193 632 121 332 122 632 b 221 613 206 632 221 626 b 208 599 221 606 215 599 b 194 601 203 599 200 601 b 169 533 185 601 171 540 b 151 286 154 453 151 368 b 156 136 151 236 156 186 b 156 122 156 133 156 124 b 140 114 153 115 147 114 b 126 128 132 114 129 121 b 121 288 124 181 121 235 z m 232 611 b 247 624 232 618 239 624 b 261 611 254 624 261 619 b 246 597 261 603 256 597 b 232 611 238 597 232 603 z "},"`":{"ha":332,"x_min":0,"x_max":0,"o":"m 221 864 b 139 967 196 904 206 967 b 71 897 100 967 71 936 b 193 710 71 835 117 710 b 264 781 231 710 264 742 b 221 864 264 814 240 839 z m 225 797 b 215 788 225 790 221 788 b 143 900 188 788 143 875 b 143 906 143 900 143 904 b 153 910 146 910 149 910 b 208 814 161 910 194 829 b 225 797 214 808 225 806 z "},"":{"ha":469,"x_min":0,"x_max":0,"o":"m 240 794 b 331 736 257 793 285 742 b 425 808 378 731 418 761 b 357 919 431 856 386 889 b 253 982 329 950 296 976 b 90 894 185 990 135 939 b 47 825 69 875 51 853 b 121 728 42 776 74 735 b 236 792 174 722 200 757 b 240 794 236 793 239 794 z m 253 910 b 192 875 224 913 207 872 b 181 888 183 875 179 879 b 250 936 183 914 224 939 b 321 876 274 933 324 906 b 308 865 319 869 317 864 b 253 910 296 867 285 906 z "},"":{"ha":363,"x_min":0,"x_max":0,"o":"m 25 833 b 92 767 25 796 56 767 b 161 833 128 767 161 796 b 93 899 161 871 129 899 b 25 833 57 899 25 871 z m 179 833 b 246 767 179 796 210 767 b 315 833 282 767 315 796 b 247 899 315 871 283 899 b 179 833 211 899 179 871 z "},"":{"ha":332,"x_min":0,"x_max":0,"o":"m 114 864 b 71 781 94 839 71 814 b 142 710 71 742 104 710 b 264 897 218 710 264 835 b 196 967 264 936 235 967 b 114 864 129 967 139 904 z m 110 797 b 126 814 110 806 121 808 b 182 910 140 829 174 910 b 192 906 186 910 189 910 b 192 900 192 904 192 900 b 119 788 192 875 147 788 b 110 797 114 788 110 790 z "},"":{"ha":313,"x_min":0,"x_max":0,"o":"m 313 -117 b 188 81 313 -51 268 81 b 113 6 146 81 113 47 b 151 -101 113 -35 151 -60 l 150 -101 b 92 -79 132 -89 115 -79 b 15 -157 47 -79 15 -114 b 167 -269 15 -229 104 -269 b 313 -117 250 -269 313 -197 z m 267 -99 b 243 -154 267 -112 263 -154 b 232 -143 236 -154 232 -150 b 242 -97 232 -132 242 -118 b 221 -21 242 -68 233 -47 b 204 6 215 -12 204 -4 b 214 15 204 13 207 15 b 267 -99 242 15 267 -76 z "},",":{"ha":321,"x_min":0,"x_max":0,"o":"m 14 -71 b 107 -160 14 -124 57 -160 b 240 -35 176 -160 210 -89 b 271 49 256 -8 271 18 b 183 136 271 99 233 136 b 53 14 114 136 88 64 b 14 -71 32 -14 14 -36 z "},"":{"ha":774,"x_min":0,"x_max":0,"o":"m 440 1142 b 358 1244 415 1182 425 1244 b 290 1175 319 1244 290 1214 b 413 988 290 1113 336 988 b 483 1058 450 988 483 1019 b 440 1142 483 1092 460 1117 z m 444 1075 b 435 1065 444 1068 440 1065 b 363 1178 407 1065 363 1153 b 363 1183 363 1178 363 1182 b 372 1188 365 1188 368 1188 b 428 1092 381 1188 414 1107 b 444 1075 433 1086 444 1083 z m 65 463 b 233 1 51 335 43 21 b 431 182 338 -11 421 85 b 383 336 438 239 418 290 l 386 338 l 531 344 l 515 85 b 594 0 513 40 553 4 b 685 67 638 -4 675 25 b 692 135 686 76 692 125 b 704 251 693 143 703 243 b 717 422 707 276 715 396 b 456 971 724 601 696 946 b 65 463 196 999 86 658 z m 117 488 b 267 833 131 611 182 740 b 303 861 274 842 289 863 b 313 847 310 860 314 856 b 272 800 311 829 282 814 b 144 485 201 714 156 594 b 143 388 140 453 146 419 b 131 375 142 381 140 375 b 114 457 110 378 113 443 b 117 488 114 458 117 479 z m 408 703 b 482 771 421 706 426 776 b 525 681 524 767 529 714 b 419 535 521 639 469 529 b 319 692 372 540 315 649 b 363 735 322 715 336 738 b 408 703 382 733 396 717 z m 125 322 b 139 342 126 331 128 343 b 149 333 143 342 147 336 b 154 272 147 314 157 290 b 142 263 154 267 149 261 b 125 322 122 264 124 310 z m 207 290 b 224 300 208 300 215 301 b 319 160 290 293 326 219 b 318 144 319 157 318 146 b 282 121 311 126 301 118 b 207 290 217 128 201 240 z "},"":{"ha":774,"x_min":0,"x_max":0,"o":"m 333 1142 b 290 1058 314 1117 290 1092 b 361 988 290 1019 324 988 b 483 1175 438 988 483 1113 b 415 1244 483 1214 454 1244 b 333 1142 349 1244 358 1182 z m 329 1075 b 346 1092 329 1083 340 1086 b 401 1188 360 1107 393 1188 b 411 1183 406 1188 408 1188 b 411 1178 411 1182 411 1178 b 339 1065 411 1153 367 1065 b 329 1075 333 1065 329 1068 z m 65 463 b 233 1 51 335 43 21 b 431 182 338 -11 421 85 b 383 336 438 239 418 290 l 386 338 l 531 344 l 515 85 b 594 0 513 40 553 4 b 685 67 638 -4 675 25 b 692 135 686 76 692 125 b 704 251 693 143 703 243 b 717 422 707 276 715 396 b 456 971 724 601 696 946 b 65 463 196 999 86 658 z m 117 488 b 267 833 131 611 182 740 b 303 861 274 842 289 863 b 313 847 310 860 314 856 b 272 800 311 829 282 814 b 144 485 201 714 156 594 b 143 388 140 453 146 419 b 131 375 142 381 140 375 b 114 457 110 378 113 443 b 117 488 114 458 117 479 z m 408 703 b 482 771 421 706 426 776 b 525 681 524 767 529 714 b 419 535 521 639 469 529 b 319 692 372 540 315 649 b 363 735 322 715 336 738 b 408 703 382 733 396 717 z m 125 322 b 139 342 126 331 128 343 b 149 333 143 342 147 336 b 154 272 147 314 157 290 b 142 263 154 267 149 261 b 125 322 122 264 124 310 z m 207 290 b 224 300 208 300 215 301 b 319 160 290 293 326 219 b 318 144 319 157 318 146 b 282 121 311 126 301 118 b 207 290 217 128 201 240 z "},"":{"ha":774,"x_min":0,"x_max":0,"o":"m 390 1072 b 482 1014 408 1071 435 1019 b 575 1086 528 1008 569 1039 b 508 1197 582 1133 536 1167 b 404 1260 479 1228 446 1254 b 240 1172 335 1268 286 1217 b 199 1103 221 1153 201 1131 b 272 1006 193 1054 224 1013 b 386 1069 325 1000 351 1035 b 390 1072 388 1071 390 1072 z m 404 1188 b 342 1153 375 1190 358 1150 b 332 1165 333 1153 331 1157 b 401 1214 335 1192 375 1217 b 471 1154 425 1211 475 1183 b 460 1143 471 1147 467 1142 b 404 1188 447 1144 435 1183 z m 65 463 b 233 1 51 335 43 21 b 431 182 338 -11 421 85 b 383 336 438 239 418 290 l 386 338 l 531 344 l 515 85 b 594 0 513 40 553 4 b 685 67 638 -4 675 25 b 692 135 686 76 692 125 b 704 251 693 143 703 243 b 717 422 707 276 715 396 b 456 971 724 601 696 946 b 65 463 196 999 86 658 z m 117 488 b 267 833 131 611 182 740 b 303 861 274 842 289 863 b 313 847 310 860 314 856 b 272 800 311 829 282 814 b 144 485 201 714 156 594 b 143 388 140 453 146 419 b 131 375 142 381 140 375 b 114 457 110 378 113 443 b 117 488 114 458 117 479 z m 408 703 b 482 771 421 706 426 776 b 525 681 524 767 529 714 b 419 535 521 639 469 529 b 319 692 372 540 315 649 b 363 735 322 715 336 738 b 408 703 382 733 396 717 z m 125 322 b 139 342 126 331 128 343 b 149 333 143 342 147 336 b 154 272 147 314 157 290 b 142 263 154 267 149 261 b 125 322 122 264 124 310 z m 207 290 b 224 300 208 300 215 301 b 319 160 290 293 326 219 b 318 144 319 157 318 146 b 282 121 311 126 301 118 b 207 290 217 128 201 240 z "},"":{"ha":774,"x_min":0,"x_max":0,"o":"m 497 1175 b 433 1142 471 1176 449 1163 b 349 1176 404 1157 381 1174 b 217 1069 293 1179 221 1125 b 274 1000 215 1035 239 1003 b 342 1042 314 999 339 1042 b 414 1004 350 1042 390 1010 b 432 1003 417 1004 429 1003 b 557 1104 493 999 553 1039 b 497 1175 558 1140 533 1172 z m 253 1072 b 360 1146 256 1117 321 1149 b 371 1146 361 1146 369 1146 b 381 1133 378 1143 381 1140 b 374 1126 379 1131 378 1128 b 299 1107 347 1129 321 1125 b 261 1063 290 1101 265 1061 b 253 1072 256 1063 253 1068 z m 386 1128 b 396 1136 386 1133 390 1136 b 403 1128 400 1136 404 1132 b 393 1119 403 1121 399 1119 b 386 1128 389 1121 386 1124 z m 526 1121 b 535 1129 528 1126 529 1129 b 542 1121 540 1128 542 1125 b 533 1113 542 1115 539 1113 b 526 1121 529 1113 526 1117 z m 433 1040 b 501 1063 458 1039 482 1047 b 528 1094 510 1068 515 1096 b 536 1083 533 1094 536 1089 b 432 1021 533 1040 468 1019 b 394 1039 422 1022 393 1025 b 404 1049 394 1044 399 1049 b 433 1040 414 1047 424 1042 z m 65 463 b 233 1 51 335 43 21 b 431 182 338 -11 421 85 b 383 336 438 239 418 290 l 386 338 l 531 344 l 515 85 b 594 0 513 40 553 4 b 685 67 638 -4 675 25 b 692 135 686 76 692 125 b 704 251 693 143 703 243 b 717 422 707 276 715 396 b 456 971 724 601 696 946 b 65 463 196 999 86 658 z m 117 488 b 267 833 131 611 182 740 b 303 861 274 842 289 863 b 313 847 310 860 314 856 b 272 800 311 829 282 814 b 144 485 201 714 156 594 b 143 388 140 453 146 419 b 131 375 142 381 140 375 b 114 457 110 378 113 443 b 117 488 114 458 117 479 z m 408 703 b 482 771 421 706 426 776 b 525 681 524 767 529 714 b 419 535 521 639 469 529 b 319 692 372 540 315 649 b 363 735 322 715 336 738 b 408 703 382 733 396 717 z m 125 322 b 139 342 126 331 128 343 b 149 333 143 342 147 336 b 154 272 147 314 157 290 b 142 263 154 267 149 261 b 125 322 122 264 124 310 z m 207 290 b 224 300 208 300 215 301 b 319 160 290 293 326 219 b 318 144 319 157 318 146 b 282 121 311 126 301 118 b 207 290 217 128 201 240 z "},"":{"ha":774,"x_min":0,"x_max":0,"o":"m 242 1111 b 308 1044 242 1074 272 1044 b 378 1111 344 1044 378 1074 b 310 1176 378 1149 346 1176 b 242 1111 274 1176 242 1149 z m 396 1111 b 463 1044 396 1074 426 1044 b 532 1111 499 1044 532 1074 b 464 1176 532 1149 500 1176 b 396 1111 428 1176 396 1149 z m 65 463 b 233 1 51 335 43 21 b 431 182 338 -11 421 85 b 383 336 438 239 418 290 l 386 338 l 531 344 l 515 85 b 594 0 513 40 553 4 b 685 67 638 -4 675 25 b 692 135 686 76 692 125 b 704 251 693 143 703 243 b 717 422 707 276 715 396 b 456 971 724 601 696 946 b 65 463 196 999 86 658 z m 117 488 b 267 833 131 611 182 740 b 303 861 274 842 289 863 b 313 847 310 860 314 856 b 272 800 311 829 282 814 b 144 485 201 714 156 594 b 143 388 140 453 146 419 b 131 375 142 381 140 375 b 114 457 110 378 113 443 b 117 488 114 458 117 479 z m 408 703 b 482 771 421 706 426 776 b 525 681 524 767 529 714 b 419 535 521 639 469 529 b 319 692 372 540 315 649 b 363 735 322 715 336 738 b 408 703 382 733 396 717 z m 125 322 b 139 342 126 331 128 343 b 149 333 143 342 147 336 b 154 272 147 314 157 290 b 142 263 154 267 149 261 b 125 322 122 264 124 310 z m 207 290 b 224 300 208 300 215 301 b 319 160 290 293 326 219 b 318 144 319 157 318 146 b 282 121 311 126 301 118 b 207 290 217 128 201 240 z "},"":{"ha":774,"x_min":0,"x_max":0,"o":"m 219 1157 b 381 983 219 1067 286 983 b 554 1172 482 983 554 1075 b 393 1317 554 1261 478 1317 b 331 1308 369 1317 353 1311 b 301 1307 328 1308 304 1307 b 219 1157 238 1297 219 1210 z m 392 1201 b 431 1233 408 1213 407 1233 b 472 1185 458 1233 472 1208 b 407 1090 472 1151 447 1090 b 304 1176 358 1090 304 1124 b 347 1217 304 1201 324 1217 b 392 1201 365 1217 375 1211 z m 65 463 b 233 1 51 335 43 21 b 431 182 338 -11 421 85 b 383 336 438 239 418 290 l 386 338 l 531 344 l 515 85 b 594 0 513 40 553 4 b 685 67 638 -4 675 25 b 692 135 686 76 692 125 b 704 251 693 143 703 243 b 717 422 707 276 715 396 b 456 971 724 601 696 946 b 65 463 196 999 86 658 z m 117 488 b 267 833 131 611 182 740 b 303 861 274 842 289 863 b 313 847 310 860 314 856 b 272 800 311 829 282 814 b 144 485 201 714 156 594 b 143 388 140 453 146 419 b 131 375 142 381 140 375 b 114 457 110 378 113 443 b 117 488 114 458 117 479 z m 408 703 b 482 771 421 706 426 776 b 525 681 524 767 529 714 b 419 535 521 639 469 529 b 319 692 372 540 315 649 b 363 735 322 715 336 738 b 408 703 382 733 396 717 z m 125 322 b 139 342 126 331 128 343 b 149 333 143 342 147 336 b 154 272 147 314 157 290 b 142 263 154 267 149 261 b 125 322 122 264 124 310 z m 207 290 b 224 300 208 300 215 301 b 319 160 290 293 326 219 b 318 144 319 157 318 146 b 282 121 311 126 301 118 b 207 290 217 128 201 240 z "},"":{"ha":1224,"x_min":0,"x_max":0,"o":"m 65 463 b 233 1 51 335 43 21 b 431 182 338 -11 421 85 b 383 336 438 239 418 290 l 386 338 l 531 344 l 515 85 b 594 0 513 40 553 4 b 685 67 638 -4 675 25 b 686 83 685 69 686 76 b 881 0 735 32 801 0 b 1185 139 1001 0 1100 60 b 1257 256 1218 169 1257 208 b 1167 349 1257 307 1219 349 b 1079 293 1124 349 1107 324 b 883 183 1031 238 961 183 b 796 278 828 183 796 225 b 1043 544 796 417 935 490 b 1089 625 1071 563 1089 590 b 917 725 1089 746 917 707 b 999 792 917 758 969 792 b 1081 740 1003 792 1035 740 b 1167 829 1129 740 1167 779 b 990 972 1167 919 1071 972 b 733 726 863 972 733 857 b 750 644 733 697 738 671 b 778 600 754 635 778 606 b 726 551 778 593 732 558 b 715 539 722 547 719 543 b 456 971 706 721 650 950 b 65 463 196 999 86 658 z m 1017 911 b 1028 921 1017 918 1021 921 b 1039 911 1035 921 1039 918 b 1029 899 1039 906 1038 899 b 1017 911 1022 899 1017 904 z m 782 740 b 960 919 782 810 885 919 b 971 919 961 919 969 919 b 981 906 978 917 981 913 b 974 896 981 900 979 899 b 807 732 883 886 832 814 b 796 726 804 726 800 726 b 782 740 788 726 782 732 z m 117 488 b 267 833 131 611 182 740 b 303 861 274 842 289 863 b 313 847 310 860 314 856 b 272 800 311 829 282 814 b 144 485 201 714 156 594 b 143 388 140 453 146 419 b 131 375 142 381 140 375 b 114 457 110 378 113 443 b 117 488 114 458 117 479 z m 408 703 b 482 771 421 706 426 776 b 525 681 524 767 529 714 b 419 535 521 639 469 529 b 319 692 372 540 315 649 b 363 735 322 715 336 738 b 408 703 382 733 396 717 z m 717 414 b 717 422 717 417 717 419 b 718 474 717 438 718 456 b 938 611 772 551 857 614 b 947 600 946 610 947 607 b 940 588 947 594 946 590 b 717 414 839 581 760 501 z m 125 322 b 139 342 126 331 128 343 b 149 333 143 342 147 336 b 154 272 147 314 157 290 b 142 263 154 267 149 261 b 125 322 122 264 124 310 z m 207 290 b 224 300 208 300 215 301 b 319 160 290 293 326 219 b 318 144 319 157 318 146 b 282 121 311 126 301 118 b 207 290 217 128 201 240 z "},"":{"ha":682,"x_min":0,"x_max":0,"o":"m 36 408 b 290 6 36 242 118 43 b 328 -101 290 -35 328 -60 l 326 -101 b 268 -79 308 -89 292 -79 b 192 -157 225 -79 192 -114 b 343 -269 192 -229 281 -269 b 490 -117 426 -269 490 -197 b 451 18 490 -81 476 -25 b 636 203 515 42 636 124 b 542 297 636 254 593 297 b 347 192 460 297 431 192 b 228 413 251 192 228 343 b 354 747 228 531 267 665 b 413 782 369 761 393 782 b 429 771 419 782 426 775 b 557 569 483 708 440 569 b 649 679 618 569 649 625 b 415 974 649 814 567 974 b 36 408 160 974 36 614 z m 358 892 b 396 917 358 907 382 917 b 411 904 403 917 411 913 b 369 879 411 894 378 879 b 358 892 361 879 358 885 z m 90 442 b 268 842 90 593 157 739 b 326 881 278 850 310 881 b 339 868 335 881 339 876 b 279 815 339 847 294 829 b 117 440 176 719 117 582 b 119 393 117 425 119 408 b 106 379 119 385 114 379 b 90 401 93 379 90 390 b 90 442 90 407 90 435 z m 443 -99 b 419 -154 443 -112 440 -154 b 408 -143 413 -154 408 -150 b 418 -97 408 -132 418 -118 b 397 -21 418 -68 411 -47 b 382 1 393 -14 383 -7 b 407 6 390 3 399 4 b 443 -99 428 -18 443 -81 z "},"":{"ha":764,"x_min":0,"x_max":0,"o":"m 232 854 b 143 946 224 903 196 946 b 56 864 94 946 61 910 b 51 711 51 803 51 768 b 51 664 51 699 51 667 l 56 568 b -18 488 17 563 -14 526 b 64 390 -22 436 13 394 b 65 390 64 390 64 390 l 96 138 b 125 75 99 111 111 97 b 228 0 151 26 167 0 b 382 53 282 0 336 28 b 719 596 594 169 719 349 b 446 975 719 757 633 975 b 258 883 369 975 308 938 b 238 858 257 882 239 861 b 232 854 236 857 233 856 z m 242 735 b 257 776 242 749 251 764 b 457 933 293 853 365 933 b 524 907 471 933 524 929 b 511 894 524 900 518 894 b 458 907 493 894 478 907 b 288 781 382 907 321 842 b 265 728 279 764 276 742 b 256 722 263 724 260 722 b 242 735 249 722 242 728 z m 536 889 b 549 900 536 894 542 900 b 583 874 561 900 576 881 b 585 865 585 869 585 868 b 574 854 585 858 581 854 b 536 889 564 854 536 876 z m 92 649 b 92 693 92 660 92 690 b 156 871 92 728 94 871 b 181 856 165 871 181 868 b 169 843 181 850 176 843 b 156 846 164 843 160 846 b 118 650 118 846 118 674 b 122 569 118 624 119 596 l 94 569 b 92 649 93 596 92 621 z m 407 599 b 454 633 418 618 432 633 b 511 560 494 633 511 593 b 489 458 511 538 504 496 b 492 474 490 464 492 468 b 400 571 497 531 451 565 b 382 572 396 571 383 572 l 308 571 b 365 619 317 597 336 619 b 407 599 381 619 396 611 z m 306 513 b 301 536 303 521 301 529 b 313 524 308 535 314 531 b 306 513 313 518 310 514 z m 329 522 b 346 535 331 529 339 536 b 357 522 351 535 357 529 b 342 510 356 514 350 510 b 329 522 335 511 329 517 z m 99 490 b 97 524 99 499 97 510 b 125 531 106 526 115 529 b 126 499 125 519 125 510 b 99 490 117 496 107 493 z m 39 463 b 60 503 40 479 49 492 l 64 421 b 63 421 63 421 63 421 b 39 463 44 422 38 447 z m 399 383 b 475 426 429 390 457 404 b 415 381 460 400 439 381 b 399 383 410 381 404 382 z "},"":{"ha":764,"x_min":0,"x_max":0,"o":"m 232 854 b 143 946 224 903 196 946 b 56 864 94 946 61 910 b 51 711 51 803 51 768 b 51 664 51 699 51 667 l 56 568 b -18 488 17 563 -14 526 b 64 390 -22 436 13 394 b 65 390 64 390 64 390 l 96 138 b 125 75 99 111 111 97 b 228 0 151 26 167 0 b 382 53 282 0 336 28 b 719 596 594 169 719 349 b 446 975 719 757 633 975 b 258 883 369 975 308 938 b 238 858 257 882 239 861 b 232 854 236 857 233 856 z m 242 735 b 257 776 242 749 251 764 b 457 933 293 853 365 933 b 524 907 471 933 524 929 b 511 894 524 900 518 894 b 458 907 493 894 478 907 b 288 781 382 907 321 842 b 265 728 279 764 276 742 b 256 722 263 724 260 722 b 242 735 249 722 242 728 z m 536 889 b 549 900 536 894 542 900 b 583 874 561 900 576 881 b 585 865 585 869 585 868 b 574 854 585 858 581 854 b 536 889 564 854 536 876 z m 92 649 b 92 693 92 660 92 690 b 156 871 92 728 94 871 b 181 856 165 871 181 868 b 169 843 181 850 176 843 b 156 846 164 843 160 846 b 118 650 118 846 118 674 b 122 569 118 624 119 596 l 94 569 b 92 649 93 596 92 621 z m 407 599 b 454 633 418 618 432 633 b 511 560 494 633 511 593 b 489 458 511 538 504 496 b 492 474 490 464 492 468 b 400 571 497 531 451 565 b 382 572 396 571 383 572 l 308 571 b 365 619 317 597 336 619 b 407 599 381 619 396 611 z m 306 513 b 301 536 303 521 301 529 b 313 524 308 535 314 531 b 306 513 313 518 310 514 z m 329 522 b 346 535 331 529 339 536 b 357 522 351 535 357 529 b 342 510 356 514 350 510 b 329 522 335 511 329 517 z m 99 490 b 97 524 99 499 97 510 b 125 531 106 526 115 529 b 126 499 125 519 125 510 b 99 490 117 496 107 493 z m 39 463 b 60 503 40 479 49 492 l 64 421 b 63 421 63 421 63 421 b 39 463 44 422 38 447 z m 399 383 b 475 426 429 390 457 404 b 415 381 460 400 439 381 b 399 383 410 381 404 382 z "},"":{"ha":724,"x_min":0,"x_max":0,"o":"m 415 1142 b 333 1244 390 1182 400 1244 b 265 1175 294 1244 265 1214 b 388 988 265 1113 311 988 b 458 1058 425 988 458 1019 b 415 1142 458 1092 435 1117 z m 419 1075 b 410 1065 419 1068 415 1065 b 338 1178 382 1065 338 1153 b 338 1183 338 1178 338 1182 b 347 1188 340 1188 343 1188 b 403 1092 356 1188 389 1107 b 419 1075 408 1086 419 1083 z m 157 726 b 174 644 157 697 161 671 b 201 600 178 635 201 606 b 150 551 201 593 156 558 b 36 281 81 475 36 385 b 304 0 36 126 147 0 b 608 139 425 0 524 60 b 681 256 642 169 681 208 b 590 349 681 307 643 349 b 503 293 547 349 531 324 b 307 183 454 238 385 183 b 219 278 251 183 219 225 b 467 544 219 417 358 490 b 513 625 494 563 513 590 b 340 725 513 746 340 707 b 422 792 340 758 393 792 b 503 740 426 792 458 740 b 590 829 553 740 590 779 b 414 972 590 919 494 972 b 157 726 286 972 157 857 z m 440 911 b 451 921 440 918 444 921 b 463 911 458 921 463 918 b 453 899 463 906 461 899 b 440 911 446 899 440 904 z m 206 740 b 383 919 206 810 308 919 b 394 919 385 919 393 919 b 404 906 401 917 404 913 b 396 896 404 900 403 899 b 231 732 307 886 256 814 b 219 726 228 726 224 726 b 206 740 211 726 206 732 z m 83 317 b 361 611 83 444 229 615 b 371 600 369 610 371 607 b 364 588 371 594 369 590 b 133 399 257 581 175 493 b 110 314 121 371 117 343 b 96 303 108 307 103 303 b 83 317 89 303 83 310 z m 78 249 b 89 260 78 254 83 260 b 104 247 96 260 104 254 b 90 236 104 240 97 236 b 78 249 83 236 78 242 z "},"":{"ha":724,"x_min":0,"x_max":0,"o":"m 308 1142 b 265 1058 289 1117 265 1092 b 336 988 265 1019 299 988 b 458 1175 413 988 458 1113 b 390 1244 458 1214 429 1244 b 308 1142 324 1244 333 1182 z m 304 1075 b 321 1092 304 1083 315 1086 b 376 1188 335 1107 368 1188 b 386 1183 381 1188 383 1188 b 386 1178 386 1182 386 1178 b 314 1065 386 1153 342 1065 b 304 1075 308 1065 304 1068 z m 157 726 b 174 644 157 697 161 671 b 201 600 178 635 201 606 b 150 551 201 593 156 558 b 36 281 81 475 36 385 b 304 0 36 126 147 0 b 608 139 425 0 524 60 b 681 256 642 169 681 208 b 590 349 681 307 643 349 b 503 293 547 349 531 324 b 307 183 454 238 385 183 b 219 278 251 183 219 225 b 467 544 219 417 358 490 b 513 625 494 563 513 590 b 340 725 513 746 340 707 b 422 792 340 758 393 792 b 503 740 426 792 458 740 b 590 829 553 740 590 779 b 414 972 590 919 494 972 b 157 726 286 972 157 857 z m 440 911 b 451 921 440 918 444 921 b 463 911 458 921 463 918 b 453 899 463 906 461 899 b 440 911 446 899 440 904 z m 206 740 b 383 919 206 810 308 919 b 394 919 385 919 393 919 b 404 906 401 917 404 913 b 396 896 404 900 403 899 b 231 732 307 886 256 814 b 219 726 228 726 224 726 b 206 740 211 726 206 732 z m 83 317 b 361 611 83 444 229 615 b 371 600 369 610 371 607 b 364 588 371 594 369 590 b 133 399 257 581 175 493 b 110 314 121 371 117 343 b 96 303 108 307 103 303 b 83 317 89 303 83 310 z m 78 249 b 89 260 78 254 83 260 b 104 247 96 260 104 254 b 90 236 104 240 97 236 b 78 249 83 236 78 242 z "},"":{"ha":724,"x_min":0,"x_max":0,"o":"m 365 1072 b 457 1014 383 1071 410 1019 b 550 1086 503 1008 544 1039 b 483 1197 557 1133 511 1167 b 379 1260 454 1228 421 1254 b 215 1172 310 1268 261 1217 b 174 1103 196 1153 176 1131 b 247 1006 168 1054 199 1013 b 361 1069 300 1000 326 1035 b 365 1072 363 1071 365 1072 z m 379 1188 b 317 1153 350 1190 333 1150 b 307 1165 308 1153 306 1157 b 376 1214 310 1192 350 1217 b 446 1154 400 1211 450 1183 b 435 1143 446 1147 442 1142 b 379 1188 422 1144 410 1183 z m 157 726 b 174 644 157 697 161 671 b 201 600 178 635 201 606 b 150 551 201 593 156 558 b 36 281 81 475 36 385 b 304 0 36 126 147 0 b 608 139 425 0 524 60 b 681 256 642 169 681 208 b 590 349 681 307 643 349 b 503 293 547 349 531 324 b 307 183 454 238 385 183 b 219 278 251 183 219 225 b 467 544 219 417 358 490 b 513 625 494 563 513 590 b 340 725 513 746 340 707 b 422 792 340 758 393 792 b 503 740 426 792 458 740 b 590 829 553 740 590 779 b 414 972 590 919 494 972 b 157 726 286 972 157 857 z m 440 911 b 451 921 440 918 444 921 b 463 911 458 921 463 918 b 453 899 463 906 461 899 b 440 911 446 899 440 904 z m 206 740 b 383 919 206 810 308 919 b 394 919 385 919 393 919 b 404 906 401 917 404 913 b 396 896 404 900 403 899 b 231 732 307 886 256 814 b 219 726 228 726 224 726 b 206 740 211 726 206 732 z m 83 317 b 361 611 83 444 229 615 b 371 600 369 610 371 607 b 364 588 371 594 369 590 b 133 399 257 581 175 493 b 110 314 121 371 117 343 b 96 303 108 307 103 303 b 83 317 89 303 83 310 z m 78 249 b 89 260 78 254 83 260 b 104 247 96 260 104 254 b 90 236 104 240 97 236 b 78 249 83 236 78 242 z "},"":{"ha":724,"x_min":0,"x_max":0,"o":"m 231 1075 b 297 1008 231 1038 261 1008 b 367 1075 333 1008 367 1038 b 299 1140 367 1113 335 1140 b 231 1075 264 1140 231 1111 z m 386 1075 b 453 1008 386 1038 415 1008 b 522 1075 489 1008 522 1038 b 454 1140 522 1113 490 1140 b 386 1075 418 1140 386 1111 z m 157 726 b 174 644 157 697 161 671 b 201 600 178 635 201 606 b 150 551 201 593 156 558 b 36 281 81 475 36 385 b 304 0 36 126 147 0 b 608 139 425 0 524 60 b 681 256 642 169 681 208 b 590 349 681 307 643 349 b 503 293 547 349 531 324 b 307 183 454 238 385 183 b 219 278 251 183 219 225 b 467 544 219 417 358 490 b 513 625 494 563 513 590 b 340 725 513 746 340 707 b 422 792 340 758 393 792 b 503 740 426 792 458 740 b 590 829 553 740 590 779 b 414 972 590 919 494 972 b 157 726 286 972 157 857 z m 440 911 b 451 921 440 918 444 921 b 463 911 458 921 463 918 b 453 899 463 906 461 899 b 440 911 446 899 440 904 z m 206 740 b 383 919 206 810 308 919 b 394 919 385 919 393 919 b 404 906 401 917 404 913 b 396 896 404 900 403 899 b 231 732 307 886 256 814 b 219 726 228 726 224 726 b 206 740 211 726 206 732 z m 83 317 b 361 611 83 444 229 615 b 371 600 369 610 371 607 b 364 588 371 594 369 590 b 133 399 257 581 175 493 b 110 314 121 371 117 343 b 96 303 108 307 103 303 b 83 317 89 303 83 310 z m 78 249 b 89 260 78 254 83 260 b 104 247 96 260 104 254 b 90 236 104 240 97 236 b 78 249 83 236 78 242 z "},"":{"ha":471,"x_min":0,"x_max":0,"o":"m -33 879 b 60 783 -33 828 8 783 b 138 794 86 783 110 794 b 163 794 140 794 158 794 l 175 567 l 154 199 l 150 194 b 67 88 107 169 67 143 b 265 -14 67 -26 188 -14 b 313 -17 269 -14 308 -17 b 344 -17 314 -17 338 -17 b 351 -17 346 -17 349 -17 l 371 -17 b 376 -17 374 -17 375 -17 b 468 83 428 -10 468 31 b 353 183 468 150 414 182 l 353 188 l 371 446 b 372 529 371 450 372 508 b 363 781 372 613 371 697 l 363 786 b 468 889 419 794 468 826 b 292 994 468 992 369 994 b 332 1058 315 1007 332 1031 b 289 1142 332 1092 308 1117 b 207 1244 264 1182 274 1244 b 139 1175 168 1244 139 1214 b 232 994 139 1121 174 1019 b 163 992 208 993 183 992 b -33 879 89 989 -33 978 z m 293 1075 b 283 1065 293 1068 289 1065 b 211 1178 256 1065 211 1153 b 211 1183 211 1178 211 1182 b 221 1188 214 1188 217 1188 b 276 1092 229 1188 263 1107 b 293 1075 282 1086 293 1083 z m 44 885 b 254 954 44 950 200 954 b 390 929 281 954 390 953 b 374 915 390 919 383 915 b 249 925 332 915 290 925 b 74 885 235 925 74 918 b 78 869 75 881 78 871 b 64 856 79 863 71 856 b 44 885 50 856 44 874 z m 404 921 b 415 933 404 929 408 933 b 426 921 424 933 426 929 b 415 910 426 914 424 910 b 404 921 408 910 404 914 z m 210 767 b 224 779 210 774 217 779 b 238 767 231 779 238 774 b 238 725 238 760 238 732 b 238 685 238 715 238 688 b 232 204 236 613 232 276 b 217 194 229 196 225 194 b 204 214 206 194 204 204 b 210 767 204 399 207 582 z "},"":{"ha":471,"x_min":0,"x_max":0,"o":"m -33 879 b 60 783 -33 828 8 783 b 138 794 86 783 110 794 b 163 794 140 794 158 794 l 175 567 l 154 199 l 150 194 b 67 88 107 169 67 143 b 265 -14 67 -26 188 -14 b 313 -17 269 -14 308 -17 b 344 -17 314 -17 338 -17 b 351 -17 346 -17 349 -17 l 371 -17 b 376 -17 374 -17 375 -17 b 468 83 428 -10 468 31 b 353 183 468 150 414 182 l 353 188 l 371 446 b 372 529 371 450 372 508 b 363 781 372 613 371 697 l 363 786 b 468 889 419 794 468 826 b 285 996 468 994 364 996 b 239 994 271 996 256 994 b 332 1175 297 1021 332 1121 b 264 1244 332 1214 303 1244 b 182 1142 197 1244 207 1182 b 139 1058 163 1117 139 1092 b 186 992 139 1028 158 1001 b -33 879 110 992 -33 985 z m 178 1075 b 194 1092 178 1083 189 1086 b 250 1188 208 1107 242 1188 b 260 1183 254 1188 257 1188 b 260 1178 260 1182 260 1178 b 188 1065 260 1153 215 1065 b 178 1075 182 1065 178 1068 z m 44 885 b 254 954 44 950 200 954 b 390 929 281 954 390 953 b 374 915 390 919 383 915 b 249 925 332 915 290 925 b 74 885 235 925 74 918 b 78 869 75 881 78 871 b 64 856 79 863 71 856 b 44 885 50 856 44 874 z m 404 921 b 415 933 404 929 408 933 b 426 921 424 933 426 929 b 415 910 426 914 424 910 b 404 921 408 910 404 914 z m 210 767 b 224 779 210 774 217 779 b 238 767 231 779 238 774 b 238 725 238 760 238 732 b 238 685 238 715 238 688 b 232 204 236 613 232 276 b 217 194 229 196 225 194 b 204 214 206 194 204 204 b 210 767 204 399 207 582 z "},"":{"ha":471,"x_min":0,"x_max":0,"o":"m 239 1072 b 331 1014 257 1071 283 1019 b 424 1086 376 1008 418 1039 b 357 1197 431 1133 385 1167 b 253 1260 328 1228 294 1254 b 89 1172 183 1268 135 1217 b 47 1103 69 1153 50 1131 b 121 1006 42 1054 72 1013 b 235 1069 174 1000 200 1035 b 239 1072 236 1071 239 1072 z m 253 1188 b 190 1153 224 1190 207 1150 b 181 1165 182 1153 179 1157 b 250 1214 183 1192 224 1217 b 319 1154 274 1211 324 1183 b 308 1143 319 1147 315 1142 b 253 1188 296 1144 283 1183 z m -33 879 b 60 783 -33 828 8 783 b 138 794 86 783 110 794 b 163 794 140 794 158 794 l 175 567 l 154 199 l 150 194 b 67 88 107 169 67 143 b 265 -14 67 -26 188 -14 b 313 -17 269 -14 308 -17 b 344 -17 314 -17 338 -17 b 351 -17 346 -17 349 -17 l 371 -17 b 376 -17 374 -17 375 -17 b 468 83 428 -10 468 31 b 353 183 468 150 414 182 l 353 188 l 371 446 b 372 529 371 450 372 508 b 363 781 372 613 371 697 l 363 786 b 468 889 419 794 468 826 b 285 996 468 994 364 996 b 163 992 246 996 200 992 b -33 879 89 989 -33 978 z m 44 885 b 254 954 44 950 200 954 b 390 929 281 954 390 953 b 374 915 390 919 383 915 b 249 925 332 915 290 925 b 74 885 235 925 74 918 b 78 869 75 881 78 871 b 64 856 79 863 71 856 b 44 885 50 856 44 874 z m 404 921 b 415 933 404 929 408 933 b 426 921 424 933 426 929 b 415 910 426 914 424 910 b 404 921 408 910 404 914 z m 210 767 b 224 779 210 774 217 779 b 238 767 231 779 238 774 b 238 725 238 760 238 732 b 238 685 238 715 238 688 b 232 204 236 613 232 276 b 217 194 229 196 225 194 b 204 214 206 194 204 204 b 210 767 204 399 207 582 z "},"":{"ha":471,"x_min":0,"x_max":0,"o":"m 90 1111 b 157 1044 90 1074 121 1044 b 226 1111 193 1044 226 1074 b 158 1176 226 1149 194 1176 b 90 1111 122 1176 90 1149 z m 244 1111 b 311 1044 244 1074 275 1044 b 381 1111 347 1044 381 1074 b 313 1176 381 1149 349 1176 b 244 1111 276 1176 244 1149 z m -33 879 b 60 783 -33 828 8 783 b 138 794 86 783 110 794 b 163 794 140 794 158 794 l 175 567 l 154 199 l 150 194 b 67 88 107 169 67 143 b 265 -14 67 -26 188 -14 b 313 -17 269 -14 308 -17 b 344 -17 314 -17 338 -17 b 351 -17 346 -17 349 -17 l 371 -17 b 376 -17 374 -17 375 -17 b 468 83 428 -10 468 31 b 353 183 468 150 414 182 l 353 188 l 371 446 b 372 529 371 450 372 508 b 363 781 372 613 371 697 l 363 786 b 468 889 419 794 468 826 b 285 996 468 994 364 996 b 163 992 246 996 200 992 b -33 879 89 989 -33 978 z m 44 885 b 254 954 44 950 200 954 b 390 929 281 954 390 953 b 374 915 390 919 383 915 b 249 925 332 915 290 925 b 74 885 235 925 74 918 b 78 869 75 881 78 871 b 64 856 79 863 71 856 b 44 885 50 856 44 874 z m 404 921 b 415 933 404 929 408 933 b 426 921 424 933 426 929 b 415 910 426 914 424 910 b 404 921 408 910 404 914 z m 210 767 b 224 779 210 774 217 779 b 238 767 231 779 238 774 b 238 725 238 760 238 732 b 238 685 238 715 238 688 b 232 204 236 613 232 276 b 217 194 229 196 225 194 b 204 214 206 194 204 204 b 210 767 204 399 207 582 z "},"":{"ha":632,"x_min":0,"x_max":0,"o":"m 43 886 b 35 685 36 819 35 753 b 40 406 35 592 36 499 b -78 342 0 386 -39 365 b -107 267 -104 328 -118 294 b -51 228 -97 242 -75 228 b -28 232 -43 228 -36 229 b -18 236 -26 232 -19 236 b 57 272 6 247 31 260 b 318 -17 86 131 153 -1 b 356 -17 324 -17 350 -17 b 511 -12 407 -17 460 -14 b 601 85 563 -7 601 33 b 481 182 601 154 540 182 b 356 178 439 182 397 178 b 238 361 261 178 244 279 b 358 415 279 381 319 400 b 461 524 406 433 488 453 b 382 564 450 554 414 574 b 356 554 378 563 360 556 b 303 533 340 549 318 538 l 232 499 b 226 786 231 599 228 746 b 226 881 226 800 226 867 b 135 972 222 931 188 972 b 43 886 85 972 49 935 z m 61 658 b 75 840 61 719 63 781 b 132 928 81 867 93 928 b 175 894 149 928 175 913 b 161 881 175 886 168 881 b 132 899 149 881 144 899 b 92 732 103 899 92 751 b 103 435 92 632 92 533 b 78 422 96 431 86 426 b 61 658 67 500 61 579 z m 267 446 b 272 457 265 450 267 456 b 283 451 276 460 281 457 b 278 440 285 447 283 442 b 267 446 274 438 269 440 z m 233 443 b 235 443 235 443 235 443 b 249 439 240 446 246 446 b 235 422 253 429 242 425 b 233 443 233 428 233 435 z m 88 354 b 85 375 88 361 86 368 b 110 386 93 379 101 383 b 113 367 111 379 111 374 z m -26 315 b 44 354 -3 329 21 342 b 47 333 46 347 47 340 l -15 301 b -26 294 -17 300 -25 296 b -37 300 -31 293 -36 294 b -26 315 -40 307 -32 313 z m 99 293 b 124 306 107 297 115 301 b 132 271 126 293 129 282 b 118 257 132 263 126 257 b 99 293 101 257 101 282 z m 122 213 b 139 232 122 222 129 232 b 151 221 146 232 151 229 b 136 199 151 213 147 199 b 122 213 128 199 122 206 z "},"":{"ha":936,"x_min":0,"x_max":0,"o":"m 578 1175 b 514 1142 551 1176 531 1163 b 429 1176 485 1157 463 1174 b 299 1069 375 1179 301 1125 b 356 1000 296 1035 319 1003 b 422 1042 396 999 419 1042 b 496 1004 432 1042 472 1010 b 514 1003 499 1004 511 1003 b 638 1104 574 999 633 1039 b 578 1175 640 1140 615 1172 z m 335 1072 b 440 1146 338 1117 401 1149 b 453 1146 443 1146 451 1146 b 461 1133 458 1143 461 1140 b 456 1126 461 1131 460 1128 b 381 1107 428 1129 401 1125 b 343 1063 372 1101 347 1061 b 335 1072 336 1063 333 1068 z m 467 1128 b 476 1136 468 1133 472 1136 b 485 1128 481 1136 485 1132 b 475 1119 485 1121 481 1119 b 467 1128 469 1121 467 1124 z m 608 1121 b 617 1129 608 1126 611 1129 b 624 1121 621 1128 624 1125 b 615 1113 622 1115 619 1113 b 608 1121 610 1113 608 1117 z m 515 1040 b 582 1063 540 1039 563 1047 b 608 1094 590 1068 597 1096 b 617 1083 615 1094 617 1089 b 514 1021 614 1040 550 1019 b 475 1039 504 1022 474 1025 b 485 1049 475 1044 479 1049 b 515 1040 494 1047 504 1042 z m 31 415 b 51 171 31 335 35 251 b 168 -1 67 106 79 -1 b 258 88 217 -1 258 38 b 239 206 258 125 243 171 b 224 424 231 279 224 350 b 258 694 224 514 231 607 b 268 724 261 703 267 724 l 269 724 l 365 371 b 651 44 401 238 485 44 b 892 415 831 44 892 271 l 892 546 b 872 746 892 558 879 699 b 851 883 872 750 858 844 b 756 969 844 932 806 969 b 661 872 701 969 661 925 b 661 856 661 869 661 858 b 700 424 686 706 700 576 b 649 239 699 386 678 239 b 601 293 631 239 608 279 b 469 726 533 424 504 588 b 269 974 442 821 393 974 b 31 415 60 974 31 539 z m 267 894 b 281 908 267 903 274 908 b 294 896 288 908 294 903 b 279 881 294 888 286 881 b 267 894 271 881 267 888 z m 149 769 b 221 879 156 793 190 879 b 235 867 229 879 235 874 b 204 825 235 854 211 838 b 164 726 188 794 174 761 b 114 315 125 593 108 456 b 99 301 111 307 108 301 b 85 328 86 301 86 318 b 149 769 85 483 100 621 z m 726 853 b 740 868 726 861 732 868 b 756 849 751 868 754 857 b 786 533 775 743 786 640 b 676 183 786 446 778 183 b 656 197 667 183 656 186 b 707 235 656 211 693 211 b 760 533 760 319 760 439 b 726 853 760 639 749 746 z m 597 183 b 614 197 597 192 607 197 b 625 186 622 197 625 194 b 610 171 625 176 619 171 b 597 183 603 171 597 175 z "},"":{"ha":822,"x_min":0,"x_max":0,"o":"m 465 1142 b 382 1244 439 1182 449 1244 b 314 1175 343 1244 314 1214 b 436 988 314 1113 361 988 b 508 1058 475 988 508 1019 b 465 1142 508 1092 483 1117 z m 469 1075 b 458 1065 469 1068 465 1065 b 386 1178 432 1065 386 1153 b 386 1183 386 1178 386 1182 b 396 1188 389 1188 392 1188 b 451 1092 406 1188 438 1107 b 469 1075 457 1086 469 1083 z m 33 663 b 81 494 33 600 51 549 b 81 489 81 493 81 490 b 72 389 81 456 72 422 b 379 4 72 210 178 4 b 790 544 640 4 790 318 b 375 985 790 779 617 985 b 33 663 194 985 33 849 z m 81 656 b 396 950 81 822 236 950 b 575 892 460 950 524 931 b 597 865 583 885 597 876 b 585 851 597 858 593 851 b 532 888 568 851 546 879 b 396 921 489 911 444 921 b 108 629 229 921 104 796 b 94 617 108 622 101 617 b 81 656 78 617 81 647 z m 615 818 b 631 832 615 825 624 832 b 640 826 635 832 638 829 b 640 819 640 825 640 821 b 628 806 640 811 636 806 b 615 818 621 806 615 811 z m 408 575 b 465 617 425 585 421 617 b 526 532 511 617 526 569 b 456 381 526 497 499 381 b 303 515 385 394 303 433 b 364 596 303 551 322 596 b 408 575 382 596 397 588 z m 150 414 b 165 431 150 422 154 431 b 176 418 174 431 176 425 b 161 401 176 411 169 401 b 150 414 154 401 150 407 z m 136 333 b 154 379 136 346 135 379 b 167 365 161 379 167 372 b 165 332 167 354 165 344 b 231 165 165 274 193 210 b 310 88 240 154 310 93 b 296 75 310 79 306 75 b 254 100 283 75 264 92 b 136 333 192 158 136 244 z "},"":{"ha":822,"x_min":0,"x_max":0,"o":"m 358 1142 b 314 1058 339 1117 314 1092 b 386 988 314 1019 347 988 b 508 1175 463 988 508 1113 b 440 1244 508 1214 479 1244 b 358 1142 374 1244 383 1182 z m 353 1075 b 371 1092 353 1083 365 1086 b 426 1188 385 1107 417 1188 b 436 1183 431 1188 433 1188 b 436 1178 436 1182 436 1178 b 364 1065 436 1153 390 1065 b 353 1075 357 1065 353 1068 z m 33 663 b 81 494 33 600 51 549 b 81 489 81 493 81 490 b 72 389 81 456 72 422 b 379 4 72 210 178 4 b 790 544 640 4 790 318 b 375 985 790 779 617 985 b 33 663 194 985 33 849 z m 81 656 b 396 950 81 822 236 950 b 575 892 460 950 524 931 b 597 865 583 885 597 876 b 585 851 597 858 593 851 b 532 888 568 851 546 879 b 396 921 489 911 444 921 b 108 629 229 921 104 796 b 94 617 108 622 101 617 b 81 656 78 617 81 647 z m 615 818 b 631 832 615 825 624 832 b 640 826 635 832 638 829 b 640 819 640 825 640 821 b 628 806 640 811 636 806 b 615 818 621 806 615 811 z m 408 575 b 465 617 425 585 421 617 b 526 532 511 617 526 569 b 456 381 526 497 499 381 b 303 515 385 394 303 433 b 364 596 303 551 322 596 b 408 575 382 596 397 588 z m 150 414 b 165 431 150 422 154 431 b 176 418 174 431 176 425 b 161 401 176 411 169 401 b 150 414 154 401 150 407 z m 136 333 b 154 379 136 346 135 379 b 167 365 161 379 167 372 b 165 332 167 354 165 344 b 231 165 165 274 193 210 b 310 88 240 154 310 93 b 296 75 310 79 306 75 b 254 100 283 75 264 92 b 136 333 192 158 136 244 z "},"":{"ha":822,"x_min":0,"x_max":0,"o":"m 415 1072 b 506 1014 433 1071 460 1019 b 600 1086 553 1008 594 1039 b 532 1197 606 1133 561 1167 b 428 1260 504 1228 471 1254 b 265 1172 360 1268 310 1217 b 222 1103 244 1153 226 1131 b 296 1006 217 1054 249 1013 b 411 1069 349 1000 375 1035 b 415 1072 411 1071 414 1072 z m 428 1188 b 367 1153 399 1190 383 1150 b 356 1165 358 1153 354 1157 b 425 1214 358 1192 400 1217 b 496 1154 449 1211 499 1183 b 483 1143 494 1147 492 1142 b 428 1188 472 1144 460 1183 z m 33 663 b 81 494 33 600 51 549 b 81 489 81 493 81 490 b 72 389 81 456 72 422 b 379 4 72 210 178 4 b 790 544 640 4 790 318 b 375 985 790 779 617 985 b 33 663 194 985 33 849 z m 81 656 b 396 950 81 822 236 950 b 575 892 460 950 524 931 b 597 865 583 885 597 876 b 585 851 597 858 593 851 b 532 888 568 851 546 879 b 396 921 489 911 444 921 b 108 629 229 921 104 796 b 94 617 108 622 101 617 b 81 656 78 617 81 647 z m 615 818 b 631 832 615 825 624 832 b 640 826 635 832 638 829 b 640 819 640 825 640 821 b 628 806 640 811 636 806 b 615 818 621 806 615 811 z m 408 575 b 465 617 425 585 421 617 b 526 532 511 617 526 569 b 456 381 526 497 499 381 b 303 515 385 394 303 433 b 364 596 303 551 322 596 b 408 575 382 596 397 588 z m 150 414 b 165 431 150 422 154 431 b 176 418 174 431 176 425 b 161 401 176 411 169 401 b 150 414 154 401 150 407 z m 136 333 b 154 379 136 346 135 379 b 167 365 161 379 167 372 b 165 332 167 354 165 344 b 231 165 165 274 193 210 b 310 88 240 154 310 93 b 296 75 310 79 306 75 b 254 100 283 75 264 92 b 136 333 192 158 136 244 z "},"":{"ha":822,"x_min":0,"x_max":0,"o":"m 521 1175 b 457 1142 494 1176 474 1163 b 372 1176 428 1157 406 1174 b 242 1069 318 1179 244 1125 b 299 1000 239 1035 263 1003 b 365 1042 339 999 363 1042 b 439 1004 375 1042 415 1010 b 457 1003 442 1004 454 1003 b 581 1104 517 999 576 1039 b 521 1175 583 1140 558 1172 z m 278 1072 b 383 1146 281 1117 344 1149 b 396 1146 386 1146 394 1146 b 404 1133 401 1143 404 1140 b 399 1126 404 1131 403 1128 b 324 1107 371 1129 344 1125 b 286 1063 315 1101 290 1061 b 278 1072 279 1063 276 1068 z m 410 1128 b 419 1136 411 1133 415 1136 b 428 1128 424 1136 428 1132 b 418 1119 428 1121 424 1119 b 410 1128 413 1121 410 1124 z m 551 1121 b 560 1129 551 1126 554 1129 b 567 1121 564 1128 567 1125 b 558 1113 565 1115 563 1113 b 551 1121 553 1113 551 1117 z m 458 1040 b 525 1063 483 1039 506 1047 b 551 1094 533 1068 540 1096 b 560 1083 558 1094 560 1089 b 457 1021 557 1040 493 1019 b 418 1039 447 1022 417 1025 b 428 1049 418 1044 422 1049 b 458 1040 438 1047 447 1042 z m 33 663 b 81 494 33 600 51 549 b 81 489 81 493 81 490 b 72 389 81 456 72 422 b 379 4 72 210 178 4 b 790 544 640 4 790 318 b 375 985 790 779 617 985 b 33 663 194 985 33 849 z m 81 656 b 396 950 81 822 236 950 b 575 892 460 950 524 931 b 597 865 583 885 597 876 b 585 851 597 858 593 851 b 532 888 568 851 546 879 b 396 921 489 911 444 921 b 108 629 229 921 104 796 b 94 617 108 622 101 617 b 81 656 78 617 81 647 z m 615 818 b 631 832 615 825 624 832 b 640 826 635 832 638 829 b 640 819 640 825 640 821 b 628 806 640 811 636 806 b 615 818 621 806 615 811 z m 408 575 b 465 617 425 585 421 617 b 526 532 511 617 526 569 b 456 381 526 497 499 381 b 303 515 385 394 303 433 b 364 596 303 551 322 596 b 408 575 382 596 397 588 z m 150 414 b 165 431 150 422 154 431 b 176 418 174 431 176 425 b 161 401 176 411 169 401 b 150 414 154 401 150 407 z m 136 333 b 154 379 136 346 135 379 b 167 365 161 379 167 372 b 165 332 167 354 165 344 b 231 165 165 274 193 210 b 310 88 240 154 310 93 b 296 75 310 79 306 75 b 254 100 283 75 264 92 b 136 333 192 158 136 244 z "},"":{"ha":822,"x_min":0,"x_max":0,"o":"m 265 1111 b 332 1044 265 1074 296 1044 b 401 1111 368 1044 401 1074 b 333 1176 401 1149 371 1176 b 265 1111 299 1176 265 1149 z m 421 1111 b 488 1044 421 1074 450 1044 b 557 1111 524 1044 557 1074 b 489 1176 557 1149 525 1176 b 421 1111 453 1176 421 1149 z m 33 663 b 81 494 33 600 51 549 b 81 489 81 493 81 490 b 72 389 81 456 72 422 b 379 4 72 210 178 4 b 790 544 640 4 790 318 b 375 985 790 779 617 985 b 33 663 194 985 33 849 z m 81 656 b 396 950 81 822 236 950 b 575 892 460 950 524 931 b 597 865 583 885 597 876 b 585 851 597 858 593 851 b 532 888 568 851 546 879 b 396 921 489 911 444 921 b 108 629 229 921 104 796 b 94 617 108 622 101 617 b 81 656 78 617 81 647 z m 615 818 b 631 832 615 825 624 832 b 640 826 635 832 638 829 b 640 819 640 825 640 821 b 628 806 640 811 636 806 b 615 818 621 806 615 811 z m 408 575 b 465 617 425 585 421 617 b 526 532 511 617 526 569 b 456 381 526 497 499 381 b 303 515 385 394 303 433 b 364 596 303 551 322 596 b 408 575 382 596 397 588 z m 150 414 b 165 431 150 422 154 431 b 176 418 174 431 176 425 b 161 401 176 411 169 401 b 150 414 154 401 150 407 z m 136 333 b 154 379 136 346 135 379 b 167 365 161 379 167 372 b 165 332 167 354 165 344 b 231 165 165 274 193 210 b 310 88 240 154 310 93 b 296 75 310 79 306 75 b 254 100 283 75 264 92 b 136 333 192 158 136 244 z "},"":{"ha":822,"x_min":0,"x_max":0,"o":"m 33 663 b 81 494 33 600 51 549 b 81 489 81 493 81 490 b 72 389 81 456 72 422 b 165 110 72 290 104 185 b 160 76 161 99 160 89 b 254 -19 160 25 201 -19 b 321 10 281 -19 303 -8 b 379 4 339 6 358 4 b 790 544 640 4 790 318 b 660 867 790 669 742 785 b 663 901 661 879 663 890 b 575 992 663 953 626 992 b 510 963 544 992 524 981 b 375 985 468 976 422 985 b 33 663 194 985 33 849 z m 81 656 b 396 950 81 822 236 950 b 493 935 429 950 461 944 b 482 908 489 926 486 918 b 396 921 454 918 426 921 b 108 629 229 921 104 796 b 94 617 108 622 101 617 b 81 656 78 617 81 647 z m 540 882 b 550 874 546 881 550 878 b 540 882 547 876 543 879 z m 408 575 b 449 614 422 583 422 607 l 367 413 b 343 429 358 418 350 424 l 404 579 b 408 575 406 578 407 576 z m 311 472 b 303 515 306 485 303 500 b 360 596 303 550 321 593 z m 515 469 b 492 410 510 447 501 426 z m 150 414 b 165 431 150 422 154 431 b 176 418 174 431 176 425 b 161 401 176 411 169 401 b 150 414 154 401 150 407 z m 136 333 b 154 379 136 346 135 379 b 167 365 161 379 167 372 b 165 332 167 354 165 344 b 204 201 165 288 181 242 l 194 175 b 193 171 193 174 193 172 b 136 333 160 219 136 276 z "},"":{"ha":1232,"x_min":0,"x_max":0,"o":"m 33 663 b 81 494 33 600 51 549 b 81 489 81 493 81 490 b 72 389 81 456 72 422 b 379 4 72 210 178 4 b 658 154 494 4 589 65 b 899 0 700 64 789 0 b 1204 139 1019 0 1118 60 b 1275 256 1236 169 1275 208 b 1185 349 1275 307 1238 349 b 1097 293 1142 349 1125 324 b 901 183 1049 238 979 183 b 814 278 846 183 814 225 b 1061 544 814 417 953 490 b 1107 625 1089 563 1107 590 b 935 725 1107 746 935 707 b 1017 792 935 758 988 792 b 1099 740 1021 792 1053 740 b 1185 829 1147 740 1185 779 b 1008 972 1185 919 1089 972 b 751 732 882 972 756 860 b 375 985 688 879 549 985 b 33 663 194 985 33 849 z m 81 656 b 396 950 81 822 236 950 b 575 892 460 950 524 931 b 597 865 583 885 597 876 b 585 851 597 858 593 851 b 532 888 568 851 546 879 b 396 921 489 911 444 921 b 108 629 229 921 104 796 b 94 617 108 622 101 617 b 81 656 78 617 81 647 z m 1035 911 b 1046 921 1035 918 1040 921 b 1057 911 1053 921 1057 918 b 1047 899 1057 906 1056 899 b 1035 911 1040 899 1035 904 z m 801 740 b 978 919 801 810 903 919 b 989 919 979 919 988 919 b 999 906 996 917 999 913 b 992 896 999 900 997 899 b 825 732 901 886 850 814 b 814 726 822 726 818 726 b 801 740 806 726 801 732 z m 615 818 b 631 832 615 825 624 832 b 640 826 635 832 638 829 b 640 819 640 825 640 821 b 628 806 640 811 636 806 b 615 818 621 806 615 811 z m 788 590 b 785 619 788 600 786 610 b 796 600 790 611 796 603 b 788 590 796 599 793 594 z m 408 575 b 465 617 425 585 421 617 b 526 532 511 617 526 569 b 456 381 526 497 499 381 b 303 515 385 394 303 433 b 364 596 303 551 322 596 b 408 575 382 596 397 588 z m 788 494 b 790 536 789 508 790 522 b 957 611 839 582 899 613 b 965 600 964 610 965 607 b 958 588 965 594 964 590 b 788 494 890 583 832 546 z m 150 414 b 165 431 150 422 154 431 b 176 418 174 431 176 425 b 161 401 176 411 169 401 b 150 414 154 401 150 407 z m 136 333 b 154 379 136 346 135 379 b 167 365 161 379 167 372 b 165 332 167 354 165 344 b 231 165 165 274 193 210 b 310 88 240 154 310 93 b 296 75 310 79 306 75 b 254 100 283 75 264 92 b 136 333 192 158 136 244 z "},"":{"ha":629,"x_min":0,"x_max":0,"o":"m 311 1181 b 219 1239 293 1182 267 1233 b 126 1167 174 1244 132 1214 b 193 1056 121 1119 165 1086 b 297 993 222 1025 256 999 b 461 1081 367 985 415 1036 b 503 1150 481 1100 500 1121 b 429 1246 508 1197 478 1240 b 315 1183 378 1253 351 1217 b 311 1181 314 1182 311 1181 z m 297 1065 b 360 1100 326 1061 343 1103 b 371 1088 368 1099 371 1096 b 300 1039 367 1061 326 1035 b 231 1099 276 1042 226 1069 b 242 1110 231 1106 235 1110 b 297 1065 254 1108 267 1069 z m 56 692 b 158 499 56 611 101 551 b 308 378 182 481 286 396 b 403 251 340 351 403 301 b 319 193 403 208 354 193 b 126 332 249 224 207 332 b 36 236 75 332 36 286 b 118 107 36 182 82 140 b 329 1 183 50 240 1 b 593 251 467 1 593 110 b 297 632 593 424 415 540 b 247 692 283 644 247 669 b 382 778 247 735 342 778 b 401 774 388 778 396 776 b 482 732 425 750 447 732 b 569 819 529 732 569 771 b 375 975 569 913 458 975 b 56 692 231 975 56 846 z m 108 767 b 126 801 108 779 119 792 b 374 946 174 868 288 946 b 408 931 385 946 408 947 b 399 918 408 925 404 919 b 181 819 314 924 240 874 b 121 754 168 808 136 754 b 108 767 114 754 108 760 z m 440 918 b 453 931 440 925 446 931 b 464 918 461 931 464 925 b 451 906 464 911 458 906 b 440 918 446 906 440 913 z m 442 263 b 454 276 442 269 447 276 b 467 264 461 276 467 272 b 453 251 467 256 461 251 b 442 263 447 251 442 257 z m 143 258 b 156 271 143 265 149 271 b 328 153 175 271 235 153 b 449 243 406 153 433 243 b 461 231 454 243 461 239 b 446 196 461 221 447 197 b 328 126 422 151 376 126 b 147 247 249 126 188 185 b 143 258 146 250 143 254 z "},"":{"ha":996,"x_min":0,"x_max":0,"o":"m 635 1126 b 551 1229 608 1167 618 1229 b 483 1160 514 1229 483 1199 b 606 972 483 1097 531 972 b 678 1043 644 972 678 1004 b 635 1126 678 1076 653 1100 z m 639 1060 b 628 1050 639 1053 635 1050 b 556 1163 601 1050 556 1138 b 557 1168 556 1163 556 1167 b 567 1172 558 1171 561 1172 b 621 1076 575 1172 608 1092 b 639 1060 626 1069 639 1068 z m 29 589 b 128 454 29 528 54 454 b 221 546 178 454 221 494 b 217 578 221 557 217 567 b 271 731 217 596 256 731 l 272 731 b 276 622 278 694 276 658 b 272 393 276 546 272 469 b 488 10 272 249 293 10 b 747 204 606 10 690 111 l 749 204 b 856 -6 754 129 746 -6 b 954 103 918 -6 954 46 b 954 126 954 107 954 122 b 938 467 943 244 938 350 b 963 814 938 583 942 699 b 963 833 963 817 963 831 b 867 935 963 886 922 935 b 753 768 774 935 764 839 b 678 519 739 686 707 597 b 496 211 653 456 544 211 b 469 390 475 211 469 385 b 474 619 469 467 474 543 b 290 972 474 740 464 972 b 29 589 125 972 29 725 z m 292 919 b 307 933 292 929 299 933 b 318 921 314 933 318 928 b 304 904 318 913 314 904 b 292 919 294 904 292 911 z m 75 593 b 231 907 75 703 154 833 b 258 922 238 914 249 922 b 271 908 267 922 271 915 b 225 861 271 893 235 872 b 103 561 156 788 101 661 b 90 554 100 554 96 554 b 75 574 79 554 76 564 b 75 593 75 576 75 590 z m 800 717 b 813 731 800 725 804 731 b 824 719 818 731 824 725 b 810 706 824 710 819 706 b 800 717 803 706 800 710 z m 517 169 b 771 642 651 297 726 464 b 785 656 772 650 776 656 b 799 639 794 656 799 647 b 774 542 799 607 785 572 b 554 165 729 404 660 267 b 528 149 550 161 538 149 b 515 161 521 149 515 154 b 517 169 515 164 515 168 z "},"":{"ha":996,"x_min":0,"x_max":0,"o":"m 556 1150 b 513 1067 538 1125 513 1100 b 585 996 513 1028 546 996 b 707 1183 660 996 707 1121 b 639 1253 707 1222 676 1253 b 556 1150 572 1253 582 1190 z m 551 1083 b 569 1100 551 1093 564 1094 b 624 1196 582 1117 615 1196 b 635 1192 629 1196 632 1196 b 563 1075 635 1164 592 1075 b 551 1083 556 1075 551 1076 z m 29 589 b 128 454 29 528 54 454 b 221 546 178 454 221 494 b 217 578 221 557 217 567 b 271 731 217 596 256 731 l 272 731 b 276 622 278 694 276 658 b 272 393 276 546 272 469 b 488 10 272 249 293 10 b 747 204 606 10 690 111 l 749 204 b 856 -6 754 129 746 -6 b 954 103 918 -6 954 46 b 954 126 954 107 954 122 b 938 467 943 244 938 350 b 963 814 938 583 942 699 b 963 833 963 817 963 831 b 867 935 963 886 922 935 b 753 768 774 935 764 839 b 678 519 739 686 707 597 b 496 211 653 456 544 211 b 469 390 475 211 469 385 b 474 619 469 467 474 543 b 290 972 474 740 464 972 b 29 589 125 972 29 725 z m 292 919 b 307 933 292 929 299 933 b 318 921 314 933 318 928 b 304 904 318 913 314 904 b 292 919 294 904 292 911 z m 75 593 b 231 907 75 703 154 833 b 258 922 238 914 249 922 b 271 908 267 922 271 915 b 225 861 271 893 235 872 b 103 561 156 788 101 661 b 90 554 100 554 96 554 b 75 574 79 554 76 564 b 75 593 75 576 75 590 z m 800 717 b 813 731 800 725 804 731 b 824 719 818 731 824 725 b 810 706 824 710 819 706 b 800 717 803 706 800 710 z m 517 169 b 771 642 651 297 726 464 b 785 656 772 650 776 656 b 799 639 794 656 799 647 b 774 542 799 607 785 572 b 554 165 729 404 660 267 b 528 149 550 161 538 149 b 515 161 521 149 515 154 b 517 169 515 164 515 168 z "},"":{"ha":996,"x_min":0,"x_max":0,"o":"m 601 1053 b 693 993 619 1050 646 999 b 786 1065 739 988 781 1018 b 719 1178 793 1114 747 1147 b 615 1239 690 1207 657 1235 b 451 1153 546 1249 497 1196 b 410 1082 432 1133 413 1111 b 483 986 404 1035 435 992 b 597 1050 536 979 563 1015 b 601 1053 599 1050 601 1053 z m 615 1167 b 553 1132 586 1171 569 1131 b 543 1146 544 1133 542 1138 b 613 1194 546 1171 586 1197 b 682 1133 636 1192 686 1163 b 671 1124 682 1126 678 1122 b 615 1167 658 1125 646 1164 z m 29 589 b 128 454 29 528 54 454 b 221 546 178 454 221 494 b 217 578 221 557 217 567 b 271 731 217 596 256 731 l 272 731 b 276 622 278 694 276 658 b 272 393 276 546 272 469 b 488 10 272 249 293 10 b 747 204 606 10 690 111 l 749 204 b 856 -6 754 129 746 -6 b 954 103 918 -6 954 46 b 954 126 954 107 954 122 b 938 467 943 244 938 350 b 963 814 938 583 942 699 b 963 833 963 817 963 831 b 867 935 963 886 922 935 b 753 768 774 935 764 839 b 678 519 739 686 707 597 b 496 211 653 456 544 211 b 469 390 475 211 469 385 b 474 619 469 467 474 543 b 290 972 474 740 464 972 b 29 589 125 972 29 725 z m 292 919 b 307 933 292 929 299 933 b 318 921 314 933 318 928 b 304 904 318 913 314 904 b 292 919 294 904 292 911 z m 75 593 b 231 907 75 703 154 833 b 258 922 238 914 249 922 b 271 908 267 922 271 915 b 225 861 271 893 235 872 b 103 561 156 788 101 661 b 90 554 100 554 96 554 b 75 574 79 554 76 564 b 75 593 75 576 75 590 z m 800 717 b 813 731 800 725 804 731 b 824 719 818 731 824 725 b 810 706 824 710 819 706 b 800 717 803 706 800 710 z m 517 169 b 771 642 651 297 726 464 b 785 656 772 650 776 656 b 799 639 794 656 799 647 b 774 542 799 607 785 572 b 554 165 729 404 660 267 b 528 149 550 161 538 149 b 515 161 521 149 515 154 b 517 169 515 164 515 168 z "},"":{"ha":996,"x_min":0,"x_max":0,"o":"m 436 1071 b 503 1004 436 1035 465 1004 b 572 1071 539 1004 572 1033 b 504 1136 572 1108 540 1136 b 436 1071 468 1136 436 1108 z m 590 1071 b 657 1004 590 1035 621 1004 b 726 1071 693 1004 726 1033 b 658 1136 726 1108 694 1136 b 590 1071 622 1136 590 1108 z m 29 589 b 128 454 29 528 54 454 b 221 546 178 454 221 494 b 217 578 221 557 217 567 b 271 731 217 596 256 731 l 272 731 b 276 622 278 694 276 658 b 272 393 276 546 272 469 b 488 10 272 249 293 10 b 747 204 606 10 690 111 l 749 204 b 856 -6 754 129 746 -6 b 954 103 918 -6 954 46 b 954 126 954 107 954 122 b 938 467 943 244 938 350 b 963 814 938 583 942 699 b 963 833 963 817 963 831 b 867 935 963 886 922 935 b 753 768 774 935 764 839 b 678 519 739 686 707 597 b 496 211 653 456 544 211 b 469 390 475 211 469 385 b 474 619 469 467 474 543 b 290 972 474 740 464 972 b 29 589 125 972 29 725 z m 292 919 b 307 933 292 929 299 933 b 318 921 314 933 318 928 b 304 904 318 913 314 904 b 292 919 294 904 292 911 z m 75 593 b 231 907 75 703 154 833 b 258 922 238 914 249 922 b 271 908 267 922 271 915 b 225 861 271 893 235 872 b 103 561 156 788 101 661 b 90 554 100 554 96 554 b 75 574 79 554 76 564 b 75 593 75 576 75 590 z m 800 717 b 813 731 800 725 804 731 b 824 719 818 731 824 725 b 810 706 824 710 819 706 b 800 717 803 706 800 710 z m 517 169 b 771 642 651 297 726 464 b 785 656 772 650 776 656 b 799 639 794 656 799 647 b 774 542 799 607 785 572 b 554 165 729 404 660 267 b 528 149 550 161 538 149 b 515 161 521 149 515 154 b 517 169 515 164 515 168 z "},"":{"ha":715,"x_min":0,"x_max":0,"o":"m 254 1057 b 321 990 254 1019 285 990 b 390 1057 357 990 390 1019 b 322 1122 390 1094 360 1122 b 254 1057 288 1122 254 1093 z m 410 1057 b 476 990 410 1019 439 990 b 546 1057 513 990 546 1019 b 478 1122 546 1094 514 1122 b 410 1057 442 1122 410 1093 z m 31 742 b 269 364 31 594 82 364 b 483 483 376 364 411 418 b 415 236 483 393 464 313 b 331 93 388 190 331 151 b 425 0 331 40 374 0 b 554 93 483 0 524 49 b 683 603 667 257 683 403 b 564 926 683 685 706 926 b 458 844 513 926 478 888 b 406 728 453 833 411 739 b 272 558 393 697 318 558 b 224 804 217 608 224 742 b 229 901 224 838 229 869 b 140 990 229 950 189 990 b 31 742 22 990 31 817 z m 106 922 b 119 936 106 932 110 936 b 133 925 128 936 133 932 b 117 913 133 915 124 913 b 106 922 110 913 106 915 z m 78 757 b 103 888 78 776 75 888 b 115 871 113 888 115 879 b 107 756 115 832 107 794 b 215 451 107 643 131 531 b 217 446 215 451 217 447 b 204 435 217 439 213 435 b 160 469 186 435 168 460 b 78 757 93 542 78 664 z m 538 683 b 550 694 539 689 544 694 b 565 681 558 694 565 689 l 565 664 b 497 221 565 515 549 361 b 413 117 486 190 457 117 b 399 129 406 117 399 121 b 422 149 399 142 414 143 b 476 244 450 169 465 214 b 538 683 525 383 535 538 z m 375 96 b 388 113 375 104 378 113 b 399 100 397 113 399 108 b 386 85 399 92 396 85 b 375 96 379 85 375 89 z "},"":{"ha":715,"x_min":0,"x_max":0,"o":"m 347 1139 b 303 1056 328 1113 303 1089 b 375 985 303 1017 336 985 b 497 1172 451 985 497 1110 b 429 1242 497 1211 468 1242 b 347 1139 363 1242 372 1179 z m 342 1072 b 360 1089 342 1081 354 1083 b 415 1185 374 1104 406 1185 b 425 1181 419 1185 422 1185 b 425 1175 425 1179 425 1175 b 353 1063 425 1150 379 1063 b 342 1072 346 1063 342 1065 z m 31 742 b 269 364 31 594 82 364 b 483 483 376 364 411 418 b 415 236 483 393 464 313 b 331 93 388 190 331 151 b 425 0 331 40 374 0 b 554 93 483 0 524 49 b 683 603 667 257 683 403 b 564 926 683 685 706 926 b 458 844 513 926 478 888 b 406 728 453 833 411 739 b 272 558 393 697 318 558 b 224 804 217 608 224 742 b 229 901 224 838 229 869 b 140 990 229 950 189 990 b 31 742 22 990 31 817 z m 106 922 b 119 936 106 932 110 936 b 133 925 128 936 133 932 b 117 913 133 915 124 913 b 106 922 110 913 106 915 z m 78 757 b 103 888 78 776 75 888 b 115 871 113 888 115 879 b 107 756 115 832 107 794 b 215 451 107 643 131 531 b 217 446 215 451 217 447 b 204 435 217 439 213 435 b 160 469 186 435 168 460 b 78 757 93 542 78 664 z m 538 683 b 550 694 539 689 544 694 b 565 681 558 694 565 689 l 565 664 b 497 221 565 515 549 361 b 413 117 486 190 457 117 b 399 129 406 117 399 121 b 422 149 399 142 414 143 b 476 244 450 169 465 214 b 538 683 525 383 535 538 z m 375 96 b 388 113 375 104 378 113 b 399 100 397 113 399 108 b 386 85 399 92 396 85 b 375 96 379 85 375 89 z "},"":{"ha":794,"x_min":0,"x_max":0,"o":"m 393 1181 b 303 1239 376 1182 349 1233 b 208 1167 256 1244 215 1214 b 276 1056 203 1119 247 1086 b 381 993 304 1025 338 999 b 543 1081 449 985 499 1036 b 586 1150 564 1100 582 1121 b 513 1246 592 1197 560 1240 b 397 1183 460 1253 433 1217 b 393 1181 397 1182 394 1181 z m 381 1065 b 442 1100 410 1061 426 1103 b 453 1088 450 1099 454 1096 b 383 1039 450 1061 410 1035 b 313 1099 360 1042 310 1069 b 325 1110 314 1106 317 1110 b 381 1065 336 1108 349 1069 z m 97 911 b 25 818 54 897 25 863 b 113 728 25 769 63 728 b 169 747 135 728 150 736 l 329 781 b 442 792 365 788 404 792 b 524 774 454 792 518 792 b 524 760 524 771 524 761 b 433 532 524 681 471 597 b 428 524 433 529 431 525 b 306 550 386 535 347 550 b 217 465 257 550 217 515 b 324 365 217 399 274 386 l 319 360 b 213 213 303 338 229 235 b 164 96 188 178 164 139 b 318 -18 164 4 242 -18 l 579 0 b 756 93 647 0 756 -3 b 617 189 756 172 681 189 l 432 179 l 421 179 b 424 185 421 181 424 185 b 508 301 438 203 496 283 b 513 303 510 303 511 303 b 603 285 543 303 571 285 b 692 371 651 285 692 321 b 617 468 692 426 658 446 b 711 761 661 561 711 657 b 442 979 711 921 585 979 b 97 911 324 979 207 950 z m 125 831 b 449 926 125 904 403 926 b 597 896 481 926 597 924 b 583 883 597 889 590 883 b 481 899 550 883 514 897 b 447 899 479 899 456 899 b 143 819 356 899 211 893 b 138 818 142 818 139 818 b 125 831 131 818 125 824 z m 99 804 b 113 817 99 813 106 817 b 124 806 119 817 124 813 b 110 793 124 797 118 793 b 99 804 103 793 99 796 z m 263 461 b 329 507 263 496 301 507 b 453 463 354 507 453 483 b 439 449 453 454 446 449 b 329 479 410 449 369 479 b 289 460 315 479 289 479 b 292 446 289 456 292 451 b 281 436 292 439 286 436 b 263 461 268 436 263 451 z m 471 454 b 485 465 471 461 478 465 b 496 453 492 465 496 458 b 485 442 496 446 492 442 b 471 454 478 442 471 446 z "},"":{"ha":614,"x_min":0,"x_max":0,"o":"m 361 864 b 278 967 335 904 344 967 b 210 897 239 967 210 936 b 332 710 210 835 257 710 b 404 781 371 710 404 742 b 361 864 404 814 379 839 z m 365 797 b 354 788 365 790 361 788 b 282 900 328 788 282 875 b 282 906 282 900 282 904 b 292 910 285 910 288 910 b 347 814 301 910 333 829 b 365 797 353 808 365 806 z m 35 293 b 225 0 35 174 76 0 b 325 33 261 0 296 11 b 389 99 335 40 388 99 b 479 25 400 58 438 25 b 569 117 529 25 569 67 b 568 136 569 126 569 128 b 528 338 550 201 528 268 l 528 513 b 490 578 528 540 504 558 b 463 624 479 592 474 610 b 313 694 426 671 371 694 b 35 293 113 694 35 457 z m 208 582 b 249 613 214 588 233 613 b 260 603 256 613 260 610 b 219 553 260 583 231 568 b 131 279 165 474 131 376 b 139 218 131 258 139 239 b 126 204 139 208 135 204 b 106 253 110 204 106 242 b 208 582 106 360 132 501 z m 274 400 b 319 451 281 421 293 451 b 356 390 350 451 356 414 b 296 278 356 358 338 278 b 221 381 251 278 221 344 b 246 414 221 397 228 414 b 274 400 257 414 265 400 z m 133 163 b 143 174 133 169 136 174 b 165 153 153 174 164 156 b 165 147 165 151 165 147 b 154 136 165 140 161 136 b 133 163 143 136 133 151 z "},"":{"ha":614,"x_min":0,"x_max":0,"o":"m 254 864 b 210 781 235 839 210 814 b 282 710 210 742 243 710 b 404 897 358 710 404 835 b 336 967 404 936 375 967 b 254 864 269 967 279 904 z m 249 797 b 267 814 249 806 261 808 b 322 910 281 829 313 910 b 332 906 326 910 329 910 b 332 900 332 904 332 900 b 260 788 332 875 286 788 b 249 797 253 788 249 790 z m 35 293 b 225 0 35 174 76 0 b 325 33 261 0 296 11 b 389 99 335 40 388 99 b 479 25 400 58 438 25 b 569 117 529 25 569 67 b 568 136 569 126 569 128 b 528 338 550 201 528 268 l 528 513 b 490 578 528 540 504 558 b 463 624 479 592 474 610 b 313 694 426 671 371 694 b 35 293 113 694 35 457 z m 208 582 b 249 613 214 588 233 613 b 260 603 256 613 260 610 b 219 553 260 583 231 568 b 131 279 165 474 131 376 b 139 218 131 258 139 239 b 126 204 139 208 135 204 b 106 253 110 204 106 242 b 208 582 106 360 132 501 z m 274 400 b 319 451 281 421 293 451 b 356 390 350 451 356 414 b 296 278 356 358 338 278 b 221 381 251 278 221 344 b 246 414 221 397 228 414 b 274 400 257 414 265 400 z m 133 163 b 143 174 133 169 136 174 b 165 153 153 174 164 156 b 165 147 165 151 165 147 b 154 136 165 140 161 136 b 133 163 143 136 133 151 z "}}}
